<?xml version="1.0" encoding="UTF-8"?>
<svg width="60px" height="60px" viewBox="0 0 60 60" version="1.1" xmlns="http://www.w3.org/2000/svg" xmlns:xlink="http://www.w3.org/1999/xlink">
    <title>Aemter</title>
    <g id="Aemter" stroke="none" stroke-width="1" fill="none" fill-rule="evenodd">
        <g id="Group" transform="translate(8.000000, 8.000000)" fill="#000000" fill-rule="nonzero">
            <path d="M30.45,5.05 L13.75,5.05 C13.45,5.05 13.2,5.3 13.2,5.6 C13.2,5.9 13.45,6.15 13.75,6.15 L30.45,6.15 C30.75,6.15 31,5.9 31,5.6 C31,5.3 30.75,5.05 30.45,5.05 Z" id="Path"></path>
            <path d="M30.45,7.7 L13.75,7.7 C13.45,7.7 13.2,7.95 13.2,8.25 C13.2,8.55 13.45,8.8 13.75,8.8 L30.45,8.8 C30.75,8.8 31,8.55 31,8.25 C30.95,7.95 30.75,7.7 30.45,7.7 Z" id="Path"></path>
            <path d="M26.1,36.45 C25.8,36.45 25.55,36.7 25.55,37 L25.55,37.65 C25.55,37.95 25.8,38.2 26.1,38.2 C26.4,38.2 26.65,37.95 26.65,37.65 L26.65,37 C26.6,36.7 26.4,36.45 26.1,36.45 Z" id="Path"></path>
            <path d="M28.75,36.45 C28.45,36.45 28.2,36.7 28.2,37 L28.2,37.65 C28.2,37.95 28.45,38.2 28.75,38.2 C29.05,38.2 29.3,37.95 29.3,37.65 L29.3,37 C29.3,36.7 29.05,36.45 28.75,36.45 Z" id="Path"></path>
            <path d="M31.45,36.45 C31.15,36.45 30.9,36.7 30.9,37 L30.9,37.65 C30.9,37.95 31.15,38.2 31.45,38.2 C31.75,38.2 32,37.95 32,37.65 L32,37 C31.95,36.7 31.75,36.45 31.45,36.45 Z" id="Path"></path>
            <path d="M34.1,36.45 C33.8,36.45 33.55,36.7 33.55,37 L33.55,37.65 C33.55,37.95 33.8,38.2 34.1,38.2 C34.4,38.2 34.65,37.95 34.65,37.65 L34.65,37 C34.65,36.7 34.4,36.45 34.1,36.45 Z" id="Path"></path>
            <path d="M36.8,36.45 C36.5,36.45 36.25,36.7 36.25,37 L36.25,37.65 C36.25,37.95 36.5,38.2 36.8,38.2 C37.1,38.2 37.35,37.95 37.35,37.65 L37.35,37 C37.3,36.7 37.1,36.45 36.8,36.45 Z" id="Path"></path>
            <path d="M39.45,36.45 C39.15,36.45 38.9,36.7 38.9,37 L38.9,37.65 C38.9,37.95 39.15,38.2 39.45,38.2 C39.75,38.2 40,37.95 40,37.65 L40,37 C40,36.7 39.75,36.45 39.45,36.45 Z" id="Path"></path>
            <path d="M40.8,33.8 L37,33.8 L37,33 C37,31.95 36.45,31.15 35.7,31.15 L35.4,31.15 L35.4,31 C35.6,29.35 36.1,27.75 36.9,26.25 L36.95,26.1 C39.35,23.75 39.4,19.9 37.05,17.55 C34.7,15.15 30.85,15.1 28.5,17.45 C26.1,19.8 26.05,23.65 28.4,26 C28.5,26.1 28.55,26.15 28.65,26.25 L28.7,26.3 L28.75,26.4 C29.5,27.85 30,29.35 30.2,30.95 L30.2,31.1 L29.9,31.1 C29.15,31.1 28.6,31.9 28.6,32.95 L28.6,33.75 L24.8,33.75 C23.75,33.75 22.95,34.6 22.95,35.6 L22.95,38.95 C22.95,40 23.8,40.8 24.8,40.8 L24.95,40.8 L24.95,41.6 C24.95,42.25 25.5,42.8 26.15,42.8 L39.5,42.8 C40.15,42.8 40.7,42.25 40.7,41.6 L40.7,40.8 L40.85,40.8 C41.9,40.8 42.7,39.95 42.7,38.95 L42.7,35.6 C42.65,34.65 41.85,33.8 40.8,33.8 Z M39.6,41.8 L25.95,41.8 L25.95,40.85 L39.6,40.85 L39.6,41.8 Z M40.8,39.8 L24.75,39.8 C24.3,39.8 23.95,39.45 23.95,39 L23.95,35.65 C23.95,35.2 24.3,34.85 24.75,34.85 L29.6,34.85 L29.6,33 C29.6,32.75 29.65,32.5 29.8,32.25 L29.85,32.2 L31.35,32.2 L31.3,31.6 C31.15,29.6 30.6,27.7 29.7,25.95 L29.55,25.65 L29.45,25.6 C27.35,23.8 27.15,20.6 28.95,18.55 C29.85,17.55 31.05,16.95 32.4,16.85 C33.75,16.75 35,17.2 36.05,18.05 C38.15,19.85 38.35,23.05 36.55,25.1 C36.45,25.2 36.35,25.35 36.2,25.45 L36.15,25.5 L36,25.8 C35.05,27.6 34.45,29.55 34.3,31.6 L34.25,32.15 L35.75,32.15 L35.8,32.2 C35.95,32.4 36,32.7 36,32.95 L36,34.75 L40.85,34.75 C41.3,34.75 41.65,35.1 41.65,35.55 L41.65,38.9 C41.6,39.45 41.25,39.8 40.8,39.8 Z" id="Shape"></path>
            <path d="M21.25,17.6 C21.25,13.6 18,10.4 14.05,10.4 C10.05,10.4 6.85,13.65 6.85,17.6 C6.85,21.6 10.1,24.8 14.05,24.8 C18.05,24.8 21.25,21.6 21.25,17.6 Z M14.05,23.75 C10.65,23.75 7.9,21 7.9,17.6 C7.9,14.2 10.65,11.45 14.05,11.45 C17.45,11.45 20.2,14.2 20.2,17.6 C20.2,21 17.45,23.75 14.05,23.75 Z" id="Shape"></path>
            <path d="M30.45,10.4 L19.15,10.4 C19.6,10.7 20,11.05 20.4,11.45 L30.45,11.45 C30.75,11.45 31,11.2 31,10.9 C30.95,10.65 30.75,10.4 30.45,10.4 Z" id="Path"></path>
            <path d="M30.95,13.6 C30.95,13.3 30.7,13.05 30.4,13.05 L21.6,13.05 C21.8,13.4 22,13.75 22.15,14.1 L30.4,14.1 C30.75,14.1 30.95,13.9 30.95,13.6 Z" id="Path"></path>
            <path d="M28.05,15.75 L22.7,15.75 C22.75,16.1 22.85,16.45 22.85,16.8 L26.9,16.8 C27.25,16.4 27.65,16.05 28.05,15.75 Z" id="Path"></path>
            <path d="M22.7,19.45 L25.45,19.45 C25.55,19.1 25.7,18.75 25.9,18.4 L22.9,18.4 C22.8,18.75 22.75,19.1 22.7,19.45 Z" id="Path"></path>
            <path d="M22.2,21.1 C22.05,21.45 21.85,21.8 21.65,22.15 L25.1,22.15 C25.1,22.1 25.1,22.1 25.1,22.05 C25.1,21.95 25.1,21.9 25.1,21.8 C25.1,21.55 25.1,21.3 25.15,21.1 L22.2,21.1 Z" id="Path"></path>
            <path d="M4.9,5.55 C4.9,5.1 5.25,4.75 5.7,4.75 L7.85,4.75 L7.85,11.3 C8.2,11 8.55,10.7 8.9,10.4 L8.9,2.2 C8.9,1.75 9.25,1.4 9.7,1.4 L34.45,1.4 C34.9,1.4 35.25,1.75 35.25,2.2 L35.25,14.5 C35.6,14.65 35.95,14.8 36.3,14.95 L36.3,2.15 C36.3,1.1 35.45,0.3 34.45,0.3 L9.7,0.3 C8.65,0.3 7.85,1.15 7.85,2.15 L7.85,3.65 L5.7,3.65 C4.65,3.65 3.85,4.5 3.85,5.5 L3.85,22.5 C4.2,22.3 4.55,22.15 4.9,22 L4.9,5.55 L4.9,5.55 Z" id="Path"></path>
            <path d="M13.3,26.4 C12.95,26.35 12.6,26.3 12.25,26.25 L11.25,33.05 C11.15,33.65 11.35,34.3 11.8,34.75 L13.2,36.2 C13.7,36.6 14.45,36.6 15,36.2 L16.4,34.75 C16.85,34.3 17.05,33.7 16.95,33.05 L15.65,26.25 C15.3,26.3 14.95,26.35 14.6,26.4 L15.9,33.3 C15.95,33.5 15.85,33.75 15.7,33.9 L14.3,35.35 C14.2,35.4 14.05,35.4 13.95,35.35 L13.9,35.3 L12.5,33.85 C12.3,33.65 12.25,33.4 12.25,33.15 L13.3,26.4 Z" id="Path"></path>
            <path d="M27.05,32.15 C27.15,31.5 27.45,30.9 27.9,30.4 C27.35,26.55 24.55,23.55 20.95,23.1 C20.65,23.45 20.35,23.8 20,24.1 L20,24.1 C23.8,24.1 26.9,27.5 26.9,31.7 L26.9,32.15 L27.05,32.15 Z" id="Path"></path>
            <path d="M23.5,42.7 C23.45,42.6 23.4,42.5 23.4,42.35 C23.4,42.3 23.35,42.2 23.35,42.15 C23.15,42.05 22.9,41.95 22.75,41.8 L1.25,41.8 L1.25,31.7 C1.25,27.5 4.35,24.1 8.15,24.1 C7.8,23.8 7.5,23.45 7.2,23.1 C3.2,23.6 0.15,27.3 0.15,31.7 L0.15,41.65 C0.15,42.3 0.65,42.8 1.25,42.85 L23.5,42.85 C23.5,42.8 23.45,42.8 23.45,42.75 L23.5,42.7 Z" id="Path"></path>
            <path d="M32.8,18.75 C31.05,18.75 29.6,20.2 29.6,21.95 C29.6,22.25 29.85,22.5 30.15,22.5 C30.45,22.5 30.7,22.25 30.7,21.95 C30.7,20.75 31.65,19.8 32.85,19.8 C33.15,19.8 33.4,19.55 33.4,19.25 C33.4,18.95 33.05,18.75 32.8,18.75 Z" id="Path"></path>
        </g>
    </g>
</svg>