<?xml version="1.0" encoding="UTF-8"?>
<svg width="60px" height="60px" viewBox="0 0 60 60" version="1.1" xmlns="http://www.w3.org/2000/svg" xmlns:xlink="http://www.w3.org/1999/xlink">
    <title>Aemter_hover</title>
    <g id="Aemter_hover" stroke="none" stroke-width="1" fill="none" fill-rule="evenodd">
        <path d="M38.45,13.05 L21.75,13.05 C21.45,13.05 21.2,13.3 21.2,13.6 C21.2,13.9 21.45,14.15 21.75,14.15 L38.45,14.15 C38.75,14.15 39,13.9 39,13.6 C39,13.3 38.75,13.05 38.45,13.05 Z" id="Path" fill="#FFFFFF" fill-rule="nonzero"></path>
        <path d="M38.45,15.7 L21.75,15.7 C21.45,15.7 21.2,15.95 21.2,16.25 C21.2,16.55 21.45,16.8 21.75,16.8 L38.45,16.8 C38.75,16.8 39,16.55 39,16.25 C38.95,15.95 38.75,15.7 38.45,15.7 Z" id="Path" fill="#FFFFFF" fill-rule="nonzero"></path>
        <path d="M34.1,44.45 C33.8,44.45 33.55,44.7 33.55,45 L33.55,45.65 C33.55,45.95 33.8,46.2 34.1,46.2 C34.4,46.2 34.65,45.95 34.65,45.65 L34.65,45 C34.6,44.7 34.4,44.45 34.1,44.45 Z" id="Path" fill="#FFFFFF" fill-rule="nonzero"></path>
        <path d="M36.75,44.45 C36.45,44.45 36.2,44.7 36.2,45 L36.2,45.65 C36.2,45.95 36.45,46.2 36.75,46.2 C37.05,46.2 37.3,45.95 37.3,45.65 L37.3,45 C37.3,44.7 37.05,44.45 36.75,44.45 Z" id="Path" fill="#FFFFFF" fill-rule="nonzero"></path>
        <path d="M39.45,44.45 C39.15,44.45 38.9,44.7 38.9,45 L38.9,45.65 C38.9,45.95 39.15,46.2 39.45,46.2 C39.75,46.2 40,45.95 40,45.65 L40,45 C39.95,44.7 39.75,44.45 39.45,44.45 Z" id="Path" fill="#FFFFFF" fill-rule="nonzero"></path>
        <path d="M42.1,44.45 C41.8,44.45 41.55,44.7 41.55,45 L41.55,45.65 C41.55,45.95 41.8,46.2 42.1,46.2 C42.4,46.2 42.65,45.95 42.65,45.65 L42.65,45 C42.65,44.7 42.4,44.45 42.1,44.45 Z" id="Path" fill="#FFFFFF" fill-rule="nonzero"></path>
        <path d="M44.8,44.45 C44.5,44.45 44.25,44.7 44.25,45 L44.25,45.65 C44.25,45.95 44.5,46.2 44.8,46.2 C45.1,46.2 45.35,45.95 45.35,45.65 L45.35,45 C45.3,44.7 45.1,44.45 44.8,44.45 Z" id="Path" fill="#FFFFFF" fill-rule="nonzero"></path>
        <path d="M47.45,44.45 C47.15,44.45 46.9,44.7 46.9,45 L46.9,45.65 C46.9,45.95 47.15,46.2 47.45,46.2 C47.75,46.2 48,45.95 48,45.65 L48,45 C48,44.7 47.75,44.45 47.45,44.45 Z" id="Path" fill="#FFFFFF" fill-rule="nonzero"></path>
        <path d="M48.8,41.8 L45,41.8 L45,41 C45,39.95 44.45,39.15 43.7,39.15 L43.4,39.15 L43.4,39 C43.6,37.35 44.1,35.75 44.9,34.25 L44.95,34.1 C47.35,31.75 47.4,27.9 45.05,25.55 C42.7,23.15 38.85,23.1 36.5,25.45 C34.1,27.8 34.05,31.65 36.4,34 C36.5,34.1 36.55,34.15 36.65,34.25 L36.7,34.3 L36.75,34.4 C37.5,35.85 38,37.35 38.2,38.95 L38.2,39.1 L37.9,39.1 C37.15,39.1 36.6,39.9 36.6,40.95 L36.6,41.75 L32.8,41.75 C31.75,41.75 30.95,42.6 30.95,43.6 L30.95,46.95 C30.95,48 31.8,48.8 32.8,48.8 L32.95,48.8 L32.95,49.6 C32.95,50.25 33.5,50.8 34.15,50.8 L47.5,50.8 C48.15,50.8 48.7,50.25 48.7,49.6 L48.7,48.8 L48.85,48.8 C49.9,48.8 50.7,47.95 50.7,46.95 L50.7,43.6 C50.65,42.65 49.85,41.8 48.8,41.8 Z M47.6,49.8 L33.95,49.8 L33.95,48.85 L47.6,48.85 L47.6,49.8 Z M48.8,47.8 L32.75,47.8 C32.3,47.8 31.95,47.45 31.95,47 L31.95,43.65 C31.95,43.2 32.3,42.85 32.75,42.85 L37.6,42.85 L37.6,41 C37.6,40.75 37.65,40.5 37.8,40.25 L37.85,40.2 L39.35,40.2 L39.3,39.6 C39.15,37.6 38.6,35.7 37.7,33.95 L37.55,33.65 L37.45,33.6 C35.35,31.8 35.15,28.6 36.95,26.55 C37.85,25.55 39.05,24.95 40.4,24.85 C41.75,24.75 43,25.2 44.05,26.05 C46.15,27.85 46.35,31.05 44.55,33.1 C44.45,33.2 44.35,33.35 44.2,33.45 L44.15,33.5 L44,33.8 C43.05,35.6 42.45,37.55 42.3,39.6 L42.25,40.15 L43.75,40.15 L43.8,40.2 C43.95,40.4 44,40.7 44,40.95 L44,42.75 L48.85,42.75 C49.3,42.75 49.65,43.1 49.65,43.55 L49.65,46.9 C49.6,47.45 49.25,47.8 48.8,47.8 Z" id="Shape" fill="#FFFFFF" fill-rule="nonzero"></path>
        <path d="M29.25,25.6 C29.25,21.6 26,18.4 22.05,18.4 C18.05,18.4 14.85,21.65 14.85,25.6 C14.85,29.6 18.1,32.8 22.05,32.8 C26.05,32.8 29.25,29.6 29.25,25.6 Z M22.05,31.75 C18.65,31.75 15.9,29 15.9,25.6 C15.9,22.2 18.65,19.45 22.05,19.45 C25.45,19.45 28.2,22.2 28.2,25.6 C28.2,29 25.45,31.75 22.05,31.75 Z" id="Shape" fill="#FFFFFF" fill-rule="nonzero"></path>
        <path d="M38.45,18.4 L27.15,18.4 C27.6,18.7 28,19.05 28.4,19.45 L38.45,19.45 C38.75,19.45 39,19.2 39,18.9 C38.95,18.65 38.75,18.4 38.45,18.4 Z" id="Path" fill="#FFFFFF" fill-rule="nonzero"></path>
        <path d="M38.95,21.6 C38.95,21.3 38.7,21.05 38.4,21.05 L29.6,21.05 C29.8,21.4 30,21.75 30.15,22.1 L38.4,22.1 C38.75,22.1 38.95,21.9 38.95,21.6 Z" id="Path" fill="#FFFFFF" fill-rule="nonzero"></path>
        <path d="M36.05,23.75 L30.7,23.75 C30.75,24.1 30.85,24.45 30.85,24.8 L34.9,24.8 C35.25,24.4 35.65,24.05 36.05,23.75 Z" id="Path" fill="#FFFFFF" fill-rule="nonzero"></path>
        <path d="M30.7,27.45 L33.45,27.45 C33.55,27.1 33.7,26.75 33.9,26.4 L30.9,26.4 C30.8,26.75 30.75,27.1 30.7,27.45 Z" id="Path" fill="#FFFFFF" fill-rule="nonzero"></path>
        <path d="M30.2,29.1 C30.05,29.45 29.85,29.8 29.65,30.15 L33.1,30.15 C33.1,30.1 33.1,30.1 33.1,30.05 C33.1,29.95 33.1,29.9 33.1,29.8 C33.1,29.55 33.1,29.3 33.15,29.1 L30.2,29.1 Z" id="Path" fill="#FFFFFF" fill-rule="nonzero"></path>
        <path d="M12.9,13.55 C12.9,13.1 13.25,12.75 13.7,12.75 L15.85,12.75 L15.85,19.3 C16.2,19 16.55,18.7 16.9,18.4 L16.9,10.2 C16.9,9.75 17.25,9.4 17.7,9.4 L42.45,9.4 C42.9,9.4 43.25,9.75 43.25,10.2 L43.25,22.5 C43.6,22.65 43.95,22.8 44.3,22.95 L44.3,10.15 C44.3,9.1 43.45,8.3 42.45,8.3 L17.7,8.3 C16.65,8.3 15.85,9.15 15.85,10.15 L15.85,11.65 L13.7,11.65 C12.65,11.65 11.85,12.5 11.85,13.5 L11.85,30.5 C12.2,30.3 12.55,30.15 12.9,30 L12.9,13.55 L12.9,13.55 Z" id="Path" fill="#FFFFFF" fill-rule="nonzero"></path>
        <path d="M21.3,34.4 C20.95,34.35 20.6,34.3 20.25,34.25 L19.25,41.05 C19.15,41.65 19.35,42.3 19.8,42.75 L21.2,44.2 C21.7,44.6 22.45,44.6 23,44.2 L24.4,42.75 C24.85,42.3 25.05,41.7 24.95,41.05 L23.65,34.25 C23.3,34.3 22.95,34.35 22.6,34.4 L23.9,41.3 C23.95,41.5 23.85,41.75 23.7,41.9 L22.3,43.35 C22.2,43.4 22.05,43.4 21.95,43.35 L21.9,43.3 L20.5,41.85 C20.3,41.65 20.25,41.4 20.25,41.15 L21.3,34.4 Z" id="Path" fill="#FFFFFF" fill-rule="nonzero"></path>
        <path d="M35.05,40.15 C35.15,39.5 35.45,38.9 35.9,38.4 C35.35,34.55 32.55,31.55 28.95,31.1 C28.65,31.45 28.35,31.8 28,32.1 L28,32.1 C31.8,32.1 34.9,35.5 34.9,39.7 L34.9,40.15 L35.05,40.15 Z" id="Path" fill="#FFFFFF" fill-rule="nonzero"></path>
        <path d="M31.5,50.7 C31.45,50.6 31.4,50.5 31.4,50.35 C31.4,50.3 31.35,50.2 31.35,50.15 C31.15,50.05 30.9,49.95 30.75,49.8 L9.25,49.8 L9.25,39.7 C9.25,35.5 12.35,32.1 16.15,32.1 C15.8,31.8 15.5,31.45 15.2,31.1 C11.2,31.6 8.15,35.3 8.15,39.7 L8.15,49.65 C8.15,50.3 8.65,50.8 9.25,50.85 L31.5,50.85 C31.5,50.8 31.45,50.8 31.45,50.75 L31.5,50.7 Z" id="Path" fill="#FFFFFF" fill-rule="nonzero"></path>
        <path d="M40.8,26.75 C39.05,26.75 37.6,28.2 37.6,29.95 C37.6,30.25 37.85,30.5 38.15,30.5 C38.45,30.5 38.7,30.25 38.7,29.95 C38.7,28.75 39.65,27.8 40.85,27.8 C41.15,27.8 41.4,27.55 41.4,27.25 C41.4,26.95 41.05,26.75 40.8,26.75 Z" id="Path" fill="#FFFFFF" fill-rule="nonzero"></path>
    </g>
</svg>