<?xml version="1.0" encoding="UTF-8"?>
<svg width="60px" height="60px" viewBox="0 0 60 60" version="1.1" xmlns="http://www.w3.org/2000/svg" xmlns:xlink="http://www.w3.org/1999/xlink">
    <title>Alter_hover</title>
    <g id="Alter_hover" stroke="none" stroke-width="1" fill="none" fill-rule="evenodd">
        <path d="M32.2,32.9 L32.2,40.1 C32.2,41 32.9,41.75 33.8,41.8 L33.85,41.8 C34.75,41.8 35.45,41.1 35.5,40.2 L35.5,32.95 L35.75,32.95 L35.75,40.15 C35.75,41.05 36.45,41.8 37.35,41.85 L37.4,41.85 C38.3,41.85 39,41.15 39.05,40.25 L39.05,32.95 C39.8,32.8 40.3,32.15 40.3,31.4 L40.3,26.8 C40.3,24.9 39.15,23.2 37.4,22.45 C37.4,22.45 37.4,22.45 37.35,22.45 C37.35,22.45 37.3,22.45 37.3,22.45 C37.05,22.65 36.8,22.75 36.55,22.85 C36.5,22.85 36.5,22.9 36.5,22.95 C36.5,23 36.55,23.05 36.55,23.05 C38.25,23.5 39.4,25.05 39.45,26.8 L39.45,31.4 C39.45,31.8 39.1,32.15 38.7,32.15 L38.6,32.15 L38.6,29 C38.6,28.75 38.4,28.6 38.2,28.6 C37.95,28.6 37.8,28.8 37.8,29 L37.8,32.1 L33.5,32.1 L33.5,29 C33.5,28.75 33.3,28.6 33.1,28.6 C32.85,28.6 32.7,28.8 32.7,29 L32.7,32.1 L32.45,32.1 C32.05,32.1 31.7,31.75 31.7,31.35 L31.7,26.9 C31.7,25.1 32.85,23.5 34.6,23 C34.65,23 34.65,22.95 34.65,22.9 C34.65,22.85 34.65,22.8 34.6,22.8 C34.35,22.7 34.05,22.55 33.85,22.4 C33.85,22.4 33.8,22.4 33.8,22.4 C33.8,22.4 33.75,22.4 33.75,22.4 C32,23.2 30.85,24.95 30.85,26.9 L30.85,31.35 C30.85,32.15 31.45,32.8 32.2,32.9 Z M36.6,32.95 L38.2,32.95 L38.2,40.15 C38.2,40.6 37.85,40.9 37.4,40.95 L37.4,40.95 C36.95,40.95 36.6,40.55 36.6,40.1 L36.6,32.95 Z M33.05,32.95 L34.65,32.95 L34.65,40.15 C34.65,40.6 34.3,40.9 33.85,40.95 L33.85,40.95 C33.4,40.95 33.05,40.55 33.05,40.1 L33.05,32.95 Z" id="Shape" fill="#FFFFFF" fill-rule="nonzero"></path>
        <path d="M22.45,36.85 L22.45,40.35 C22.45,40.75 22.6,41.1 22.85,41.35 C23.1,41.6 23.45,41.8 23.85,41.8 L23.9,41.8 C24.65,41.8 25.3,41.2 25.3,40.4 L25.3,36.85 L25.5,36.85 L25.5,40.35 C25.5,41.15 26.1,41.8 26.9,41.8 L26.95,41.8 C27.7,41.8 28.35,41.2 28.35,40.4 L28.35,36.85 C29.1,36.8 29.7,36.2 29.7,35.45 L29.7,30.25 C29.7,29.05 28.95,28.05 27.85,27.65 C27.85,27.65 27.85,27.65 27.8,27.65 C27.75,27.65 27.75,27.65 27.75,27.7 C27.6,27.9 27.4,28.1 27.2,28.25 C27.15,28.25 27.15,28.3 27.15,28.35 C27.15,28.4 27.2,28.4 27.25,28.4 C28.15,28.55 28.85,29.35 28.85,30.25 L28.85,35.45 C28.85,35.75 28.6,36 28.3,36 L28,36 L28,33.75 C28,33.5 27.8,33.35 27.6,33.35 C27.35,33.35 27.2,33.55 27.2,33.75 L27.2,36 L23.7,36 L23.7,33.75 C23.7,33.5 23.5,33.35 23.3,33.35 C23.1,33.35 22.9,33.55 22.9,33.75 L22.9,36 L22.65,36 C22.35,36 22.1,35.75 22.1,35.45 L22.1,30.25 C22.1,29.3 22.8,28.5 23.7,28.4 C23.75,28.4 23.75,28.35 23.8,28.35 C23.8,28.3 23.8,28.25 23.75,28.25 C23.55,28.1 23.35,27.9 23.2,27.7 C23.2,27.7 23.15,27.65 23.15,27.65 C23.15,27.65 23.15,27.65 23.1,27.65 C22,28 21.25,29.05 21.25,30.25 L21.25,35.45 C21.15,36.2 21.7,36.85 22.45,36.85 Z M26.35,36.9 L27.5,36.9 L27.5,40.4 C27.5,40.7 27.25,40.95 26.95,40.95 L26.95,40.95 C26.8,40.95 26.65,40.9 26.55,40.75 C26.45,40.65 26.4,40.5 26.4,40.35 L26.35,36.9 Z M23.3,36.9 L24.45,36.9 L24.45,40.4 C24.45,40.7 24.2,40.95 23.9,40.95 L23.9,40.95 C23.75,40.95 23.6,40.9 23.5,40.75 C23.4,40.65 23.35,40.5 23.35,40.35 L23.3,36.9 Z" id="Shape" fill="#FFFFFF" fill-rule="nonzero"></path>
        <path d="M42.65,30.9 L42.65,40.1 C42.65,41 43.35,41.75 44.25,41.8 L44.3,41.8 C45.2,41.8 45.9,41.1 45.95,40.2 L45.95,30.95 L46.2,30.95 L46.2,40.1 C46.2,41 46.9,41.75 47.8,41.8 L47.85,41.8 C48.75,41.8 49.45,41.1 49.5,40.2 L49.5,30.9 C50.25,30.75 50.75,30.1 50.75,29.35 L50.75,22.5 C50.75,20.6 49.6,18.9 47.85,18.15 C47.85,18.15 47.85,18.15 47.8,18.15 C47.8,18.15 47.75,18.15 47.75,18.15 C47.5,18.35 47.25,18.45 47,18.55 C46.95,18.55 46.95,18.6 46.95,18.65 C46.95,18.7 47,18.75 47,18.75 C48.7,19.2 49.85,20.75 49.9,22.5 L49.9,29.4 C49.9,29.8 49.55,30.15 49.15,30.15 L49.05,30.15 L49.05,26.4 C49.05,26.15 48.85,26 48.65,26 C48.45,26 48.25,26.2 48.25,26.4 L48.25,30.15 L44,30.15 L44,26.4 C44,26.15 43.8,26 43.6,26 C43.35,26 43.2,26.2 43.2,26.4 L43.2,30.15 L42.95,30.15 C42.55,30.15 42.2,29.8 42.2,29.4 L42.2,22.65 C42.2,20.85 43.35,19.25 45.1,18.75 C45.15,18.75 45.15,18.7 45.15,18.65 C45.15,18.6 45.15,18.55 45.1,18.55 C44.85,18.45 44.55,18.3 44.35,18.15 C44.35,18.15 44.3,18.15 44.3,18.15 C44.3,18.15 44.25,18.15 44.25,18.15 C42.5,18.95 41.35,20.7 41.35,22.65 L41.35,29.4 C41.3,30.15 41.9,30.8 42.65,30.9 Z M48.75,30.85 C48.7,30.85 48.7,30.85 48.65,30.85 C48.65,30.85 48.65,30.85 48.65,30.85 C48.7,30.9 48.7,30.9 48.75,30.85 Z M47.05,30.95 L48.55,30.95 C48.6,30.95 48.6,30.95 48.65,30.95 L48.65,40.15 C48.65,40.6 48.3,40.9 47.85,40.95 L47.85,40.95 C47.4,40.95 47.05,40.55 47.05,40.1 L47.05,30.95 Z M43.5,30.95 L45.1,30.95 L45.1,40.15 C45.1,40.6 44.75,40.9 44.3,40.95 L44.3,40.95 C44.1,40.95 43.9,40.85 43.75,40.7 C43.6,40.55 43.55,40.35 43.55,40.1 L43.5,30.95 Z" id="Shape" fill="#FFFFFF" fill-rule="nonzero"></path>
        <path d="M51.3,42.7 L9.65,42.7 C9.4,42.7 9.25,42.9 9.25,43.1 C9.25,43.35 9.45,43.5 9.65,43.5 L14.7,43.5 C14.7,43.5 14.7,43.55 14.7,43.55 L14.7,45.7 C14.7,45.95 14.9,46.1 15.1,46.1 C15.3,46.1 15.5,45.9 15.5,45.7 L15.5,43.55 C15.5,43.55 15.5,43.5 15.5,43.5 L24.9,43.5 C24.9,43.5 24.9,43.55 24.9,43.55 L24.9,45.7 C24.9,45.95 25.1,46.1 25.3,46.1 C25.55,46.1 25.7,45.9 25.7,45.7 L25.7,43.55 C25.7,43.55 25.7,43.5 25.7,43.5 L35.1,43.5 C35.1,43.5 35.1,43.55 35.1,43.55 L35.1,45.7 C35.1,45.95 35.3,46.1 35.5,46.1 C35.75,46.1 35.9,45.9 35.9,45.7 L35.9,43.55 C35.9,43.55 35.9,43.5 35.9,43.5 L45.3,43.5 C45.3,43.5 45.3,43.55 45.3,43.55 L45.3,45.7 C45.3,45.95 45.5,46.1 45.7,46.1 C45.95,46.1 46.1,45.9 46.1,45.7 L46.1,43.55 C46.1,43.55 46.1,43.5 46.1,43.5 L51.15,43.5 C51.4,43.5 51.55,43.3 51.55,43.1 C51.75,42.9 51.55,42.7 51.3,42.7 Z" id="Path" fill="#FFFFFF" fill-rule="nonzero"></path>
        <path d="M35.6,22.55 C36.95,22.55 38,21.45 38,20.15 C38,18.8 36.9,17.75 35.6,17.75 C34.3,17.75 33.2,18.85 33.2,20.15 C33.15,21.5 34.25,22.55 35.6,22.55 Z M35.6,18.6 C36.45,18.6 37.15,19.3 37.15,20.15 C37.15,21 36.45,21.7 35.6,21.7 C34.75,21.7 34.05,21 34.05,20.15 C34,19.3 34.7,18.6 35.6,18.6 Z" id="Shape" fill="#FFFFFF" fill-rule="nonzero"></path>
        <path d="M25.4,28.35 C26.75,28.35 27.8,27.25 27.8,25.95 C27.8,24.6 26.7,23.55 25.4,23.55 C24.05,23.55 23,24.65 23,25.95 C22.95,27.3 24.05,28.35 25.4,28.35 Z M25.4,24.4 C26.25,24.4 26.95,25.1 26.95,25.95 C26.95,26.8 26.25,27.5 25.4,27.5 C24.55,27.5 23.85,26.8 23.85,25.95 C23.8,25.1 24.5,24.4 25.4,24.4 Z" id="Shape" fill="#FFFFFF" fill-rule="nonzero"></path>
        <path d="M13.85,32.7 C13.9,32.7 14,32.75 14.05,32.75 C14.15,32.75 14.2,32.8 14.25,32.8 L14.3,32.8 C14.35,32.8 14.45,32.8 14.5,32.8 C14.55,32.8 14.65,32.8 14.7,32.8 C14.7,32.8 14.75,32.8 14.75,32.8 C14.8,32.8 14.9,32.8 14.95,32.75 C15.05,32.75 15.1,32.7 15.15,32.7 C16.25,32.35 16.85,31.15 16.45,30.05 C16.15,29.2 15.35,28.65 14.5,28.65 C14.3,28.65 14.05,28.7 13.85,28.75 C12.75,29.1 12.15,30.3 12.55,31.4 C12.75,32 13.2,32.5 13.85,32.7 Z M14.5,29.5 C15.2,29.5 15.75,30.05 15.75,30.75 C15.75,31.45 15.2,32 14.5,32 C13.8,32 13.25,31.45 13.25,30.75 C13.25,30.05 13.8,29.5 14.5,29.5 Z" id="Shape" fill="#FFFFFF" fill-rule="nonzero"></path>
        <path d="M46.05,18.25 C47.4,18.25 48.45,17.15 48.45,15.85 C48.45,14.5 47.35,13.45 46.05,13.45 C44.75,13.45 43.65,14.55 43.65,15.85 C43.6,17.2 44.7,18.25 46.05,18.25 Z M46.05,14.3 C46.9,14.3 47.6,15 47.6,15.85 C47.6,16.7 46.9,17.4 46.05,17.4 C45.2,17.4 44.5,16.7 44.5,15.85 C44.45,15 45.15,14.3 46.05,14.3 Z" id="Shape" fill="#FFFFFF" fill-rule="nonzero"></path>
        <path d="M9.95,39.15 C9.3,39.55 9.05,40.45 9.45,41.1 C9.7,41.55 10.15,41.8 10.65,41.8 C10.9,41.8 11.15,41.75 11.4,41.6 L13.75,40.25 C13.85,40.35 13.95,40.4 14.1,40.4 L15.15,40.4 C15.3,40.4 15.4,40.35 15.5,40.25 L17.85,41.6 C18.05,41.75 18.3,41.8 18.6,41.8 C19.1,41.8 19.55,41.55 19.8,41.1 C20.2,40.45 20,39.55 19.3,39.15 L17.05,37.75 L17.05,35.9 L17.85,36.4 C18.05,36.55 18.3,36.6 18.6,36.6 C19.1,36.6 19.55,36.35 19.8,35.9 C20.2,35.25 20,34.35 19.3,33.95 L17.3,32.8 C17.3,32.8 17.25,32.8 17.25,32.8 C17.25,32.8 17.25,32.8 17.25,32.8 C17.2,32.8 17.05,32.8 16.9,32.8 C16.7,32.8 16.6,32.8 16.55,32.8 C16.45,32.8 16.4,32.75 16.3,32.75 C16.3,32.75 16.3,32.75 16.3,32.75 C16.3,32.75 16.25,32.75 16.25,32.8 C16.25,32.8 16.2,32.85 16.2,32.9 C16.2,33 16.2,34.7 16.2,37.45 L13.05,37.45 L13.05,32.9 C13.05,32.9 13.05,32.85 13,32.85 C13,32.85 12.95,32.8 12.95,32.8 C12.85,32.8 12.75,32.8 12.7,32.8 C12.6,32.8 12.5,32.8 12.3,32.8 C12.3,32.8 12.25,32.8 12.25,32.8 L9.9,33.95 C9.55,34.15 9.35,34.45 9.25,34.85 C9.15,35.2 9.2,35.6 9.4,35.9 C9.65,36.35 10.1,36.6 10.6,36.6 C10.85,36.6 11.1,36.55 11.35,36.4 L12.2,35.9 L12.2,37.75 L9.95,39.15 Z M17,33.7 L18.85,34.7 C19.1,34.85 19.2,35.2 19,35.5 C18.9,35.65 18.7,35.75 18.5,35.75 C18.4,35.75 18.3,35.7 18.2,35.65 L16.95,34.85 L16.95,33.7 L17,33.7 Z M12.2,34.85 L10.95,35.7 C10.85,35.75 10.75,35.8 10.65,35.8 C10.45,35.8 10.25,35.7 10.15,35.55 C10,35.3 10.05,34.95 10.35,34.8 L12.25,33.8 L12.2,34.85 Z M16.45,38.55 L18.8,39.9 C18.95,40 19,40.1 19.05,40.25 C19.1,40.4 19.05,40.55 19,40.7 C18.9,40.85 18.7,40.95 18.5,40.95 C18.4,40.95 18.3,40.9 18.2,40.85 L15.85,39.5 L16.45,38.55 Z M15.95,38.2 L15.05,39.7 L14.1,39.7 L13.2,38.2 L15.95,38.2 Z M12.75,38.55 L13.3,39.55 L10.95,40.9 C10.85,40.95 10.75,41 10.65,41 C10.45,41 10.25,40.9 10.15,40.75 C10,40.5 10.05,40.15 10.35,40 L12.75,38.55 Z" id="Shape" fill="#FFFFFF" fill-rule="nonzero"></path>
    </g>
</svg>