<?xml version="1.0" encoding="UTF-8"?>
<svg width="60px" height="60px" viewBox="0 0 60 60" version="1.1" xmlns="http://www.w3.org/2000/svg" xmlns:xlink="http://www.w3.org/1999/xlink">
    <title>Alter_hover</title>
    <g id="Alter_hover" stroke="none" stroke-width="1" fill="none" fill-rule="evenodd">
        <g id="Group-2" transform="translate(7.000000, 10.000000)" fill="#FFFFFF" fill-rule="nonzero">
            <g id="Group">
                <path d="M18.779904,24.586848 L18.779904,33.482592 C18.779904,34.59456 19.644768,35.5212 20.756736,35.582976 L20.818512,35.582976 C21.93048,35.582976 22.795344,34.718112 22.85712,33.606144 L22.85712,24.648624 L23.166,24.648624 L23.166,33.544368 C23.166,34.656336 24.030864,35.582976 25.142832,35.644752 L25.204608,35.644752 C26.316576,35.644752 27.18144,34.779888 27.243216,33.66792 L27.243216,24.648624 C28.169856,24.463296 28.787616,23.660208 28.787616,22.733568 L28.787616,17.050176 C28.787616,14.702688 27.366768,12.602304 25.204608,11.675664 C25.204608,11.675664 25.204608,11.675664 25.142832,11.675664 C25.142832,11.675664 25.081056,11.675664 25.081056,11.675664 C24.772176,11.922768 24.463296,12.04632 24.154416,12.169872 C24.09264,12.169872 24.09264,12.231648 24.09264,12.293424 C24.09264,12.3552 24.154416,12.416976 24.154416,12.416976 C26.2548,12.97296 27.675648,14.888016 27.737424,17.050176 L27.737424,22.733568 C27.737424,23.227776 27.304992,23.660208 26.810784,23.660208 L26.687232,23.660208 L26.687232,19.76832 C26.687232,19.45944 26.440128,19.274112 26.193024,19.274112 C25.884144,19.274112 25.698816,19.521216 25.698816,19.76832 L25.698816,23.598432 L20.38608,23.598432 L20.38608,19.76832 C20.38608,19.45944 20.138976,19.274112 19.891872,19.274112 C19.582992,19.274112 19.397664,19.521216 19.397664,19.76832 L19.397664,23.598432 L19.088784,23.598432 C18.594576,23.598432 18.162144,23.166 18.162144,22.671792 L18.162144,17.173728 C18.162144,14.949792 19.582992,12.97296 21.745152,12.3552 C21.806928,12.3552 21.806928,12.293424 21.806928,12.231648 C21.806928,12.169872 21.806928,12.108096 21.745152,12.108096 C21.436272,11.984544 21.065616,11.799216 20.818512,11.613888 C20.818512,11.613888 20.756736,11.613888 20.756736,11.613888 C20.756736,11.613888 20.69496,11.613888 20.69496,11.613888 C18.5328,12.602304 17.111952,14.764464 17.111952,17.173728 L17.111952,22.671792 C17.111952,23.660208 17.853264,24.463296 18.779904,24.586848 Z M24.216192,24.648624 L26.193024,24.648624 L26.193024,33.544368 C26.193024,34.100352 25.760592,34.471008 25.204608,34.532784 L25.204608,34.532784 C24.648624,34.532784 24.216192,34.038576 24.216192,33.482592 L24.216192,24.648624 Z M19.830096,24.648624 L21.806928,24.648624 L21.806928,33.544368 C21.806928,34.100352 21.374496,34.471008 20.818512,34.532784 L20.818512,34.532784 C20.262528,34.532784 19.830096,34.038576 19.830096,33.482592 L19.830096,24.648624 Z" id="Shape"></path>
                <path d="M32.926608,22.115808 L32.926608,33.482592 C32.926608,34.59456 33.791472,35.5212 34.90344,35.582976 L34.965216,35.582976 C36.077184,35.582976 36.942048,34.718112 37.003824,33.606144 L37.003824,22.177584 L37.312704,22.177584 L37.312704,33.482592 C37.312704,34.59456 38.177568,35.5212 39.289536,35.582976 L39.351312,35.582976 C40.46328,35.582976 41.328144,34.718112 41.38992,33.606144 L41.38992,22.115808 C42.31656,21.93048 42.93432,21.127392 42.93432,20.200752 L42.93432,11.73744 C42.93432,9.389952 41.513472,7.289568 39.351312,6.362928 C39.351312,6.362928 39.351312,6.362928 39.289536,6.362928 C39.289536,6.362928 39.22776,6.362928 39.22776,6.362928 C38.91888,6.610032 38.61,6.733584 38.30112,6.857136 C38.239344,6.857136 38.239344,6.918912 38.239344,6.980688 C38.239344,7.042464 38.30112,7.10424 38.30112,7.10424 C40.401504,7.660224 41.822352,9.57528 41.884128,11.73744 L41.884128,20.262528 C41.884128,20.756736 41.451696,21.189168 40.957488,21.189168 L40.833936,21.189168 L40.833936,16.555968 C40.833936,16.247088 40.586832,16.06176 40.339728,16.06176 C40.092624,16.06176 39.84552,16.308864 39.84552,16.555968 L39.84552,21.189168 L34.59456,21.189168 L34.59456,16.555968 C34.59456,16.247088 34.347456,16.06176 34.100352,16.06176 C33.791472,16.06176 33.606144,16.308864 33.606144,16.555968 L33.606144,21.189168 L33.297264,21.189168 C32.803056,21.189168 32.370624,20.756736 32.370624,20.262528 L32.370624,11.922768 C32.370624,9.698832 33.791472,7.722 35.953632,7.10424 C36.015408,7.10424 36.015408,7.042464 36.015408,6.980688 C36.015408,6.918912 36.015408,6.857136 35.953632,6.857136 C35.644752,6.733584 35.274096,6.548256 35.026992,6.362928 C35.026992,6.362928 34.965216,6.362928 34.965216,6.362928 C34.965216,6.362928 34.90344,6.362928 34.90344,6.362928 C32.74128,7.351344 31.320432,9.513504 31.320432,11.922768 L31.320432,20.262528 C31.258656,21.189168 31.999968,21.992256 32.926608,22.115808 Z M40.46328,22.054032 C40.401504,22.054032 40.401504,22.054032 40.339728,22.054032 C40.339728,22.054032 40.339728,22.054032 40.339728,22.054032 C40.401504,22.115808 40.401504,22.115808 40.46328,22.054032 Z M38.362896,22.177584 L40.216176,22.177584 C40.277952,22.177584 40.277952,22.177584 40.339728,22.177584 L40.339728,33.544368 C40.339728,34.100352 39.907296,34.471008 39.351312,34.532784 L39.351312,34.532784 C38.795328,34.532784 38.362896,34.038576 38.362896,33.482592 L38.362896,22.177584 Z M33.9768,22.177584 L35.953632,22.177584 L35.953632,33.544368 C35.953632,34.100352 35.5212,34.471008 34.965216,34.532784 L34.965216,34.532784 C34.718112,34.532784 34.471008,34.409232 34.28568,34.223904 C34.100352,34.038576 34.038576,33.791472 34.038576,33.482592 L33.9768,22.177584 Z" id="Shape"></path>
                <path d="M44.849376,36.694944 L0.803088,36.694944 C0.494208,36.694944 0.30888,36.942048 0.30888,37.189152 C0.30888,37.498032 0.555984,37.68336 0.803088,37.68336 L8.525088,37.68336 C8.525088,37.68336 8.525088,37.745136 8.525088,37.745136 L8.525088,40.401504 C8.525088,40.710384 8.772192,40.895712 9.019296,40.895712 C9.328176,40.895712 9.513504,40.648608 9.513504,40.401504 L9.513504,37.745136 C9.513504,37.745136 9.513504,37.68336 9.513504,37.68336 L22.362912,37.68336 C22.362912,37.68336 22.362912,37.745136 22.362912,37.745136 L22.362912,40.401504 C22.362912,40.710384 22.610016,40.895712 22.85712,40.895712 C23.166,40.895712 23.351328,40.648608 23.351328,40.401504 L23.351328,37.745136 C23.351328,37.745136 23.351328,37.68336 23.351328,37.68336 L36.200736,37.68336 C36.200736,37.68336 36.200736,37.745136 36.200736,37.745136 L36.200736,40.401504 C36.200736,40.710384 36.44784,40.895712 36.694944,40.895712 C37.003824,40.895712 37.189152,40.648608 37.189152,40.401504 L37.189152,37.745136 C37.189152,37.745136 37.189152,37.68336 37.189152,37.68336 L44.664048,37.68336 C44.972928,37.68336 45.158256,37.436256 45.158256,37.189152 C45.158256,36.7895237 44.9022743,36.694944 44.849376,36.694944 Z" id="Path"></path>
                <path d="M22.980672,11.799216 C24.648624,11.799216 25.94592,10.440144 25.94592,8.833968 C25.94592,7.166016 24.586848,5.86872 22.980672,5.86872 C21.374496,5.86872 20.015424,7.227792 20.015424,8.833968 C19.953648,10.50192 21.31272,11.799216 22.980672,11.799216 Z M22.980672,6.918912 C24.030864,6.918912 24.895728,7.783776 24.895728,8.833968 C24.895728,9.88416 24.030864,10.749024 22.980672,10.749024 C21.93048,10.749024 21.065616,9.88416 21.065616,8.833968 C21.00384,7.783776 21.868704,6.918912 22.980672,6.918912 Z" id="Shape"></path>
                <path d="M8.463312,24.339744 C8.525088,24.339744 8.64864,24.40152 8.710416,24.40152 C8.833968,24.40152 8.895744,24.463296 8.95752,24.463296 L9.019296,24.463296 C9.081072,24.463296 9.204624,24.463296 9.2664,24.463296 C9.328176,24.463296 9.451728,24.463296 9.513504,24.463296 C9.513504,24.463296 9.57528,24.463296 9.57528,24.463296 C9.637056,24.463296 9.760608,24.463296 9.822384,24.40152 C9.945936,24.40152 10.007712,24.339744 10.069488,24.339744 C11.42856,23.907312 12.169872,22.424688 11.675664,21.065616 C11.305008,20.015424 10.316592,19.335888 9.2664,19.335888 C9.019296,19.335888 8.710416,19.397664 8.463312,19.45944 C7.10424,19.891872 6.362928,21.374496 6.857136,22.733568 C7.10424,23.47488 7.660224,24.09264 8.463312,24.339744 Z M9.2664,20.38608 C10.131264,20.38608 10.8108,21.065616 10.8108,21.93048 C10.8108,22.795344 10.131264,23.47488 9.2664,23.47488 C8.401536,23.47488 7.722,22.795344 7.722,21.93048 C7.722,21.065616 8.401536,20.38608 9.2664,20.38608 Z" id="Shape"></path>
                <path d="M37.127376,6.48648 C38.795328,6.48648 40.092624,5.127408 40.092624,3.521232 C40.092624,1.85328 38.733552,0.555984 37.127376,0.555984 C35.5212,0.555984 34.162128,1.915056 34.162128,3.521232 C34.100352,5.189184 35.459424,6.48648 37.127376,6.48648 Z M37.127376,1.606176 C38.177568,1.606176 39.042432,2.47104 39.042432,3.521232 C39.042432,4.571424 38.177568,5.436288 37.127376,5.436288 C36.077184,5.436288 35.21232,4.571424 35.21232,3.521232 C35.150544,2.47104 36.015408,1.606176 37.127376,1.606176 Z" id="Shape"></path>
                <path d="M3.644784,32.308848 C2.841696,32.803056 2.532816,33.915024 3.027024,34.718112 C3.335904,35.274096 3.891888,35.582976 4.509648,35.582976 C4.818528,35.582976 5.127408,35.5212 5.436288,35.335872 L8.33976,33.66792 C8.463312,33.791472 8.586864,33.853248 8.772192,33.853248 L10.069488,33.853248 C10.254816,33.853248 10.378368,33.791472 10.50192,33.66792 L13.405392,35.335872 C13.652496,35.5212 13.961376,35.582976 14.332032,35.582976 C14.949792,35.582976 15.505776,35.274096 15.814656,34.718112 C16.308864,33.915024 16.06176,32.803056 15.196896,32.308848 L12.416976,30.57912 L12.416976,28.293408 L13.405392,28.911168 C13.652496,29.096496 13.961376,29.158272 14.332032,29.158272 C14.949792,29.158272 15.505776,28.849392 15.814656,28.293408 C16.308864,27.49032 16.06176,26.378352 15.196896,25.884144 L12.725856,24.463296 C12.725856,24.463296 12.66408,24.463296 12.66408,24.463296 C12.602304,24.463296 12.416976,24.463296 12.231648,24.463296 C11.984544,24.463296 11.860992,24.463296 11.799216,24.463296 C11.675664,24.463296 11.613888,24.40152 11.490336,24.40152 C11.490336,24.40152 11.42856,24.40152 11.42856,24.463296 C11.42856,24.463296 11.366784,24.525072 11.366784,24.586848 C11.366784,24.7104 11.366784,26.810784 11.366784,30.208464 L7.474896,30.208464 L7.474896,24.586848 C7.474896,24.586848 7.474896,24.525072 7.41312,24.525072 C7.41312,24.525072 7.351344,24.463296 7.351344,24.463296 C7.227792,24.463296 7.10424,24.463296 7.042464,24.463296 C6.918912,24.463296 6.79536,24.463296 6.548256,24.463296 C6.548256,24.463296 6.48648,24.463296 6.48648,24.463296 L3.583008,25.884144 C3.150576,26.131248 2.903472,26.501904 2.77992,26.996112 C2.656368,27.428544 2.718144,27.922752 2.965248,28.293408 C3.274128,28.849392 3.830112,29.158272 4.447872,29.158272 C4.756752,29.158272 5.065632,29.096496 5.374512,28.911168 L6.424704,28.293408 L6.424704,30.57912 L3.644784,32.308848 Z M12.3552,25.575264 L14.640912,26.810784 C14.949792,26.996112 15.073344,27.428544 14.82624,27.7992 C14.702688,27.984528 14.455584,28.10808 14.20848,28.10808 C14.084928,28.10808 13.961376,28.046304 13.837824,27.984528 L12.293424,26.996112 L12.293424,25.575264 L12.3552,25.575264 Z M6.424704,26.996112 L4.880304,28.046304 C4.756752,28.10808 4.6332,28.169856 4.509648,28.169856 C4.262544,28.169856 4.01544,28.046304 3.891888,27.860976 C3.70656,27.552096 3.768336,27.119664 4.138992,26.934336 L6.48648,25.698816 L6.424704,26.996112 Z M11.675664,31.567536 L14.579136,33.235488 C14.764464,33.35904 14.82624,33.482592 14.888016,33.66792 C14.949792,33.853248 14.888016,34.038576 14.82624,34.223904 C14.702688,34.409232 14.455584,34.532784 14.20848,34.532784 C14.084928,34.532784 13.961376,34.471008 13.837824,34.409232 L10.934352,32.74128 L11.675664,31.567536 Z M11.057904,31.135104 L9.945936,32.988384 L8.772192,32.988384 L7.660224,31.135104 L11.057904,31.135104 Z M7.10424,31.567536 L7.783776,32.803056 L4.880304,34.471008 C4.756752,34.532784 4.6332,34.59456 4.509648,34.59456 C4.262544,34.59456 4.01544,34.471008 3.891888,34.28568 C3.70656,33.9768 3.768336,33.544368 4.138992,33.35904 L7.10424,31.567536 Z" id="Shape"></path>
            </g>
        </g>
    </g>
</svg>