<?xml version="1.0" encoding="UTF-8"?>
<svg width="60px" height="60px" viewBox="0 0 60 60" version="1.1" xmlns="http://www.w3.org/2000/svg" xmlns:xlink="http://www.w3.org/1999/xlink">
    <title>Alter</title>
    <g id="Alter" stroke="none" stroke-width="1" fill="none" fill-rule="evenodd">
        <g id="Group" transform="translate(9.000000, 13.000000)" fill="#000000" fill-rule="nonzero">
            <path d="M23.2,19.9 L23.2,27.1 C23.2,28 23.9,28.75 24.8,28.8 L24.85,28.8 C25.75,28.8 26.45,28.1 26.5,27.2 L26.5,19.95 L26.75,19.95 L26.75,27.15 C26.75,28.05 27.45,28.8 28.35,28.85 L28.4,28.85 C29.3,28.85 30,28.15 30.05,27.25 L30.05,19.95 C30.8,19.8 31.3,19.15 31.3,18.4 L31.3,13.8 C31.3,11.9 30.15,10.2 28.4,9.45 C28.4,9.45 28.4,9.45 28.35,9.45 C28.35,9.45 28.3,9.45 28.3,9.45 C28.05,9.65 27.8,9.75 27.55,9.85 C27.5,9.85 27.5,9.9 27.5,9.95 C27.5,10 27.55,10.05 27.55,10.05 C29.25,10.5 30.4,12.05 30.45,13.8 L30.45,18.4 C30.45,18.8 30.1,19.15 29.7,19.15 L29.6,19.15 L29.6,16 C29.6,15.75 29.4,15.6 29.2,15.6 C28.95,15.6 28.8,15.8 28.8,16 L28.8,19.1 L24.5,19.1 L24.5,16 C24.5,15.75 24.3,15.6 24.1,15.6 C23.85,15.6 23.7,15.8 23.7,16 L23.7,19.1 L23.45,19.1 C23.05,19.1 22.7,18.75 22.7,18.35 L22.7,13.9 C22.7,12.1 23.85,10.5 25.6,10 C25.65,10 25.65,9.95 25.65,9.9 C25.65,9.85 25.65,9.8 25.6,9.8 C25.35,9.7 25.05,9.55 24.85,9.4 C24.85,9.4 24.8,9.4 24.8,9.4 C24.8,9.4 24.75,9.4 24.75,9.4 C23,10.2 21.85,11.95 21.85,13.9 L21.85,18.35 C21.85,19.15 22.45,19.8 23.2,19.9 Z M27.6,19.95 L29.2,19.95 L29.2,27.15 C29.2,27.6 28.85,27.9 28.4,27.95 L28.4,27.95 C27.95,27.95 27.6,27.55 27.6,27.1 L27.6,19.95 Z M24.05,19.95 L25.65,19.95 L25.65,27.15 C25.65,27.6 25.3,27.9 24.85,27.95 L24.85,27.95 C24.4,27.95 24.05,27.55 24.05,27.1 L24.05,19.95 Z" id="Shape"></path>
            <path d="M13.45,23.85 L13.45,27.35 C13.45,27.75 13.6,28.1 13.85,28.35 C14.1,28.6 14.45,28.8 14.85,28.8 L14.9,28.8 C15.65,28.8 16.3,28.2 16.3,27.4 L16.3,23.85 L16.5,23.85 L16.5,27.35 C16.5,28.15 17.1,28.8 17.9,28.8 L17.95,28.8 C18.7,28.8 19.35,28.2 19.35,27.4 L19.35,23.85 C20.1,23.8 20.7,23.2 20.7,22.45 L20.7,17.25 C20.7,16.05 19.95,15.05 18.85,14.65 C18.85,14.65 18.85,14.65 18.8,14.65 C18.75,14.65 18.75,14.65 18.75,14.7 C18.6,14.9 18.4,15.1 18.2,15.25 C18.15,15.25 18.15,15.3 18.15,15.35 C18.15,15.4 18.2,15.4 18.25,15.4 C19.15,15.55 19.85,16.35 19.85,17.25 L19.85,22.45 C19.85,22.75 19.6,23 19.3,23 L19,23 L19,20.75 C19,20.5 18.8,20.35 18.6,20.35 C18.35,20.35 18.2,20.55 18.2,20.75 L18.2,23 L14.7,23 L14.7,20.75 C14.7,20.5 14.5,20.35 14.3,20.35 C14.1,20.35 13.9,20.55 13.9,20.75 L13.9,23 L13.65,23 C13.35,23 13.1,22.75 13.1,22.45 L13.1,17.25 C13.1,16.3 13.8,15.5 14.7,15.4 C14.75,15.4 14.75,15.35 14.8,15.35 C14.8,15.3 14.8,15.25 14.75,15.25 C14.55,15.1 14.35,14.9 14.2,14.7 C14.2,14.7 14.15,14.65 14.15,14.65 C14.15,14.65 14.15,14.65 14.1,14.65 C13,15 12.25,16.05 12.25,17.25 L12.25,22.45 C12.15,23.2 12.7,23.85 13.45,23.85 Z M17.35,23.9 L18.5,23.9 L18.5,27.4 C18.5,27.7 18.25,27.95 17.95,27.95 L17.95,27.95 C17.8,27.95 17.65,27.9 17.55,27.75 C17.45,27.65 17.4,27.5 17.4,27.35 L17.35,23.9 Z M14.3,23.9 L15.45,23.9 L15.45,27.4 C15.45,27.7 15.2,27.95 14.9,27.95 L14.9,27.95 C14.75,27.95 14.6,27.9 14.5,27.75 C14.4,27.65 14.35,27.5 14.35,27.35 L14.3,23.9 Z" id="Shape"></path>
            <path d="M33.65,17.9 L33.65,27.1 C33.65,28 34.35,28.75 35.25,28.8 L35.3,28.8 C36.2,28.8 36.9,28.1 36.95,27.2 L36.95,17.95 L37.2,17.95 L37.2,27.1 C37.2,28 37.9,28.75 38.8,28.8 L38.85,28.8 C39.75,28.8 40.45,28.1 40.5,27.2 L40.5,17.9 C41.25,17.75 41.75,17.1 41.75,16.35 L41.75,9.5 C41.75,7.6 40.6,5.9 38.85,5.15 C38.85,5.15 38.85,5.15 38.8,5.15 C38.8,5.15 38.75,5.15 38.75,5.15 C38.5,5.35 38.25,5.45 38,5.55 C37.95,5.55 37.95,5.6 37.95,5.65 C37.95,5.7 38,5.75 38,5.75 C39.7,6.2 40.85,7.75 40.9,9.5 L40.9,16.4 C40.9,16.8 40.55,17.15 40.15,17.15 L40.05,17.15 L40.05,13.4 C40.05,13.15 39.85,13 39.65,13 C39.45,13 39.25,13.2 39.25,13.4 L39.25,17.15 L35,17.15 L35,13.4 C35,13.15 34.8,13 34.6,13 C34.35,13 34.2,13.2 34.2,13.4 L34.2,17.15 L33.95,17.15 C33.55,17.15 33.2,16.8 33.2,16.4 L33.2,9.65 C33.2,7.85 34.35,6.25 36.1,5.75 C36.15,5.75 36.15,5.7 36.15,5.65 C36.15,5.6 36.15,5.55 36.1,5.55 C35.85,5.45 35.55,5.3 35.35,5.15 C35.35,5.15 35.3,5.15 35.3,5.15 C35.3,5.15 35.25,5.15 35.25,5.15 C33.5,5.95 32.35,7.7 32.35,9.65 L32.35,16.4 C32.3,17.15 32.9,17.8 33.65,17.9 Z M39.75,17.85 C39.7,17.85 39.7,17.85 39.65,17.85 C39.65,17.85 39.65,17.85 39.65,17.85 C39.7,17.9 39.7,17.9 39.75,17.85 Z M38.05,17.95 L39.55,17.95 C39.6,17.95 39.6,17.95 39.65,17.95 L39.65,27.15 C39.65,27.6 39.3,27.9 38.85,27.95 L38.85,27.95 C38.4,27.95 38.05,27.55 38.05,27.1 L38.05,17.95 Z M34.5,17.95 L36.1,17.95 L36.1,27.15 C36.1,27.6 35.75,27.9 35.3,27.95 L35.3,27.95 C35.1,27.95 34.9,27.85 34.75,27.7 C34.6,27.55 34.55,27.35 34.55,27.1 L34.5,17.95 Z" id="Shape"></path>
            <path d="M42.3,29.7 L0.65,29.7 C0.4,29.7 0.25,29.9 0.25,30.1 C0.25,30.35 0.45,30.5 0.65,30.5 L5.7,30.5 C5.7,30.5 5.7,30.55 5.7,30.55 L5.7,32.7 C5.7,32.95 5.9,33.1 6.1,33.1 C6.3,33.1 6.5,32.9 6.5,32.7 L6.5,30.55 C6.5,30.55 6.5,30.5 6.5,30.5 L15.9,30.5 C15.9,30.5 15.9,30.55 15.9,30.55 L15.9,32.7 C15.9,32.95 16.1,33.1 16.3,33.1 C16.55,33.1 16.7,32.9 16.7,32.7 L16.7,30.55 C16.7,30.55 16.7,30.5 16.7,30.5 L26.1,30.5 C26.1,30.5 26.1,30.55 26.1,30.55 L26.1,32.7 C26.1,32.95 26.3,33.1 26.5,33.1 C26.75,33.1 26.9,32.9 26.9,32.7 L26.9,30.55 C26.9,30.55 26.9,30.5 26.9,30.5 L36.3,30.5 C36.3,30.5 36.3,30.55 36.3,30.55 L36.3,32.7 C36.3,32.95 36.5,33.1 36.7,33.1 C36.95,33.1 37.1,32.9 37.1,32.7 L37.1,30.55 C37.1,30.55 37.1,30.5 37.1,30.5 L42.15,30.5 C42.4,30.5 42.55,30.3 42.55,30.1 C42.75,29.9 42.55,29.7 42.3,29.7 Z" id="Path"></path>
            <path d="M26.6,9.55 C27.95,9.55 29,8.45 29,7.15 C29,5.8 27.9,4.75 26.6,4.75 C25.3,4.75 24.2,5.85 24.2,7.15 C24.15,8.5 25.25,9.55 26.6,9.55 Z M26.6,5.6 C27.45,5.6 28.15,6.3 28.15,7.15 C28.15,8 27.45,8.7 26.6,8.7 C25.75,8.7 25.05,8 25.05,7.15 C25,6.3 25.7,5.6 26.6,5.6 Z" id="Shape"></path>
            <path d="M16.4,15.35 C17.75,15.35 18.8,14.25 18.8,12.95 C18.8,11.6 17.7,10.55 16.4,10.55 C15.05,10.55 14,11.65 14,12.95 C13.95,14.3 15.05,15.35 16.4,15.35 Z M16.4,11.4 C17.25,11.4 17.95,12.1 17.95,12.95 C17.95,13.8 17.25,14.5 16.4,14.5 C15.55,14.5 14.85,13.8 14.85,12.95 C14.8,12.1 15.5,11.4 16.4,11.4 Z" id="Shape"></path>
            <path d="M4.85,19.7 C4.9,19.7 5,19.75 5.05,19.75 C5.15,19.75 5.2,19.8 5.25,19.8 L5.3,19.8 C5.35,19.8 5.45,19.8 5.5,19.8 C5.55,19.8 5.65,19.8 5.7,19.8 C5.7,19.8 5.75,19.8 5.75,19.8 C5.8,19.8 5.9,19.8 5.95,19.75 C6.05,19.75 6.1,19.7 6.15,19.7 C7.25,19.35 7.85,18.15 7.45,17.05 C7.15,16.2 6.35,15.65 5.5,15.65 C5.3,15.65 5.05,15.7 4.85,15.75 C3.75,16.1 3.15,17.3 3.55,18.4 C3.75,19 4.2,19.5 4.85,19.7 Z M5.5,16.5 C6.2,16.5 6.75,17.05 6.75,17.75 C6.75,18.45 6.2,19 5.5,19 C4.8,19 4.25,18.45 4.25,17.75 C4.25,17.05 4.8,16.5 5.5,16.5 Z" id="Shape"></path>
            <path d="M37.05,5.25 C38.4,5.25 39.45,4.15 39.45,2.85 C39.45,1.5 38.35,0.45 37.05,0.45 C35.75,0.45 34.65,1.55 34.65,2.85 C34.6,4.2 35.7,5.25 37.05,5.25 Z M37.05,1.3 C37.9,1.3 38.6,2 38.6,2.85 C38.6,3.7 37.9,4.4 37.05,4.4 C36.2,4.4 35.5,3.7 35.5,2.85 C35.45,2 36.15,1.3 37.05,1.3 Z" id="Shape"></path>
            <path d="M0.95,26.15 C0.3,26.55 0.05,27.45 0.45,28.1 C0.7,28.55 1.15,28.8 1.65,28.8 C1.9,28.8 2.15,28.75 2.4,28.6 L4.75,27.25 C4.85,27.35 4.95,27.4 5.1,27.4 L6.15,27.4 C6.3,27.4 6.4,27.35 6.5,27.25 L8.85,28.6 C9.05,28.75 9.3,28.8 9.6,28.8 C10.1,28.8 10.55,28.55 10.8,28.1 C11.2,27.45 11,26.55 10.3,26.15 L8.05,24.75 L8.05,22.9 L8.85,23.4 C9.05,23.55 9.3,23.6 9.6,23.6 C10.1,23.6 10.55,23.35 10.8,22.9 C11.2,22.25 11,21.35 10.3,20.95 L8.3,19.8 C8.3,19.8 8.25,19.8 8.25,19.8 C8.25,19.8 8.25,19.8 8.25,19.8 C8.2,19.8 8.05,19.8 7.9,19.8 C7.7,19.8 7.6,19.8 7.55,19.8 C7.45,19.8 7.4,19.75 7.3,19.75 C7.3,19.75 7.3,19.75 7.3,19.75 C7.3,19.75 7.25,19.75 7.25,19.8 C7.25,19.8 7.2,19.85 7.2,19.9 C7.2,20 7.2,21.7 7.2,24.45 L4.05,24.45 L4.05,19.9 C4.05,19.9 4.05,19.85 4,19.85 C4,19.85 3.95,19.8 3.95,19.8 C3.85,19.8 3.75,19.8 3.7,19.8 C3.6,19.8 3.5,19.8 3.3,19.8 C3.3,19.8 3.25,19.8 3.25,19.8 L0.9,20.95 C0.55,21.15 0.35,21.45 0.25,21.85 C0.15,22.2 0.2,22.6 0.4,22.9 C0.65,23.35 1.1,23.6 1.6,23.6 C1.85,23.6 2.1,23.55 2.35,23.4 L3.2,22.9 L3.2,24.75 L0.95,26.15 Z M8,20.7 L9.85,21.7 C10.1,21.85 10.2,22.2 10,22.5 C9.9,22.65 9.7,22.75 9.5,22.75 C9.4,22.75 9.3,22.7 9.2,22.65 L7.95,21.85 L7.95,20.7 L8,20.7 Z M3.2,21.85 L1.95,22.7 C1.85,22.75 1.75,22.8 1.65,22.8 C1.45,22.8 1.25,22.7 1.15,22.55 C1,22.3 1.05,21.95 1.35,21.8 L3.25,20.8 L3.2,21.85 Z M7.45,25.55 L9.8,26.9 C9.95,27 10,27.1 10.05,27.25 C10.1,27.4 10.05,27.55 10,27.7 C9.9,27.85 9.7,27.95 9.5,27.95 C9.4,27.95 9.3,27.9 9.2,27.85 L6.85,26.5 L7.45,25.55 Z M6.95,25.2 L6.05,26.7 L5.1,26.7 L4.2,25.2 L6.95,25.2 Z M3.75,25.55 L4.3,26.55 L1.95,27.9 C1.85,27.95 1.75,28 1.65,28 C1.45,28 1.25,27.9 1.15,27.75 C1,27.5 1.05,27.15 1.35,27 L3.75,25.55 Z" id="Shape"></path>
        </g>
    </g>
</svg>