<?xml version="1.0" encoding="UTF-8"?>
<svg width="60px" height="60px" viewBox="0 0 60 60" version="1.1" xmlns="http://www.w3.org/2000/svg" xmlns:xlink="http://www.w3.org/1999/xlink">
    <title>Arbeitsleben_hover</title>
    <g id="Arbeitsleben_hover" stroke="none" stroke-width="1" fill="none" fill-rule="evenodd">
        <g id="Group" transform="translate(9.000000, 3.000000)" fill="#FFFFFF" fill-rule="nonzero">
            <path d="M15.498,12.348 C15.561,12.348 15.561,12.348 15.624,12.348 C18.837,12.348 21.546,9.765 21.546,6.489 C21.546,4.914 20.979,3.402 19.845,2.268 C18.711,1.134 17.262,0.504 15.687,0.441 C14.112,0.441 12.6,1.008 11.466,2.142 C10.332,3.276 9.702,4.725 9.639,6.3 C9.639,7.875 10.206,9.387 11.34,10.521 C12.474,11.718 13.923,12.348 15.498,12.348 Z M12.222,2.898 C13.167,2.016 14.364,1.512 15.687,1.512 C17.01,1.512 18.207,2.079 19.089,3.024 C19.971,3.969 20.475,5.166 20.475,6.489 C20.412,9.198 18.207,11.277 15.561,11.277 C14.238,11.277 13.041,10.71 12.159,9.765 C11.277,8.82 10.773,7.623 10.773,6.3 C10.773,5.04 11.34,3.843 12.222,2.898 Z" id="Shape"></path>
            <path d="M31.122,27.783 L31.122,27.783 C30.996,28.161 30.933,28.539 30.618,28.854 C30.24,29.295 29.673,29.547 29.106,29.547 C28.917,29.547 28.728,29.484 28.476,29.421 L29.169,30.87 L32.004,29.358 L31.311,27.972 C31.311,27.909 31.248,27.846 31.122,27.783 Z" id="Path"></path>
            <path d="M41.202,33.705 C41.202,33.705 41.202,33.642 41.139,33.642 L37.926,27.531 C37.548,26.838 36.792,26.397 36.036,26.397 C35.721,26.397 35.406,26.46 35.154,26.586 C35.154,26.586 35.091,26.586 35.091,26.586 L33.579,27.342 L33.39,26.964 C33.39,26.964 33.39,26.901 33.327,26.901 C32.949,26.271 32.382,25.83 31.752,25.641 C31.752,25.641 31.752,25.641 31.689,25.641 C31.563,25.641 31.437,25.578 31.248,25.578 C31.185,25.515 31.122,25.389 30.996,25.326 C30.996,25.326 30.933,25.263 30.933,25.263 C29.358,24.003 27.027,21.861 26.46,21.042 C26.334,20.79 26.145,20.349 25.956,19.908 C24.822,17.451 22.554,12.411 17.199,12.411 C17.136,12.411 14.742,12.348 13.986,12.348 C13.923,12.348 13.86,12.348 13.797,12.348 L13.797,12.348 C8.19,12.348 4.536,17.199 3.591,19.089 C3.591,19.089 3.591,19.089 3.591,19.089 C2.772,20.79 1.008,26.019 0.693,27.216 C0.252,28.854 1.197,30.555 2.772,30.996 C3.087,31.122 3.402,31.122 3.654,31.122 C5.04,31.122 6.174,30.24 6.615,28.917 C6.804,28.287 7.497,26.145 8.19,24.318 C8.127,26.019 8.19,27.972 8.379,30.051 C8.442,30.996 9.072,31.815 9.891,32.571 C9.639,34.461 9.135,37.485 8.883,37.989 C7.812,40.068 4.788,46.305 3.78,48.384 C3.591,48.699 3.528,48.951 3.528,48.951 C2.772,50.526 3.402,52.353 4.977,53.046 C5.418,53.235 5.796,53.361 6.3,53.361 C7.497,53.361 8.568,52.668 9.072,51.66 L9.072,51.66 C9.198,51.408 9.513,50.778 10.647,48.51 C11.907,45.864 13.671,42.21 14.427,40.761 C14.868,39.879 15.309,38.367 15.624,36.981 C17.073,38.367 18.396,39.879 18.774,40.698 C19.026,41.265 19.719,43.155 20.475,45.171 C21.294,47.439 22.239,50.022 22.869,51.597 C23.373,52.983 24.759,53.928 26.208,53.928 C26.649,53.928 27.027,53.865 27.468,53.739 C27.468,53.739 27.468,53.739 27.531,53.739 C28.476,53.424 29.169,52.731 29.547,51.786 C29.925,50.904 29.925,49.896 29.547,49.014 C29.484,48.888 29.106,47.754 28.665,46.557 C27.594,43.533 25.893,38.997 25.389,37.863 C24.696,36.288 22.113,33.138 20.475,31.374 C20.475,30.177 20.538,26.838 20.916,23.562 C21.042,23.814 21.168,24.066 21.357,24.255 C22.365,25.83 24.633,27.846 26.145,29.169 C26.145,29.61 26.208,30.051 26.397,30.429 C26.397,30.429 26.397,30.492 26.46,30.492 L26.649,30.87 L25.074,31.689 C25.074,31.689 25.074,31.689 25.074,31.689 C24.129,32.256 23.688,33.39 24.192,34.461 C24.192,34.461 24.192,34.524 24.192,34.524 L27.342,40.698 C27.342,40.698 27.342,40.698 27.342,40.761 C27.72,41.454 28.413,41.832 29.232,41.832 C29.547,41.832 29.862,41.769 30.114,41.643 C30.114,41.643 30.177,41.643 30.177,41.643 L40.131,36.54 C40.194,36.54 40.194,36.477 40.257,36.477 C41.265,35.847 41.643,34.65 41.202,33.705 Z M13.545,40.32 C12.789,41.769 11.025,45.423 9.702,48.069 C8.946,49.581 8.253,51.03 8.19,51.156 C8.19,51.156 8.19,51.156 8.19,51.219 C7.875,51.912 7.119,52.353 6.363,52.353 C6.048,52.353 5.796,52.29 5.481,52.164 C4.536,51.723 4.095,50.526 4.599,49.518 C4.599,49.518 4.725,49.266 4.914,48.951 C5.922,46.872 8.946,40.635 10.017,38.556 C10.332,37.863 10.773,35.028 11.025,33.453 C11.088,33.453 11.151,33.516 11.151,33.579 C11.277,33.642 11.34,33.705 11.466,33.831 C11.655,33.957 11.844,34.083 12.033,34.209 C12.978,34.839 14.112,35.721 14.742,36.351 C14.49,37.674 13.986,39.501 13.545,40.32 Z M39.69,35.595 L29.736,40.698 C29.61,40.761 29.421,40.824 29.295,40.824 C28.917,40.824 28.539,40.635 28.35,40.32 L25.2,34.146 C25.011,33.642 25.137,33.075 25.641,32.76 L28.161,31.437 L27.468,30.051 C27.279,29.673 27.279,29.169 27.405,28.791 C26.145,27.783 23.373,25.326 22.302,23.688 C21.987,23.184 21.735,22.68 21.42,21.987 C21.105,21.294 20.79,20.664 20.412,20.097 C19.404,24.57 19.404,30.996 19.404,31.815 C19.467,31.878 19.467,31.878 19.53,31.941 C21.231,33.768 23.814,36.855 24.381,38.304 C25.074,39.942 28.35,49.077 28.539,49.455 C29.106,50.778 28.413,52.227 27.09,52.731 C26.775,52.857 26.46,52.92 26.145,52.92 C25.137,52.92 24.192,52.29 23.814,51.282 C22.617,48.258 20.286,41.643 19.719,40.383 C19.026,38.808 15.561,35.28 13.356,33.768 C13.167,33.642 12.915,33.453 12.6,33.264 C12.411,33.138 12.222,33.012 11.97,32.886 C10.773,32.067 9.513,31.059 9.387,30.051 C9.198,27.909 8.883,22.869 9.765,19.215 C8.883,20.034 8.316,20.916 8.127,21.294 C7.497,22.554 5.859,27.531 5.481,28.602 C5.229,29.484 4.473,30.051 3.591,30.051 C3.402,30.051 3.213,30.051 3.024,29.988 C2.016,29.736 1.386,28.602 1.638,27.594 C1.953,26.46 3.717,21.231 4.473,19.593 C5.292,17.955 8.568,13.482 13.671,13.482 C13.734,13.482 13.797,13.482 13.86,13.482 C14.616,13.482 17.073,13.545 17.073,13.545 C21.672,13.545 23.751,17.955 24.822,20.349 C25.011,20.853 25.263,21.357 25.452,21.609 C26.082,22.617 28.539,24.822 30.177,26.082 C30.366,26.271 30.492,26.397 30.618,26.649 C30.681,26.649 30.744,26.649 30.807,26.649 C30.996,26.649 31.185,26.712 31.311,26.712 C31.689,26.838 32.004,27.09 32.256,27.468 L32.886,28.917 L35.406,27.594 C35.532,27.531 35.721,27.468 35.847,27.468 C36.225,27.468 36.603,27.657 36.792,27.972 L40.005,34.083 C40.446,34.65 40.257,35.217 39.69,35.595 Z" id="Shape"></path>
        </g>
    </g>
</svg>