<?xml version="1.0" encoding="UTF-8"?>
<svg width="60px" height="60px" viewBox="0 0 60 60" version="1.1" xmlns="http://www.w3.org/2000/svg" xmlns:xlink="http://www.w3.org/1999/xlink">
    <title>Arbeitsleben_hover</title>
    <g id="Arbeitsleben_hover" stroke="none" stroke-width="1" fill="none" fill-rule="evenodd">
        <path d="M26.3,18.8 C26.35,18.8 26.35,18.8 26.4,18.8 C28.95,18.8 31.1,16.75 31.1,14.15 C31.1,12.9 30.65,11.7 29.75,10.8 C28.85,9.9 27.7,9.4 26.45,9.35 C25.2,9.35 24,9.8 23.1,10.7 C22.2,11.6 21.7,12.75 21.65,14 C21.65,15.25 22.1,16.45 23,17.35 C23.9,18.3 25.05,18.8 26.3,18.8 Z M23.7,11.3 C24.45,10.6 25.4,10.2 26.45,10.2 C27.5,10.2 28.45,10.65 29.15,11.4 C29.85,12.15 30.25,13.1 30.25,14.15 C30.2,16.3 28.45,17.95 26.35,17.95 C25.3,17.95 24.35,17.5 23.65,16.75 C22.95,16 22.55,15.05 22.55,14 C22.55,13 23,12.05 23.7,11.3 Z" id="Shape" fill="#FFFFFF" fill-rule="nonzero"></path>
        <path d="M38.7,31.05 L38.7,31.05 C38.6,31.35 38.55,31.65 38.3,31.9 C38,32.25 37.55,32.45 37.1,32.45 C36.95,32.45 36.8,32.4 36.6,32.35 L37.15,33.5 L39.4,32.3 L38.85,31.2 C38.85,31.15 38.8,31.1 38.7,31.05 Z" id="Path" fill="#FFFFFF" fill-rule="nonzero"></path>
        <path d="M46.7,35.75 C46.7,35.75 46.7,35.7 46.65,35.7 L44.1,30.85 C43.8,30.3 43.2,29.95 42.6,29.95 C42.35,29.95 42.1,30 41.9,30.1 C41.9,30.1 41.85,30.1 41.85,30.1 L40.65,30.7 L40.5,30.4 C40.5,30.4 40.5,30.35 40.45,30.35 C40.15,29.85 39.7,29.5 39.2,29.35 C39.2,29.35 39.2,29.35 39.15,29.35 C39.05,29.35 38.95,29.3 38.8,29.3 C38.75,29.25 38.7,29.15 38.6,29.1 C38.6,29.1 38.55,29.05 38.55,29.05 C37.3,28.05 35.45,26.35 35,25.7 C34.9,25.5 34.75,25.15 34.6,24.8 C33.7,22.85 31.9,18.85 27.65,18.85 C27.6,18.85 25.7,18.8 25.1,18.8 C25.05,18.8 25,18.8 24.95,18.8 L24.95,18.8 C20.5,18.8 17.6,22.65 16.85,24.15 C16.85,24.15 16.85,24.15 16.85,24.15 C16.2,25.5 14.8,29.65 14.55,30.6 C14.2,31.9 14.95,33.25 16.2,33.6 C16.45,33.7 16.7,33.7 16.9,33.7 C18,33.7 18.9,33 19.25,31.95 C19.4,31.45 19.95,29.75 20.5,28.3 C20.45,29.65 20.5,31.2 20.65,32.85 C20.7,33.6 21.2,34.25 21.85,34.85 C21.65,36.35 21.25,38.75 21.05,39.15 C20.2,40.8 17.8,45.75 17,47.4 C16.85,47.65 16.8,47.85 16.8,47.85 C16.2,49.1 16.7,50.55 17.95,51.1 C18.3,51.25 18.6,51.35 19,51.35 C19.95,51.35 20.8,50.8 21.2,50 L21.2,50 C21.3,49.8 21.55,49.3 22.45,47.5 C23.45,45.4 24.85,42.5 25.45,41.35 C25.8,40.65 26.15,39.45 26.4,38.35 C27.55,39.45 28.6,40.65 28.9,41.3 C29.1,41.75 29.65,43.25 30.25,44.85 C30.9,46.65 31.65,48.7 32.15,49.95 C32.55,51.05 33.65,51.8 34.8,51.8 C35.15,51.8 35.45,51.75 35.8,51.65 C35.8,51.65 35.8,51.65 35.85,51.65 C36.6,51.4 37.15,50.85 37.45,50.1 C37.75,49.4 37.75,48.6 37.45,47.9 C37.4,47.8 37.1,46.9 36.75,45.95 C35.9,43.55 34.55,39.95 34.15,39.05 C33.6,37.8 31.55,35.3 30.25,33.9 C30.25,32.95 30.3,30.3 30.6,27.7 C30.7,27.9 30.8,28.1 30.95,28.25 C31.75,29.5 33.55,31.1 34.75,32.15 C34.75,32.5 34.8,32.85 34.95,33.15 C34.95,33.15 34.95,33.2 35,33.2 L35.15,33.5 L33.9,34.15 C33.9,34.15 33.9,34.15 33.9,34.15 C33.15,34.6 32.8,35.5 33.2,36.35 C33.2,36.35 33.2,36.4 33.2,36.4 L35.7,41.3 C35.7,41.3 35.7,41.3 35.7,41.35 C36,41.9 36.55,42.2 37.2,42.2 C37.45,42.2 37.7,42.15 37.9,42.05 C37.9,42.05 37.95,42.05 37.95,42.05 L45.85,38 C45.9,38 45.9,37.95 45.95,37.95 C46.75,37.45 47.05,36.5 46.7,35.75 Z M24.75,41 C24.15,42.15 22.75,45.05 21.7,47.15 C21.1,48.35 20.55,49.5 20.5,49.6 C20.5,49.6 20.5,49.6 20.5,49.65 C20.25,50.2 19.65,50.55 19.05,50.55 C18.8,50.55 18.6,50.5 18.35,50.4 C17.6,50.05 17.25,49.1 17.65,48.3 C17.65,48.3 17.75,48.1 17.9,47.85 C18.7,46.2 21.1,41.25 21.95,39.6 C22.2,39.05 22.55,36.8 22.75,35.55 C22.8,35.55 22.85,35.6 22.85,35.65 C22.95,35.7 23,35.75 23.1,35.85 C23.25,35.95 23.4,36.05 23.55,36.15 C24.3,36.65 25.2,37.35 25.7,37.85 C25.5,38.9 25.1,40.35 24.75,41 Z M45.5,37.25 L37.6,41.3 C37.5,41.35 37.35,41.4 37.25,41.4 C36.95,41.4 36.65,41.25 36.5,41 L34,36.1 C33.85,35.7 33.95,35.25 34.35,35 L36.35,33.95 L35.8,32.85 C35.65,32.55 35.65,32.15 35.75,31.85 C34.75,31.05 32.55,29.1 31.7,27.8 C31.45,27.4 31.25,27 31,26.45 C30.75,25.9 30.5,25.4 30.2,24.95 C29.4,28.5 29.4,33.6 29.4,34.25 C29.45,34.3 29.45,34.3 29.5,34.35 C30.85,35.8 32.9,38.25 33.35,39.4 C33.9,40.7 36.5,47.95 36.65,48.25 C37.1,49.3 36.55,50.45 35.5,50.85 C35.25,50.95 35,51 34.75,51 C33.95,51 33.2,50.5 32.9,49.7 C31.95,47.3 30.1,42.05 29.65,41.05 C29.1,39.8 26.35,37 24.6,35.8 C24.45,35.7 24.25,35.55 24,35.4 C23.85,35.3 23.7,35.2 23.5,35.1 C22.55,34.45 21.55,33.65 21.45,32.85 C21.3,31.15 21.05,27.15 21.75,24.25 C21.05,24.9 20.6,25.6 20.45,25.9 C19.95,26.9 18.65,30.85 18.35,31.7 C18.15,32.4 17.55,32.85 16.85,32.85 C16.7,32.85 16.55,32.85 16.4,32.8 C15.6,32.6 15.1,31.7 15.3,30.9 C15.55,30 16.95,25.85 17.55,24.55 C18.2,23.25 20.8,19.7 24.85,19.7 C24.9,19.7 24.95,19.7 25,19.7 C25.6,19.7 27.55,19.75 27.55,19.75 C31.2,19.75 32.85,23.25 33.7,25.15 C33.85,25.55 34.05,25.95 34.2,26.15 C34.7,26.95 36.65,28.7 37.95,29.7 C38.1,29.85 38.2,29.95 38.3,30.15 C38.35,30.15 38.4,30.15 38.45,30.15 C38.6,30.15 38.75,30.2 38.85,30.2 C39.15,30.3 39.4,30.5 39.6,30.8 L40.1,31.95 L42.1,30.9 C42.2,30.85 42.35,30.8 42.45,30.8 C42.75,30.8 43.05,30.95 43.2,31.2 L45.75,36.05 C46.1,36.5 45.95,36.95 45.5,37.25 Z" id="Shape" fill="#FFFFFF" fill-rule="nonzero"></path>
    </g>
</svg>