<?xml version="1.0" encoding="UTF-8"?>
<svg width="60px" height="60px" viewBox="0 0 60 60" version="1.1" xmlns="http://www.w3.org/2000/svg" xmlns:xlink="http://www.w3.org/1999/xlink">
    <title>Arbeitsleben</title>
    <g id="Arbeitsleben" stroke="none" stroke-width="1" fill="none" fill-rule="evenodd">
        <g id="Group" transform="translate(14.000000, 9.000000)" fill="#000000" fill-rule="nonzero">
            <path d="M12.3,9.8 C12.35,9.8 12.35,9.8 12.4,9.8 C14.95,9.8 17.1,7.75 17.1,5.15 C17.1,3.9 16.65,2.7 15.75,1.8 C14.85,0.9 13.7,0.4 12.45,0.35 C11.2,0.35 10,0.8 9.1,1.7 C8.2,2.6 7.7,3.75 7.65,5 C7.65,6.25 8.1,7.45 9,8.35 C9.9,9.3 11.05,9.8 12.3,9.8 Z M9.7,2.3 C10.45,1.6 11.4,1.2 12.45,1.2 C13.5,1.2 14.45,1.65 15.15,2.4 C15.85,3.15 16.25,4.1 16.25,5.15 C16.2,7.3 14.45,8.95 12.35,8.95 C11.3,8.95 10.35,8.5 9.65,7.75 C8.95,7 8.55,6.05 8.55,5 C8.55,4 9,3.05 9.7,2.3 Z" id="Shape"></path>
            <path d="M24.7,22.05 L24.7,22.05 C24.6,22.35 24.55,22.65 24.3,22.9 C24,23.25 23.55,23.45 23.1,23.45 C22.95,23.45 22.8,23.4 22.6,23.35 L23.15,24.5 L25.4,23.3 L24.85,22.2 C24.85,22.15 24.8,22.1 24.7,22.05 Z" id="Path"></path>
            <path d="M32.7,26.75 C32.7,26.75 32.7,26.7 32.65,26.7 L30.1,21.85 C29.8,21.3 29.2,20.95 28.6,20.95 C28.35,20.95 28.1,21 27.9,21.1 C27.9,21.1 27.85,21.1 27.85,21.1 L26.65,21.7 L26.5,21.4 C26.5,21.4 26.5,21.35 26.45,21.35 C26.15,20.85 25.7,20.5 25.2,20.35 C25.2,20.35 25.2,20.35 25.15,20.35 C25.05,20.35 24.95,20.3 24.8,20.3 C24.75,20.25 24.7,20.15 24.6,20.1 C24.6,20.1 24.55,20.05 24.55,20.05 C23.3,19.05 21.45,17.35 21,16.7 C20.9,16.5 20.75,16.15 20.6,15.8 C19.7,13.85 17.9,9.85 13.65,9.85 C13.6,9.85 11.7,9.8 11.1,9.8 C11.05,9.8 11,9.8 10.95,9.8 L10.95,9.8 C6.5,9.8 3.6,13.65 2.85,15.15 C2.85,15.15 2.85,15.15 2.85,15.15 C2.2,16.5 0.8,20.65 0.55,21.6 C0.2,22.9 0.95,24.25 2.2,24.6 C2.45,24.7 2.7,24.7 2.9,24.7 C4,24.7 4.9,24 5.25,22.95 C5.4,22.45 5.95,20.75 6.5,19.3 C6.45,20.65 6.5,22.2 6.65,23.85 C6.7,24.6 7.2,25.25 7.85,25.85 C7.65,27.35 7.25,29.75 7.05,30.15 C6.2,31.8 3.8,36.75 3,38.4 C2.85,38.65 2.8,38.85 2.8,38.85 C2.2,40.1 2.7,41.55 3.95,42.1 C4.3,42.25 4.6,42.35 5,42.35 C5.95,42.35 6.8,41.8 7.2,41 L7.2,41 C7.3,40.8 7.55,40.3 8.45,38.5 C9.45,36.4 10.85,33.5 11.45,32.35 C11.8,31.65 12.15,30.45 12.4,29.35 C13.55,30.45 14.6,31.65 14.9,32.3 C15.1,32.75 15.65,34.25 16.25,35.85 C16.9,37.65 17.65,39.7 18.15,40.95 C18.55,42.05 19.65,42.8 20.8,42.8 C21.15,42.8 21.45,42.75 21.8,42.65 C21.8,42.65 21.8,42.65 21.85,42.65 C22.6,42.4 23.15,41.85 23.45,41.1 C23.75,40.4 23.75,39.6 23.45,38.9 C23.4,38.8 23.1,37.9 22.75,36.95 C21.9,34.55 20.55,30.95 20.15,30.05 C19.6,28.8 17.55,26.3 16.25,24.9 C16.25,23.95 16.3,21.3 16.6,18.7 C16.7,18.9 16.8,19.1 16.95,19.25 C17.75,20.5 19.55,22.1 20.75,23.15 C20.75,23.5 20.8,23.85 20.95,24.15 C20.95,24.15 20.95,24.2 21,24.2 L21.15,24.5 L19.9,25.15 C19.9,25.15 19.9,25.15 19.9,25.15 C19.15,25.6 18.8,26.5 19.2,27.35 C19.2,27.35 19.2,27.4 19.2,27.4 L21.7,32.3 C21.7,32.3 21.7,32.3 21.7,32.35 C22,32.9 22.55,33.2 23.2,33.2 C23.45,33.2 23.7,33.15 23.9,33.05 C23.9,33.05 23.95,33.05 23.95,33.05 L31.85,29 C31.9,29 31.9,28.95 31.95,28.95 C32.75,28.45 33.05,27.5 32.7,26.75 Z M10.75,32 C10.15,33.15 8.75,36.05 7.7,38.15 C7.1,39.35 6.55,40.5 6.5,40.6 C6.5,40.6 6.5,40.6 6.5,40.65 C6.25,41.2 5.65,41.55 5.05,41.55 C4.8,41.55 4.6,41.5 4.35,41.4 C3.6,41.05 3.25,40.1 3.65,39.3 C3.65,39.3 3.75,39.1 3.9,38.85 C4.7,37.2 7.1,32.25 7.95,30.6 C8.2,30.05 8.55,27.8 8.75,26.55 C8.8,26.55 8.85,26.6 8.85,26.65 C8.95,26.7 9,26.75 9.1,26.85 C9.25,26.95 9.4,27.05 9.55,27.15 C10.3,27.65 11.2,28.35 11.7,28.85 C11.5,29.9 11.1,31.35 10.75,32 Z M31.5,28.25 L23.6,32.3 C23.5,32.35 23.35,32.4 23.25,32.4 C22.95,32.4 22.65,32.25 22.5,32 L20,27.1 C19.85,26.7 19.95,26.25 20.35,26 L22.35,24.95 L21.8,23.85 C21.65,23.55 21.65,23.15 21.75,22.85 C20.75,22.05 18.55,20.1 17.7,18.8 C17.45,18.4 17.25,18 17,17.45 C16.75,16.9 16.5,16.4 16.2,15.95 C15.4,19.5 15.4,24.6 15.4,25.25 C15.45,25.3 15.45,25.3 15.5,25.35 C16.85,26.8 18.9,29.25 19.35,30.4 C19.9,31.7 22.5,38.95 22.65,39.25 C23.1,40.3 22.55,41.45 21.5,41.85 C21.25,41.95 21,42 20.75,42 C19.95,42 19.2,41.5 18.9,40.7 C17.95,38.3 16.1,33.05 15.65,32.05 C15.1,30.8 12.35,28 10.6,26.8 C10.45,26.7 10.25,26.55 10,26.4 C9.85,26.3 9.7,26.2 9.5,26.1 C8.55,25.45 7.55,24.65 7.45,23.85 C7.3,22.15 7.05,18.15 7.75,15.25 C7.05,15.9 6.6,16.6 6.45,16.9 C5.95,17.9 4.65,21.85 4.35,22.7 C4.15,23.4 3.55,23.85 2.85,23.85 C2.7,23.85 2.55,23.85 2.4,23.8 C1.6,23.6 1.1,22.7 1.3,21.9 C1.55,21 2.95,16.85 3.55,15.55 C4.2,14.25 6.8,10.7 10.85,10.7 C10.9,10.7 10.95,10.7 11,10.7 C11.6,10.7 13.55,10.75 13.55,10.75 C17.2,10.75 18.85,14.25 19.7,16.15 C19.85,16.55 20.05,16.95 20.2,17.15 C20.7,17.95 22.65,19.7 23.95,20.7 C24.1,20.85 24.2,20.95 24.3,21.15 C24.35,21.15 24.4,21.15 24.45,21.15 C24.6,21.15 24.75,21.2 24.85,21.2 C25.15,21.3 25.4,21.5 25.6,21.8 L26.1,22.95 L28.1,21.9 C28.2,21.85 28.35,21.8 28.45,21.8 C28.75,21.8 29.05,21.95 29.2,22.2 L31.75,27.05 C32.1,27.5 31.95,27.95 31.5,28.25 Z" id="Shape"></path>
        </g>
    </g>
</svg>