<?xml version="1.0" encoding="UTF-8"?>
<svg width="60px" height="60px" viewBox="0 0 60 60" version="1.1" xmlns="http://www.w3.org/2000/svg" xmlns:xlink="http://www.w3.org/1999/xlink">
    <title>Behinderung</title>
    <g id="Behinderung" stroke="none" stroke-width="1" fill="none" fill-rule="evenodd">
        <g id="Behinderung-und-chronische-Krankheiten" transform="translate(15.000000, 10.000000)" fill="#000000" fill-rule="nonzero">
            <path d="M7.3,4.58 C7.3,7.10946415 9.35053585,9.16 11.88,9.16 C14.4094642,9.16 16.46,7.10946415 16.46,4.58 C16.46,2.05053585 14.4094642,0 11.88,0 C9.35167816,0.00275566659 7.30275567,2.05167816 7.3,4.58 Z M11.88,1.08 C13.3079608,1.06987236 14.6009566,1.92226008 15.1544453,3.2386281 C15.7079341,4.555 15.4125522,6.07524359 14.4064059,7.08857673 C13.4002595,8.10190988 11.8821528,8.40810443 10.5618788,7.8639987 C9.24160474,7.31989298 8.38003591,6.03299671 8.3799414,4.605 C8.36890602,2.6592987 9.93433707,1.07150435 11.88,1.055 L11.88,1.08 Z" id="Shape"></path>
            <path d="M30.33,34.775 L25.33,24.7 C24.4901026,23.3688597 23.0188341,22.5697924 21.445,22.59 L17.205,22.59 C17.0878949,22.591354 16.9751908,22.5454318 16.8923795,22.4626205 C16.8095682,22.3798092 16.763646,22.2671051 16.765,22.15 L16.765,20.5 L22,20.5 C23.3337677,20.5 24.415,19.4187677 24.415,18.085 C24.415,16.7512323 23.3337677,15.67 22,15.67 L16.755,15.67 L16.755,15.2 C16.8103377,13.5231205 15.9473167,11.9493852 14.5036182,11.0945626 C13.0599196,10.2397399 11.2650804,10.2397399 9.82138185,11.0945626 C8.37768333,11.9493852 7.51466227,13.5231205 7.57,15.2 L7.57,18.165 L7.505,18.165 C5.39927102,18.9190874 3.56384698,20.2795628 2.23,22.075 C0.7757566,24.0091248 -0.00724872898,26.3651632 -4.9879063e-05,28.785 C-0.0052383917,34.5224992 4.32074645,39.3386962 10.0259074,39.9470238 C15.7310684,40.5553514 20.9753239,36.759606 22.18,31.15 L22.24,30.89 L22.37,31.12 L25.45,37.27 C25.9137951,38.1915884 26.8582897,38.7722204 27.89,38.77 C28.3260064,38.7692559 28.7557922,38.6665183 29.145,38.47 C30.4897729,37.7745107 31.0194586,36.1228747 30.33,34.775 Z M12.5,29.94 L18.775,29.94 L18.775,30.06 C18.1495997,33.7451134 14.9527948,36.4387174 11.215,36.4300211 C7.74652712,36.4327298 4.71083014,34.1001076 3.82027458,30.747911 C2.92971901,27.3957143 4.40748525,23.8640307 7.42,22.145 L7.57,22.06 L7.57,25 C7.56999442,27.7243862 9.77561939,29.934485 12.5,29.94 L12.5,29.94 Z M21.28,30.07 C20.6557216,34.9827433 16.5804075,38.7297015 11.6326284,38.9400642 C6.68484931,39.150427 2.30620124,35.7629025 1.26718324,30.9208769 C0.22816525,26.0788513 2.83150793,21.193108 7.43,19.355 L7.57,19.3 L7.57,20.88 L7.515,20.91 C3.75367865,22.6799276 1.76994807,26.8634602 2.77995602,30.8958374 C3.78996397,34.9282146 7.51149756,37.6827236 11.6630299,37.4706825 C15.8145622,37.2586415 19.2360865,34.1392981 19.83,30.025 L19.83,29.94 L19.92,29.94 C20.04,29.94 21.1,29.94 21.195,29.94 L21.295,29.94 L21.28,30.07 Z M27.89,37.710014 C27.2587425,37.7125708 26.6793235,37.3610566 26.39,36.8 C26.36,36.74 23.28,30.6 23.18,30.415 C22.73,29.595 22.34,28.885 20.86,28.885 L12.5,28.885 C10.35828,28.8794872 8.6249929,27.1417271 8.625,25 L8.625,15.21 C8.57628453,13.9144524 9.23967096,12.6959137 10.3542319,12.0336671 C11.4687929,11.3714205 12.8562071,11.3714205 13.9707681,12.0336671 C15.085329,12.6959137 15.7487155,13.9144524 15.7,15.21 L15.7,16.74 L22,16.74 C22.7177756,16.7835816 23.2775758,17.3784026 23.2775758,18.0975 C23.2775758,18.8165974 22.7177756,19.4114184 22,19.455 L15.71,19.455 L15.71,22.15 C15.71,22.9784271 16.3815729,23.65 17.21,23.65 L21.45,23.65 C22.657329,23.6269922 23.7912429,24.2279665 24.45,25.24 L29.415,35.24 C29.6214682,35.6376563 29.6610539,36.1011706 29.5250062,36.5280789 C29.3889585,36.9549872 29.0884821,37.3101301 28.69,37.515 C28.443126,37.6440027 28.1685455,37.7109317 27.89,37.710014 L27.89,37.710014 Z" id="Shape"></path>
        </g>
    </g>
</svg>