<?xml version="1.0" encoding="UTF-8"?>
<svg width="60px" height="60px" viewBox="0 0 60 60" version="1.1" xmlns="http://www.w3.org/2000/svg" xmlns:xlink="http://www.w3.org/1999/xlink">
    <title>Behinderung_hover</title>
    <g id="Behinderung_hover" stroke="none" stroke-width="1" fill="none" fill-rule="evenodd">
        <path d="M22.3,14.58 C22.3,17.1094642 24.3505358,19.16 26.88,19.16 C29.4094642,19.16 31.46,17.1094642 31.46,14.58 C31.46,12.0505358 29.4094642,10 26.88,10 C24.3516782,10.0027557 22.3027557,12.0516782 22.3,14.58 Z M26.88,11.08 C28.3079608,11.0698724 29.6009566,11.9222601 30.1544453,13.2386281 C30.7079341,14.555 30.4125522,16.0752436 29.4064059,17.0885767 C28.4002595,18.1019099 26.8821528,18.4081044 25.5618788,17.8639987 C24.2416047,17.319893 23.3800359,16.0329967 23.3799414,14.605 C23.368906,12.6592987 24.9343371,11.0715043 26.88,11.055 L26.88,11.08 Z" id="Shape" fill="#FFFFFF" fill-rule="nonzero"></path>
        <path d="M45.33,44.775 L40.33,34.7 C39.4901026,33.3688597 38.0188341,32.5697924 36.445,32.59 L32.205,32.59 C32.0878949,32.591354 31.9751908,32.5454318 31.8923795,32.4626205 C31.8095682,32.3798092 31.763646,32.2671051 31.765,32.15 L31.765,30.5 L37,30.5 C38.3337677,30.5 39.415,29.4187677 39.415,28.085 C39.415,26.7512323 38.3337677,25.67 37,25.67 L31.755,25.67 L31.755,25.2 C31.8103377,23.5231205 30.9473167,21.9493852 29.5036182,21.0945626 C28.0599196,20.2397399 26.2650804,20.2397399 24.8213818,21.0945626 C23.3776833,21.9493852 22.5146623,23.5231205 22.57,25.2 L22.57,28.165 L22.505,28.165 C20.399271,28.9190874 18.563847,30.2795628 17.23,32.075 C15.7757566,34.0091248 14.9927513,36.3651632 14.9999501,38.785 C14.9947616,44.5224992 19.3207465,49.3386962 25.0259074,49.9470238 C30.7310684,50.5553514 35.9753239,46.759606 37.18,41.15 L37.24,40.89 L37.37,41.12 L40.45,47.27 C40.9137951,48.1915884 41.8582897,48.7722204 42.89,48.77 C43.3260064,48.7692559 43.7557922,48.6665183 44.145,48.47 C45.4897729,47.7745107 46.0194586,46.1228747 45.33,44.775 Z M27.5,39.94 L33.775,39.94 L33.775,40.06 C33.1495997,43.7451134 29.9527948,46.4387174 26.215,46.4300211 C22.7465271,46.4327298 19.7108301,44.1001076 18.8202746,40.747911 C17.929719,37.3957143 19.4074852,33.8640307 22.42,32.145 L22.57,32.06 L22.57,35 C22.5699944,37.7243862 24.7756194,39.934485 27.5,39.94 L27.5,39.94 Z M36.28,40.07 C35.6557216,44.9827433 31.5804075,48.7297015 26.6326284,48.9400642 C21.6848493,49.150427 17.3062012,45.7629025 16.2671832,40.9208769 C15.2281652,36.0788513 17.8315079,31.193108 22.43,29.355 L22.57,29.3 L22.57,30.88 L22.515,30.91 C18.7536787,32.6799276 16.7699481,36.8634602 17.779956,40.8958374 C18.789964,44.9282146 22.5114976,47.6827236 26.6630299,47.4706825 C30.8145622,47.2586415 34.2360865,44.1392981 34.83,40.025 L34.83,39.94 L34.92,39.94 C35.04,39.94 36.1,39.94 36.195,39.94 L36.295,39.94 L36.28,40.07 Z M42.89,47.710014 C42.2587425,47.7125708 41.6793235,47.3610566 41.39,46.8 C41.36,46.74 38.28,40.6 38.18,40.415 C37.73,39.595 37.34,38.885 35.86,38.885 L27.5,38.885 C25.35828,38.8794872 23.6249929,37.1417271 23.625,35 L23.625,25.21 C23.5762845,23.9144524 24.239671,22.6959137 25.3542319,22.0336671 C26.4687929,21.3714205 27.8562071,21.3714205 28.9707681,22.0336671 C30.085329,22.6959137 30.7487155,23.9144524 30.7,25.21 L30.7,26.74 L37,26.74 C37.7177756,26.7835816 38.2775758,27.3784026 38.2775758,28.0975 C38.2775758,28.8165974 37.7177756,29.4114184 37,29.455 L30.71,29.455 L30.71,32.15 C30.71,32.9784271 31.3815729,33.65 32.21,33.65 L36.45,33.65 C37.657329,33.6269922 38.7912429,34.2279665 39.45,35.24 L44.415,45.24 C44.6214682,45.6376563 44.6610539,46.1011706 44.5250062,46.5280789 C44.3889585,46.9549872 44.0884821,47.3101301 43.69,47.515 C43.443126,47.6440027 43.1685455,47.7109317 42.89,47.710014 L42.89,47.710014 Z" id="Shape" fill="#FFFFFF" fill-rule="nonzero"></path>
    </g>
</svg>