<?xml version="1.0" encoding="UTF-8"?>
<svg width="60px" height="60px" viewBox="0 0 60 60" version="1.1" xmlns="http://www.w3.org/2000/svg" xmlns:xlink="http://www.w3.org/1999/xlink">
    <title>Bildungsbereich_hover</title>
    <g id="Bildungsbereich_hover" stroke="none" stroke-width="1" fill="none" fill-rule="evenodd">
        <path d="M50.25,37.6875 L50.1,37.6375 L50.1,35.9375 C50.1,35.2375 49.55,34.6875 48.85,34.6875 L47.2,34.6875 L47.2,31.6375 C47.2,31.3375 46.95,31.1375 46.7,31.1375 L37.75,31.1375 C37.65,31.1375 37.6,31.0375 37.65,30.9375 L37.75,30.8375 C39.25,29.0875 40.05,26.8375 40.05,24.5375 L40.05,17.6875 L46.1,15.7375 C46.4,15.6375 46.55,15.3375 46.45,15.0875 C46.4,14.9375 46.3,14.7875 46.15,14.7375 L30.45,9.0375 C30.35,8.9875 30.2,8.9875 30.1,9.0375 L14.4,14.7375 C14.2,14.7875 14.05,14.9875 14.05,15.2375 L14.05,23.0375 L11.95,27.8875 C11.85,28.1375 11.95,28.4375 12.2,28.5875 C12.25,28.6375 12.35,28.6375 12.4,28.6375 L16.7,28.6375 C17,28.6375 17.2,28.3875 17.2,28.1375 C17.2,28.0875 17.2,27.9875 17.15,27.9375 L15.05,22.9875 L15.05,15.9875 L20.45,17.6875 L20.45,24.5375 C20.45,26.8375 21.25,29.0875 22.75,30.8375 L23,31.1375 L13.85,31.1375 C13.55,31.1375 13.35,31.3875 13.35,31.6375 L13.35,34.6875 L11.7,34.6875 C11,34.6875 10.45,35.2375 10.45,35.9375 L10.45,37.6375 L10.3,37.6875 C9.5,37.9375 9,38.6875 9,39.5375 L9,45.9875 C9,47.0375 9.85,47.9375 10.95,47.9375 L13.3,47.9375 L13.3,50.9875 C13.3,51.2875 13.55,51.4875 13.8,51.4875 L46.7,51.4875 C47,51.4875 47.2,51.2375 47.2,50.9875 L47.2,47.9375 L49.55,47.9375 C50.6,47.9375 51.5,47.0875 51.5,45.9875 L51.5,39.5375 C51.55,38.7375 51,37.9875 50.25,37.6875 Z M15.9,27.5875 L13.2,27.5875 L14.55,24.4375 L15.9,27.5875 Z M47.25,35.7875 L49.05,35.7875 L49.05,37.5875 L47.25,37.5875 L47.25,35.7875 Z M39.05,21.4375 L38.95,21.4875 C36.85,23.0875 33.6,23.9875 30.25,23.9875 C26.9,23.9875 23.65,23.0375 21.55,21.4875 L21.45,21.4375 L21.45,17.9875 L30.05,20.7375 C30.15,20.7875 30.25,20.7875 30.35,20.7375 L38.95,17.9875 L38.95,21.4375 L39.05,21.4375 Z M16.2,15.1875 L30.3,10.0375 L44.4,15.1875 L30.3,19.6875 L16.2,15.1875 Z M21.55,24.5375 L21.55,22.7375 L21.85,22.8875 C24.45,24.3375 27.35,25.0875 30.35,25.0375 C33.3,25.0875 36.25,24.3375 38.85,22.8875 L39.15,22.7375 L39.15,24.5375 C39.15,27.0375 38.05,29.4375 36.2,31.0875 L36.15,31.1375 C36.15,31.1375 36.1,31.1875 36.05,31.1875 L24.65,31.1875 L24.6,31.1375 C24.45,31.0375 24.3,30.8875 24.2,30.7375 L23.85,30.3875 L23.85,30.3875 C22.35,28.7875 21.5,26.6875 21.55,24.5375 Z M11.5,35.7875 L13.3,35.7875 L13.3,37.5875 L11.5,37.5875 L11.5,35.7875 Z M11,46.8875 C10.5,46.8875 10.1,46.4875 10.1,45.9875 L10.1,39.5375 C10.1,39.0375 10.5,38.6375 11,38.6375 L15.8,38.6375 C16,38.6375 16.2,38.8375 16.2,39.0375 L16.2,43.9375 C16.2,44.5375 15.85,45.0875 15.3,45.3875 L15.05,45.5375 C14.9,45.6375 14.75,45.7875 14.75,45.9875 L14.75,46.6375 C14.75,46.7875 14.65,46.8875 14.5,46.8875 L11,46.8875 L11,46.8875 Z M28.35,50.4375 L14.6,50.4375 C14.5,50.4375 14.4,50.3375 14.4,50.2375 L14.4,47.9375 L15.3,47.9375 C15.6,47.9375 15.8,47.6875 15.8,47.4375 L15.8,46.3375 L15.9,46.2875 C16.75,45.8375 17.25,44.9375 17.25,43.9875 L17.25,38.1375 C17.25,37.8375 17,37.6375 16.75,37.6375 L14.6,37.6375 C14.5,37.6375 14.45,37.5375 14.45,37.4875 L14.45,32.6375 C14.45,32.4375 14.6,32.2875 14.8,32.2875 L28.4,32.2875 L28.4,50.4375 L28.35,50.4375 Z M31.2,50.4375 L29.4,50.4375 L29.4,32.1875 L31.2,32.1875 L31.2,50.4375 Z M45.9,50.4375 L32.25,50.4375 L32.25,32.1875 L45.9,32.1875 C46.05,32.1875 46.2,32.3375 46.2,32.4875 L46.2,37.5875 L43.85,37.5875 C43.55,37.5875 43.35,37.8375 43.35,38.0875 L43.35,43.9375 C43.35,44.8875 43.85,45.7875 44.7,46.2375 L44.8,46.2875 L44.8,47.3875 C44.8,47.6875 45.05,47.8875 45.3,47.8875 L46.2,47.8875 L46.2,50.1375 C46.2,50.3375 46.05,50.4375 45.9,50.4375 Z M50.5,45.9875 C50.5,46.4875 50.1,46.8875 49.6,46.8875 L46.2,46.8875 C46,46.8875 45.85,46.7375 45.85,46.5375 L45.85,46.0875 C45.85,45.8375 45.7,45.6375 45.5,45.5375 L45.3,45.4375 C44.75,45.1875 44.4,44.5875 44.4,43.9875 L44.4,39.0375 C44.4,38.8375 44.55,38.6875 44.75,38.6875 L49.6,38.6875 C50.1,38.6875 50.5,39.0875 50.5,39.5875 L50.5,45.9875 Z" id="Shape" fill="#FFFFFF" fill-rule="nonzero"></path>
    </g>
</svg>