<?xml version="1.0" encoding="UTF-8"?>
<svg width="60px" height="60px" viewBox="0 0 60 60" version="1.1" xmlns="http://www.w3.org/2000/svg" xmlns:xlink="http://www.w3.org/1999/xlink">
    <title>Ethnische_Herkunkt</title>
    <g id="Ethnische_Herkunkt" stroke="none" stroke-width="1" fill="none" fill-rule="evenodd">
        <g id="Group" transform="translate(11.000000, 12.000000)" fill="#000000" fill-rule="nonzero">
            <path d="M4.4,5.6 C3.7,7.55 4.45,9.95 6.2,11.3 C7.9,12.65 10.35,12.7 12.15,11.45 C12.65,11.15 13.05,10.7 13.35,10.35 L13.5,10.15 L13.65,10.3 C14.85,11.5 16.55,12.2 18.25,12.15 C19.75,12.1 21.25,11.45 22.3,10.3 L22.45,10.15 L22.6,10.35 C22.9,10.7 23.2,11.05 23.55,11.35 C25.25,12.7 27.7,12.75 29.5,11.5 C31.3,10.25 32.1,8 31.5,5.85 C30.9,3.75 28.95,2.25 26.7,2.15 L26.6,2.15 L26.6,2.15 L26.5,2.15 L26.5,2.15 L26.5,2.15 C25.4,2.25 24.35,2.6 23.45,3.3 L23.25,3.45 L23,3 C21.95,1.3 20.05,0.2 18,0.15 L17.95,0.15 L17.9,0.15 L17.8,0.15 C15.7,0.25 13.75,1.4 12.65,3.15 L12.55,3.35 L12.4,3.2 C11.45,2.5 10.4,2.15 9.3,2.1 L9.2,2.1 L9.05,2.1 C7,2.25 5.15,3.6 4.4,5.6 Z M22.75,4.7 C22.8,4.8 22.85,4.9 22.85,5 C23,5.65 23,6.25 22.95,6.8 C22.85,7.45 22.65,8.05 22.4,8.6 L21.9,9.35 C21.65,9.65 21.3,10 20.9,10.3 C20.05,10.9 19.05,11.2 18.05,11.2 C17.55,11.2 17.05,11.15 16.6,11 L16.3,10.9 L22.75,4.45 L22.75,4.7 Z M20.35,1.85 L20.5,1.95 C21.1,2.3 21.65,2.8 22.1,3.5 L22.2,3.65 L15.3,10.55 L15.15,10.5 C15.05,10.45 14.25,9.8 14,9.45 C13.85,9.3 13.7,9.05 13.55,8.85 L13.45,8.7 L20.35,1.85 Z M13.1,5.05 L13.1,4.95 C13.15,4.8 13.2,4.6 13.25,4.45 C13.25,4.4 13.3,4.35 13.3,4.3 C13.3,4.25 13.35,4.2 13.35,4.15 C14.15,2.45 15.95,1.3 17.85,1.25 C17.85,1.25 17.85,1.25 17.85,1.25 C18.25,1.25 18.65,1.3 19,1.4 L19.35,1.5 L13.15,7.8 L13.05,7.4 C12.9,6.6 12.9,5.85 13.1,5.05 Z M8.75,3.3 C8.95,3.25 9.1,3.25 9.25,3.25 C10.3,3.25 11.3,3.65 12.1,4.4 L12.2,4.5 L12.15,4.6 C11.7,6.15 11.9,7.85 12.7,9.3 L12.75,9.4 L12.7,9.5 C12,10.6 10.85,11.3 9.5,11.45 C9.4,11.45 9.3,11.45 9.2,11.45 C7.15,11.45 5.4,9.85 5.15,7.75 C4.95,5.6 6.5,3.7 8.75,3.3 Z" id="Shape"></path>
            <path d="M30.35,15.15 C29.2,14.3 27.8,13.85 26.5,13.9 C25.35,13.9 24.1,14.35 22.8,15.25 C22.75,15.3 22.65,15.35 22.6,15.4 C22.5,15.45 22.45,15.5 22.4,15.55 L22.3,15.6 L22.2,15.55 C21.5,15.1 20.7,14.7 19.95,14.5 C19.2,14.25 18.45,14.15 17.6,14.2 C16.35,14.3 15.1,14.8 13.85,15.6 L13.75,15.7 L13.65,15.6 C13.55,15.55 13.45,15.45 13.35,15.4 C13.25,15.35 13.15,15.25 13.1,15.2 C11.95,14.35 10.55,13.9 9.25,13.95 C8.1,13.95 6.85,14.4 5.55,15.3 C4,16.35 2.7,17.9 1.7,19.8 C0.6,22 0.05,24.5 0.1,27.05 C0.2,29.6 2.7,30.7 4.85,31.2 C5.65,31.35 6.55,31.5 7.45,31.55 L7.55,31.55 L7.6,31.65 C8.3,32.95 9.85,33.9 12.15,34.5 C13,34.7 14,34.85 15.05,35 C16.3,35.1 17.55,35.15 18.8,35.2 C18.95,35.2 19.15,35.2 19.3,35.2 C19.45,35.2 19.65,35.2 19.8,35.2 C21.6,35.1 23.35,34.85 24.9,34.4 C26,34.1 26.95,33.6 27.75,33 C28.15,32.7 28.45,32.15 28.65,31.7 L28.7,31.6 L28.95,31.6 C31.15,31.4 33.4,31 35.05,29.65 C35.45,29.35 35.75,28.6 35.85,28.35 C36.05,27.9 36.15,27.45 36.15,27.05 L36.15,26.9 C36.15,24.35 35.6,21.95 34.5,19.8 C33.4,17.9 32.05,16.4 30.35,15.15 Z M13.55,16.9 C13.65,16.85 13.75,16.75 13.85,16.7 C13.95,16.6 14.05,16.55 14.15,16.5 C14.3,16.4 14.55,16.25 14.75,16.1 C15.15,15.85 15.65,15.65 16.15,15.45 C16.95,15.2 17.75,15.15 18.45,15.15 L18.95,15.15 L8.4,25.7 L8.6,25 C9.4,21.6 11.15,18.75 13.55,16.9 Z M7.25,26.35 C7.25,26.45 7.2,26.5 7.2,26.6 C7.2,26.7 7.2,26.75 7.15,26.85 C7,27.9 6.85,29.15 7.05,30.25 L7.1,30.5 L6.85,30.45 C6.65,30.45 6.45,30.4 6.25,30.35 C6.1,30.3 5.95,30.3 5.8,30.3 C4.6,30.1 3.65,29.8 2.85,29.45 C2.25,29.15 1.8,28.75 1.45,28.3 C1.05,27.7 1.05,27 1.05,26.35 C1.15,23.75 1.85,21.35 3.05,19.35 C4,17.85 5.25,16.55 6.7,15.7 C7.85,15.05 8.95,14.8 10,14.95 C10.9,15.05 11.8,15.45 12.65,16.1 L12.85,16.25 L12.65,16.4 C12.3,16.75 11.9,17.05 11.55,17.4 C10.1,18.9 8.95,20.75 8.2,22.85 C7.8,23.9 7.5,25.05 7.25,26.35 Z M8.3,30.75 L8.2,30.45 C8.1,30.25 8.05,29.95 8,29.7 C7.85,28.85 8.05,28.15 8.15,27.35 L8.15,27.3 L8.2,27.25 C10.7,24.7 19.7,15.7 19.8,15.65 L19.9,15.55 L20,15.6 C20.4,15.75 20.85,15.95 21.3,16.2 L21.95,16.6 L22.2,16.8 L22.05,16.95 C21.95,17.05 10,29 8.55,30.55 L8.3,30.75 Z M10.9,33.05 L10.75,33 C10.55,32.9 10.35,32.85 10.15,32.75 C9.75,32.55 9.35,32.3 9.05,31.95 C9.05,31.95 9,31.9 9,31.9 C8.95,31.85 8.85,31.8 8.8,31.7 L8.75,31.55 L22.95,17.35 L23.15,17.55 C23.75,18.1 24.2,18.6 24.6,19.05 L24.7,19.2 L24.55,19.35 C22.55,21.3 11.25,32.6 10.95,32.95 L10.9,33.05 Z M14.8,33.95 L14.55,33.9 C13.75,33.8 12.9,33.65 12.15,33.45 L11.8,33.35 L12.05,33.1 C12.7,32.45 23.85,21.3 25.1,20.05 L25.25,19.9 L25.4,20.1 C25.85,20.8 26.2,21.45 26.5,22.05 L26.55,22.2 L14.8,33.95 Z M19.55,34.1 L19.45,34.1 C19.15,34.1 18.85,34.1 18.55,34.1 C17.85,34.1 17.2,34.05 16.5,34.05 L16,34.05 L26.95,23.15 L27.05,23.45 C27.3,24.2 27.5,25 27.7,25.85 L27.7,25.95 L19.55,34.1 Z M27.9,30.4 C27.8,30.65 27.75,30.95 27.6,31.15 L27.5,31.4 C27.4,31.6 27.3,31.75 27.15,31.9 L26.9,32.15 C26.65,32.35 26.4,32.5 26.15,32.65 L25.95,32.75 C25.1,33.2 24.1,33.45 23.15,33.65 L23.05,33.65 L21,34 L21.4,33.55 C21.75,33.2 23.05,31.9 24.4,30.5 C25.75,29.15 27.1,27.8 27.6,27.3 L27.9,27 L27.95,27.4 C28.05,28.1 28.1,28.75 28.1,29.45 C28.05,29.85 28,30.15 27.9,30.4 Z" id="Shape"></path>
        </g>
    </g>
</svg>