<?xml version="1.0" encoding="UTF-8"?>
<svg width="60px" height="60px" viewBox="0 0 60 60" version="1.1" xmlns="http://www.w3.org/2000/svg" xmlns:xlink="http://www.w3.org/1999/xlink">
    <title>Ethnische_Herkunkt_hover</title>
    <g id="Ethnische_Herkunkt_hover" stroke="none" stroke-width="1" fill="none" fill-rule="evenodd">
        <path d="M15.4,17.6 C14.7,19.55 15.45,21.95 17.2,23.3 C18.9,24.65 21.35,24.7 23.15,23.45 C23.65,23.15 24.05,22.7 24.35,22.35 L24.5,22.15 L24.65,22.3 C25.85,23.5 27.55,24.2 29.25,24.15 C30.75,24.1 32.25,23.45 33.3,22.3 L33.45,22.15 L33.6,22.35 C33.9,22.7 34.2,23.05 34.55,23.35 C36.25,24.7 38.7,24.75 40.5,23.5 C42.3,22.25 43.1,20 42.5,17.85 C41.9,15.75 39.95,14.25 37.7,14.15 L37.6,14.15 L37.6,14.15 L37.5,14.15 L37.5,14.15 L37.5,14.15 C36.4,14.25 35.35,14.6 34.45,15.3 L34.25,15.45 L34,15 C32.95,13.3 31.05,12.2 29,12.15 L28.95,12.15 L28.9,12.15 L28.8,12.15 C26.7,12.25 24.75,13.4 23.65,15.15 L23.55,15.35 L23.4,15.2 C22.45,14.5 21.4,14.15 20.3,14.1 L20.2,14.1 L20.05,14.1 C18,14.25 16.15,15.6 15.4,17.6 Z M33.75,16.7 C33.8,16.8 33.85,16.9 33.85,17 C34,17.65 34,18.25 33.95,18.8 C33.85,19.45 33.65,20.05 33.4,20.6 L32.9,21.35 C32.65,21.65 32.3,22 31.9,22.3 C31.05,22.9 30.05,23.2 29.05,23.2 C28.55,23.2 28.05,23.15 27.6,23 L27.3,22.9 L33.75,16.45 L33.75,16.7 Z M31.35,13.85 L31.5,13.95 C32.1,14.3 32.65,14.8 33.1,15.5 L33.2,15.65 L26.3,22.55 L26.15,22.5 C26.05,22.45 25.25,21.8 25,21.45 C24.85,21.3 24.7,21.05 24.55,20.85 L24.45,20.7 L31.35,13.85 Z M24.1,17.05 L24.1,16.95 C24.15,16.8 24.2,16.6 24.25,16.45 C24.25,16.4 24.3,16.35 24.3,16.3 C24.3,16.25 24.35,16.2 24.35,16.15 C25.15,14.45 26.95,13.3 28.85,13.25 C28.85,13.25 28.85,13.25 28.85,13.25 C29.25,13.25 29.65,13.3 30,13.4 L30.35,13.5 L24.15,19.8 L24.05,19.4 C23.9,18.6 23.9,17.85 24.1,17.05 Z M19.75,15.3 C19.95,15.25 20.1,15.25 20.25,15.25 C21.3,15.25 22.3,15.65 23.1,16.4 L23.2,16.5 L23.15,16.6 C22.7,18.15 22.9,19.85 23.7,21.3 L23.75,21.4 L23.7,21.5 C23,22.6 21.85,23.3 20.5,23.45 C20.4,23.45 20.3,23.45 20.2,23.45 C18.15,23.45 16.4,21.85 16.15,19.75 C15.95,17.6 17.5,15.7 19.75,15.3 Z" id="Shape" fill="#FFFFFF" fill-rule="nonzero"></path>
        <path d="M41.35,27.15 C40.2,26.3 38.8,25.85 37.5,25.9 C36.35,25.9 35.1,26.35 33.8,27.25 C33.75,27.3 33.65,27.35 33.6,27.4 C33.5,27.45 33.45,27.5 33.4,27.55 L33.3,27.6 L33.2,27.55 C32.5,27.1 31.7,26.7 30.95,26.5 C30.2,26.25 29.45,26.15 28.6,26.2 C27.35,26.3 26.1,26.8 24.85,27.6 L24.75,27.7 L24.65,27.6 C24.55,27.55 24.45,27.45 24.35,27.4 C24.25,27.35 24.15,27.25 24.1,27.2 C22.95,26.35 21.55,25.9 20.25,25.95 C19.1,25.95 17.85,26.4 16.55,27.3 C15,28.35 13.7,29.9 12.7,31.8 C11.6,34 11.05,36.5 11.1,39.05 C11.2,41.6 13.7,42.7 15.85,43.2 C16.65,43.35 17.55,43.5 18.45,43.55 L18.55,43.55 L18.6,43.65 C19.3,44.95 20.85,45.9 23.15,46.5 C24,46.7 25,46.85 26.05,47 C27.3,47.1 28.55,47.15 29.8,47.2 C29.95,47.2 30.15,47.2 30.3,47.2 C30.45,47.2 30.65,47.2 30.8,47.2 C32.6,47.1 34.35,46.85 35.9,46.4 C37,46.1 37.95,45.6 38.75,45 C39.15,44.7 39.45,44.15 39.65,43.7 L39.7,43.6 L39.95,43.6 C42.15,43.4 44.4,43 46.05,41.65 C46.45,41.35 46.75,40.6 46.85,40.35 C47.05,39.9 47.15,39.45 47.15,39.05 L47.15,38.9 C47.15,36.35 46.6,33.95 45.5,31.8 C44.4,29.9 43.05,28.4 41.35,27.15 Z M24.55,28.9 C24.65,28.85 24.75,28.75 24.85,28.7 C24.95,28.6 25.05,28.55 25.15,28.5 C25.3,28.4 25.55,28.25 25.75,28.1 C26.15,27.85 26.65,27.65 27.15,27.45 C27.95,27.2 28.75,27.15 29.45,27.15 L29.95,27.15 L19.4,37.7 L19.6,37 C20.4,33.6 22.15,30.75 24.55,28.9 Z M18.25,38.35 C18.25,38.45 18.2,38.5 18.2,38.6 C18.2,38.7 18.2,38.75 18.15,38.85 C18,39.9 17.85,41.15 18.05,42.25 L18.1,42.5 L17.85,42.45 C17.65,42.45 17.45,42.4 17.25,42.35 C17.1,42.3 16.95,42.3 16.8,42.3 C15.6,42.1 14.65,41.8 13.85,41.45 C13.25,41.15 12.8,40.75 12.45,40.3 C12.05,39.7 12.05,39 12.05,38.35 C12.15,35.75 12.85,33.35 14.05,31.35 C15,29.85 16.25,28.55 17.7,27.7 C18.85,27.05 19.95,26.8 21,26.95 C21.9,27.05 22.8,27.45 23.65,28.1 L23.85,28.25 L23.65,28.4 C23.3,28.75 22.9,29.05 22.55,29.4 C21.1,30.9 19.95,32.75 19.2,34.85 C18.8,35.9 18.5,37.05 18.25,38.35 Z M19.3,42.75 L19.2,42.45 C19.1,42.25 19.05,41.95 19,41.7 C18.85,40.85 19.05,40.15 19.15,39.35 L19.15,39.3 L19.2,39.25 C21.7,36.7 30.7,27.7 30.8,27.65 L30.9,27.55 L31,27.6 C31.4,27.75 31.85,27.95 32.3,28.2 L32.95,28.6 L33.2,28.8 L33.05,28.95 C32.95,29.05 21,41 19.55,42.55 L19.3,42.75 Z M21.9,45.05 L21.75,45 C21.55,44.9 21.35,44.85 21.15,44.75 C20.75,44.55 20.35,44.3 20.05,43.95 C20.05,43.95 20,43.9 20,43.9 C19.95,43.85 19.85,43.8 19.8,43.7 L19.75,43.55 L33.95,29.35 L34.15,29.55 C34.75,30.1 35.2,30.6 35.6,31.05 L35.7,31.2 L35.55,31.35 C33.55,33.3 22.25,44.6 21.95,44.95 L21.9,45.05 Z M25.8,45.95 L25.55,45.9 C24.75,45.8 23.9,45.65 23.15,45.45 L22.8,45.35 L23.05,45.1 C23.7,44.45 34.85,33.3 36.1,32.05 L36.25,31.9 L36.4,32.1 C36.85,32.8 37.2,33.45 37.5,34.05 L37.55,34.2 L25.8,45.95 Z M30.55,46.1 L30.45,46.1 C30.15,46.1 29.85,46.1 29.55,46.1 C28.85,46.1 28.2,46.05 27.5,46.05 L27,46.05 L37.95,35.15 L38.05,35.45 C38.3,36.2 38.5,37 38.7,37.85 L38.7,37.95 L30.55,46.1 Z M38.9,42.4 C38.8,42.65 38.75,42.95 38.6,43.15 L38.5,43.4 C38.4,43.6 38.3,43.75 38.15,43.9 L37.9,44.15 C37.65,44.35 37.4,44.5 37.15,44.65 L36.95,44.75 C36.1,45.2 35.1,45.45 34.15,45.65 L34.05,45.65 L32,46 L32.4,45.55 C32.75,45.2 34.05,43.9 35.4,42.5 C36.75,41.15 38.1,39.8 38.6,39.3 L38.9,39 L38.95,39.4 C39.05,40.1 39.1,40.75 39.1,41.45 C39.05,41.85 39,42.15 38.9,42.4 Z" id="Shape" fill="#FFFFFF" fill-rule="nonzero"></path>
    </g>
</svg>