<?xml version="1.0" encoding="UTF-8"?>
<svg width="60px" height="61px" viewBox="0 0 60 61" version="1.1" xmlns="http://www.w3.org/2000/svg" xmlns:xlink="http://www.w3.org/1999/xlink">
    <title>Freizeit_hover</title>
    <g id="Freizeit_hover" stroke="none" stroke-width="1" fill="none" fill-rule="evenodd" transform="translate(0.000000, 1.000000)">
        <path d="M39.18,30.365 L38.96,30.145 L41.155,27.95 L41.815,28.61 C42.0269274,28.8100104 42.3580726,28.8100104 42.57,28.61 C42.6710772,28.510392 42.7279869,28.3744097 42.7279869,28.2325 C42.7279869,28.0905903 42.6710772,27.954608 42.57,27.855 L41.91,27.195 L44.105,25 L44.66,25.55 C44.8719274,25.7500104 45.2030726,25.7500104 45.415,25.55 C45.6201645,25.3401471 45.6201645,25.0048529 45.415,24.795 L44.86,24.24 L45.575,23.53 C45.6760772,23.430392 45.7329869,23.2944097 45.7329869,23.1525 C45.7329869,23.0105903 45.6760772,22.874608 45.575,22.775 C45.3651471,22.5698355 45.0298529,22.5698355 44.82,22.775 L44.105,23.5 L42.025,21.42 L44.175,19.275 L44.825,19.925 C45.0359125,20.1275484 45.3690875,20.1275484 45.58,19.925 C45.7878633,19.7162543 45.7878633,19.3787457 45.58,19.17 L44.93,18.5 L45.43,18 C45.6378633,17.7912543 45.6378633,17.4537457 45.43,17.245 C45.2184508,17.03923 44.8815492,17.03923 44.67,17.245 L44.17,17.745 L42.09,15.665 L42.59,15.165 C42.7399209,15.0334385 42.8042063,14.8294007 42.7567767,14.6356608 C42.7093471,14.441921 42.558079,14.2906529 42.3643392,14.2432233 C42.1705993,14.1957937 41.9665615,14.2600791 41.835,14.41 L41.335,14.91 L40.685,14.26 C40.5623182,14.0882996 40.3501674,14.0047562 40.1433528,14.0467034 C39.9365381,14.0886507 39.7737029,14.2482507 39.7276144,14.454182 C39.6815259,14.6601134 39.7607957,14.8738978 39.93,15 L40.58,15.65 L38.435,17.795 L36.355,15.715 L37.07,15 C37.2778633,14.7912543 37.2778633,14.4537457 37.07,14.245 C36.8564008,14.0443412 36.5235992,14.0443412 36.31,14.245 L35.6,15 L35.05,14.45 C34.8401471,14.2448355 34.5048529,14.2448355 34.295,14.45 C34.1939228,14.549608 34.1370131,14.6855903 34.1370131,14.8275 C34.1370131,14.9694097 34.1939228,15.105392 34.295,15.205 L34.845,15.755 L32.65,17.93 L31.575,16.855 C31.4392391,16.7201322 31.2418397,16.6679369 31.0571603,16.7180754 C30.872481,16.7682139 30.7285788,16.9130691 30.6796603,17.0980754 C30.6307419,17.2830817 30.6842391,17.4801322 30.82,17.615 L31.89,18.685 L29.695,20.88 L29.145,20.33 C28.991475,20.1791189 28.7624763,20.1349423 28.5638433,20.2178879 C28.3652103,20.3008335 28.2356331,20.4947452 28.235,20.71 C28.2348762,20.8506121 28.2906341,20.9855103 28.39,21.085 L28.94,21.635 L28.23,22.35 C28.1276508,22.4489207 28.0698544,22.58516 28.0698544,22.7275 C28.0698544,22.86984 28.1276508,23.0060793 28.23,23.105 C28.4398529,23.3101645 28.7751471,23.3101645 28.985,23.105 L29.695,22.395 L31.775,24.5 L29.63,26.645 L29,25.97 C28.7901471,25.7648355 28.4548529,25.7648355 28.245,25.97 C28.0371367,26.1787457 28.0371367,26.5162543 28.245,26.725 L28.895,27.375 L28.395,27.875 C28.2939228,27.974608 28.2370131,28.1105903 28.2370131,28.2525 C28.2370131,28.3944097 28.2939228,28.530392 28.395,28.63 C28.6069274,28.8300104 28.9380726,28.8300104 29.15,28.63 L29.65,28.13 L31.73,30.21 L31.23,30.71 C31.0221367,30.9187457 31.0221367,31.2562543 31.23,31.465 C31.4398529,31.6701645 31.7751471,31.6701645 31.985,31.465 L32.485,30.965 L33.135,31.615 C33.3448529,31.8201645 33.6801471,31.8201645 33.89,31.615 C33.9910772,31.515392 34.0479869,31.3794097 34.0479869,31.2375 C34.0479869,31.0955903 33.9910772,30.959608 33.89,30.86 L33.24,30.21 L35.39,28.065 L37.47,30.145 L36.755,30.86 C36.5471367,31.0687457 36.5471367,31.4062543 36.755,31.615 C36.9669274,31.8150104 37.2980726,31.8150104 37.51,31.615 L38.225,30.9 L38.445,31.12 C38.6548529,31.3251645 38.9901471,31.3251645 39.2,31.12 C39.2984858,31.0177382 39.3518255,30.8802382 39.3480659,30.7383128 C39.3443063,30.5963875 39.2837618,30.4619043 39.18,30.365 L39.18,30.365 Z M43.35,24.24 L41.155,26.435 L39.075,24.36 L41.27,22.16 L43.35,24.24 Z M41.35,16.425 L43.415,18.5 L41.27,20.65 L39.19,18.57 L41.35,16.425 Z M40.5,21.405 L38.32,23.6 L36.24,21.5 L38.435,19.305 L40.5,21.405 Z M35.6,16.5 L37.68,18.58 L35.5,20.765 L33.42,18.685 L35.6,16.5 Z M30.455,21.635 L32.65,19.44 L34.73,21.5 L32.53,23.695 L30.455,21.635 Z M32.455,29.455 L30.375,27.375 L32.52,25.23 L34.6,27.31 L32.455,29.455 Z M35.36,26.555 L33.29,24.5 L35.5,22.28 L37.58,24.36 L35.36,26.555 Z M38.195,29.39 L36.115,27.31 L38.31,25.115 L40.39,27.195 L38.195,29.39 Z" id="Shape" fill="#FFFFFF" fill-rule="nonzero"></path>
        <path d="M38.285,34.22 C38.2462618,34.0834996 38.1544081,33.9682322 38.03,33.9 C37.9065693,33.8315137 37.761381,33.8135892 37.625,33.85 L37.625,33.85 C36.5870284,34.145945 35.5142626,34.3023199 34.435,34.315 C34.16,34.315 33.89,34.315 33.64,34.29 L33.555,34.29 C33.2952002,34.2717304 33.0365206,34.2400213 32.78,34.195 C32.685,34.195 32.59,34.165 32.49,34.145 C32.31,34.115 32.13,34.075 31.95,34.03 L31.865,34.03 L31.7,33.99 C31.475,33.925 31.25,33.855 31.015,33.765 L30.805,33.685 L30.745,33.685 C30.585,33.62 30.425,33.55 30.245,33.475 L30.175,33.445 L30.01,33.36 C29.775,33.24 29.565,33.125 29.37,33 L29.275,32.935 L29.215,32.895 C29.045,32.78 28.88,32.66 28.715,32.54 L28.685,32.54 L28.54,32.425 C28.31,32.235 28.13,32.07 27.97,31.925 C27.7475399,31.7011532 27.5388253,31.4640535 27.345,31.215 C27.285,31.14 27.23,31.06 27.175,30.98 L27.105,30.885 C27.005,30.745 26.91,30.605 26.82,30.46 C26.73,30.315 26.65,30.17 26.57,30.02 C26.49,29.87 26.44,29.775 26.38,29.65 C26.32,29.525 26.23,29.32 26.16,29.15 C26.09,28.98 26.07,28.91 26.03,28.79 C25.99,28.67 25.905,28.435 25.855,28.255 C25.805,28.075 25.8,28.035 25.775,27.925 L25.745,27.8 C25.71,27.645 25.67,27.49 25.645,27.33 C25.62,27.17 25.61,27.09 25.595,26.97 L25.56,26.71 C25.56,26.595 25.53,26.48 25.52,26.365 C25.25,22.765 26.84,18.865 29.77,15.93 C34.715,10.935 41.89,10.13 45.8,14.04 C49.1,17.34 49.085,23.18 45.77,27.925 C45.6003155,28.1666565 45.6584992,28.5000939 45.9,28.67 C46.0143374,28.7558008 46.1599316,28.7885595 46.3,28.76 C46.439608,28.7352778 46.5636941,28.6561505 46.645,28.54 C50.26,23.365 50.22,16.95 46.555,13.285 C44.6564827,11.4406378 42.0961436,10.4370426 39.45,10.5 C35.905,10.5 32.07,12.065 29.05,15.085 C26.324106,17.7265976 24.6895501,21.2954969 24.47,25.085 L24.47,25.12 C24.4664444,25.1482218 24.4664444,25.1767782 24.47,25.205 C23.82,30.885 18.865,37.24 18.305,37.945 L10.745,45.5 C9.7508875,46.4913511 9.74864895,48.1008874 10.7400001,49.0949999 C11.7313512,50.0891125 13.3408874,50.0913511 14.335,49.1 L21.86,41.575 C22.15,41.34 28.815,36.075 34.61,35.395 L34.65,35.395 L34.705,35.395 C35.7916542,35.3627405 36.8700144,35.1947717 37.915,34.895 C38.0550235,34.8567835 38.17351,34.7633148 38.2432771,34.6360371 C38.3130442,34.5087593 38.3281034,34.3585972 38.285,34.22 Z M13.58,48.345 C13.3014802,48.6160448 12.9286335,48.76841 12.54,48.7700358 C12.1505219,48.7727261 11.7760999,48.6197171 11.5,48.345 C10.9380195,47.7636051 10.9380195,46.8413949 11.5,46.26 L18.67,39.09 L20.75,41.17 L13.58,48.345 Z M31.08,35.135 C26.9,36.555 23.08,39.28 21.635,40.39 L21.55,40.455 L19.385,38.29 L19.455,38.205 C20.56,36.755 23.285,32.94 24.71,28.76 L24.83,28.405 L24.945,28.76 C25.3911005,30.2051438 26.1802146,31.5209058 27.245,32.595 C27.435,32.78 27.645,32.97 27.89,33.175 L28.015,33.275 C28.215,33.435 28.435,33.595 28.67,33.775 L28.795,33.855 L28.835,33.88 C29.085,34.035 29.31,34.17 29.53,34.28 L29.615,34.325 L29.68,34.355 C29.895,34.46 30.12,34.56 30.345,34.65 L30.41,34.68 L30.5,34.715 C30.69,34.79 30.885,34.86 31.08,34.92 L31.445,35.035 L31.08,35.135 Z" id="Shape" fill="#FFFFFF" fill-rule="nonzero"></path>
        <path d="M49.925,33.68 L49.925,33.68 C49.5764175,31.4278051 47.8585574,29.6329347 45.6238032,29.1859838 C43.389049,28.739033 41.1129972,29.7351211 39.925,31.68 C39.9012528,31.7136685 39.8795471,31.7487315 39.86,31.785 C38.6154662,33.8569191 38.8827101,36.5007656 40.5166978,38.2817196 C42.1506855,40.0626736 44.7617968,40.556071 46.9329773,39.4941443 C49.1041578,38.4322176 50.3176949,36.0681806 49.915,33.685 L49.925,33.68 Z M48.17,37 C47.0923328,38.5948575 45.0988996,39.2980276 43.2590964,38.7322881 C41.4192932,38.1665487 40.1653677,36.4648157 40.1699872,34.54 C40.1692042,33.8963996 40.3127244,33.2608101 40.59,32.68 L40.635,32.58 L40.74,32.61 C41.7172363,32.9167514 42.463872,33.7107625 42.71,34.705 C43.2816091,36.3112333 44.8426956,37.3492438 46.545,37.255 C47.0555523,37.2284391 47.5525079,37.0810661 47.995,36.825 L48.5,36.55 L48.17,37 Z M48.85,33.765 C48.505,35.265 47.67,36.125 46.5,36.19 L46.365,36.19 C45.1993432,36.1760244 44.1588219,35.4559678 43.735,34.37 C43.4184357,33.1806292 42.5719551,32.2032116 41.44,31.72 L41.27,31.65 L41.395,31.515 C42.5246408,30.3302481 44.2216918,29.8761927 45.7920261,30.3385514 C47.3623604,30.80091 48.5425985,32.1021351 48.85,33.71 L48.85,33.765 Z" id="Shape" fill="#FFFFFF" fill-rule="nonzero"></path>
    </g>
</svg>