<?xml version="1.0" encoding="UTF-8"?>
<svg width="60px" height="61px" viewBox="0 0 60 61" version="1.1" xmlns="http://www.w3.org/2000/svg" xmlns:xlink="http://www.w3.org/1999/xlink">
    <title>Freizeit</title>
    <g id="Freizeit" stroke="none" stroke-width="1" fill="none" fill-rule="evenodd" transform="translate(0.000000, 1.000000)">
        <g id="Öffentlichkeit-und-Freizeit" transform="translate(10.000000, 10.000000)" fill="#000000" fill-rule="nonzero">
            <path d="M29.18,20.365 L28.96,20.145 L31.155,17.95 L31.815,18.61 C32.0269274,18.8100104 32.3580726,18.8100104 32.57,18.61 C32.6710772,18.510392 32.7279869,18.3744097 32.7279869,18.2325 C32.7279869,18.0905903 32.6710772,17.954608 32.57,17.855 L31.91,17.195 L34.105,15 L34.66,15.55 C34.8719274,15.7500104 35.2030726,15.7500104 35.415,15.55 C35.6201645,15.3401471 35.6201645,15.0048529 35.415,14.795 L34.86,14.24 L35.575,13.53 C35.6760772,13.430392 35.7329869,13.2944097 35.7329869,13.1525 C35.7329869,13.0105903 35.6760772,12.874608 35.575,12.775 C35.3651471,12.5698355 35.0298529,12.5698355 34.82,12.775 L34.105,13.5 L32.025,11.42 L34.175,9.275 L34.825,9.925 C35.0359125,10.1275484 35.3690875,10.1275484 35.58,9.925 C35.7878633,9.71625433 35.7878633,9.37874567 35.58,9.17 L34.93,8.5 L35.43,8 C35.6378633,7.79125433 35.6378633,7.45374567 35.43,7.245 C35.2184508,7.03923 34.8815492,7.03923 34.67,7.245 L34.17,7.745 L32.09,5.665 L32.59,5.165 C32.7399209,5.03343853 32.8042063,4.82940073 32.7567767,4.63566084 C32.7093471,4.44192095 32.558079,4.29065293 32.3643392,4.24322333 C32.1705993,4.19579372 31.9665615,4.26007905 31.835,4.41 L31.335,4.91 L30.685,4.26 C30.5623182,4.08829956 30.3501674,4.00475617 30.1433528,4.04670342 C29.9365381,4.08865066 29.7737029,4.24825071 29.7276144,4.45418203 C29.6815259,4.66011336 29.7607957,4.87389776 29.93,5 L30.58,5.65 L28.435,7.795 L26.355,5.715 L27.07,5 C27.2778633,4.79125433 27.2778633,4.45374567 27.07,4.245 C26.8564008,4.04434116 26.5235992,4.04434116 26.31,4.245 L25.6,5 L25.05,4.45 C24.8401471,4.24483546 24.5048529,4.24483546 24.295,4.45 C24.1939228,4.54960804 24.1370131,4.68559031 24.1370131,4.8275 C24.1370131,4.96940969 24.1939228,5.10539196 24.295,5.205 L24.845,5.755 L22.65,7.93 L21.575,6.855 C21.4392391,6.72013223 21.2418397,6.66793686 21.0571603,6.71807538 C20.872481,6.76821391 20.7285788,6.9130691 20.6796603,7.0980754 C20.6307419,7.2830817 20.6842391,7.48013224 20.82,7.615 L21.89,8.685 L19.695,10.88 L19.145,10.33 C18.991475,10.1791189 18.7624763,10.1349423 18.5638433,10.2178879 C18.3652103,10.3008335 18.2356331,10.4947452 18.235,10.71 C18.2348762,10.8506121 18.2906341,10.9855103 18.39,11.085 L18.94,11.635 L18.23,12.35 C18.1276508,12.4489207 18.0698544,12.58516 18.0698544,12.7275 C18.0698544,12.86984 18.1276508,13.0060793 18.23,13.105 C18.4398529,13.3101645 18.7751471,13.3101645 18.985,13.105 L19.695,12.395 L21.775,14.5 L19.63,16.645 L19,15.97 C18.7901471,15.7648355 18.4548529,15.7648355 18.245,15.97 C18.0371367,16.1787457 18.0371367,16.5162543 18.245,16.725 L18.895,17.375 L18.395,17.875 C18.2939228,17.974608 18.2370131,18.1105903 18.2370131,18.2525 C18.2370131,18.3944097 18.2939228,18.530392 18.395,18.63 C18.6069274,18.8300104 18.9380726,18.8300104 19.15,18.63 L19.65,18.13 L21.73,20.21 L21.23,20.71 C21.0221367,20.9187457 21.0221367,21.2562543 21.23,21.465 C21.4398529,21.6701645 21.7751471,21.6701645 21.985,21.465 L22.485,20.965 L23.135,21.615 C23.3448529,21.8201645 23.6801471,21.8201645 23.89,21.615 C23.9910772,21.515392 24.0479869,21.3794097 24.0479869,21.2375 C24.0479869,21.0955903 23.9910772,20.959608 23.89,20.86 L23.24,20.21 L25.39,18.065 L27.47,20.145 L26.755,20.86 C26.5471367,21.0687457 26.5471367,21.4062543 26.755,21.615 C26.9669274,21.8150104 27.2980726,21.8150104 27.51,21.615 L28.225,20.9 L28.445,21.12 C28.6548529,21.3251645 28.9901471,21.3251645 29.2,21.12 C29.2984858,21.0177382 29.3518255,20.8802382 29.3480659,20.7383128 C29.3443063,20.5963875 29.2837618,20.4619043 29.18,20.365 L29.18,20.365 Z M33.35,14.24 L31.155,16.435 L29.075,14.36 L31.27,12.16 L33.35,14.24 Z M31.35,6.425 L33.415,8.5 L31.27,10.65 L29.19,8.57 L31.35,6.425 Z M30.5,11.405 L28.32,13.6 L26.24,11.5 L28.435,9.305 L30.5,11.405 Z M25.6,6.5 L27.68,8.58 L25.5,10.765 L23.42,8.685 L25.6,6.5 Z M20.455,11.635 L22.65,9.44 L24.73,11.5 L22.53,13.695 L20.455,11.635 Z M22.455,19.455 L20.375,17.375 L22.52,15.23 L24.6,17.31 L22.455,19.455 Z M25.36,16.555 L23.29,14.5 L25.5,12.28 L27.58,14.36 L25.36,16.555 Z M28.195,19.39 L26.115,17.31 L28.31,15.115 L30.39,17.195 L28.195,19.39 Z" id="Shape"></path>
            <path d="M28.285,24.22 C28.2462618,24.0834996 28.1544081,23.9682322 28.03,23.9 C27.9065693,23.8315137 27.761381,23.8135892 27.625,23.85 L27.625,23.85 C26.5870284,24.145945 25.5142626,24.3023199 24.435,24.315 C24.16,24.315 23.89,24.315 23.64,24.29 L23.555,24.29 C23.2952002,24.2717304 23.0365206,24.2400213 22.78,24.195 C22.685,24.195 22.59,24.165 22.49,24.145 C22.31,24.115 22.13,24.075 21.95,24.03 L21.865,24.03 L21.7,23.99 C21.475,23.925 21.25,23.855 21.015,23.765 L20.805,23.685 L20.745,23.685 C20.585,23.62 20.425,23.55 20.245,23.475 L20.175,23.445 L20.01,23.36 C19.775,23.24 19.565,23.125 19.37,23 L19.275,22.935 L19.215,22.895 C19.045,22.78 18.88,22.66 18.715,22.54 L18.685,22.54 L18.54,22.425 C18.31,22.235 18.13,22.07 17.97,21.925 C17.7475399,21.7011532 17.5388253,21.4640535 17.345,21.215 C17.285,21.14 17.23,21.06 17.175,20.98 L17.105,20.885 C17.005,20.745 16.91,20.605 16.82,20.46 C16.73,20.315 16.65,20.17 16.57,20.02 C16.49,19.87 16.44,19.775 16.38,19.65 C16.32,19.525 16.23,19.32 16.16,19.15 C16.09,18.98 16.07,18.91 16.03,18.79 C15.99,18.67 15.905,18.435 15.855,18.255 C15.805,18.075 15.8,18.035 15.775,17.925 L15.745,17.8 C15.71,17.645 15.67,17.49 15.645,17.33 C15.62,17.17 15.61,17.09 15.595,16.97 L15.56,16.71 C15.56,16.595 15.53,16.48 15.52,16.365 C15.25,12.765 16.84,8.865 19.77,5.93 C24.715,0.935 31.89,0.13 35.8,4.04 C39.1,7.34 39.085,13.18 35.77,17.925 C35.6003155,18.1666565 35.6584992,18.5000939 35.9,18.67 C36.0143374,18.7558008 36.1599316,18.7885595 36.3,18.76 C36.439608,18.7352778 36.5636941,18.6561505 36.645,18.54 C40.26,13.365 40.22,6.95 36.555,3.285 C34.6564827,1.44063783 32.0961436,0.437042585 29.45,0.5 C25.905,0.5 22.07,2.065 19.05,5.085 C16.324106,7.72659761 14.6895501,11.2954969 14.47,15.085 L14.47,15.12 C14.4664444,15.1482218 14.4664444,15.1767782 14.47,15.205 C13.82,20.885 8.865,27.24 8.305,27.945 L0.745,35.5 C-0.249112499,36.4913511 -0.251351051,38.1008874 0.740000054,39.0949999 C1.73135116,40.0891125 3.34088744,40.0913511 4.335,39.1 L11.86,31.575 C12.15,31.34 18.815,26.075 24.61,25.395 L24.65,25.395 L24.705,25.395 C25.7916542,25.3627405 26.8700144,25.1947717 27.915,24.895 C28.0550235,24.8567835 28.17351,24.7633148 28.2432771,24.6360371 C28.3130442,24.5087593 28.3281034,24.3585972 28.285,24.22 Z M3.58,38.345 C3.30148022,38.6160448 2.92863354,38.76841 2.54,38.7700358 C2.15052187,38.7727261 1.77609987,38.6197171 1.5,38.345 C0.938019471,37.7636051 0.938019471,36.8413949 1.5,36.26 L8.67,29.09 L10.75,31.17 L3.58,38.345 Z M21.08,25.135 C16.9,26.555 13.08,29.28 11.635,30.39 L11.55,30.455 L9.385,28.29 L9.455,28.205 C10.56,26.755 13.285,22.94 14.71,18.76 L14.83,18.405 L14.945,18.76 C15.3911005,20.2051438 16.1802146,21.5209058 17.245,22.595 C17.435,22.78 17.645,22.97 17.89,23.175 L18.015,23.275 C18.215,23.435 18.435,23.595 18.67,23.775 L18.795,23.855 L18.835,23.88 C19.085,24.035 19.31,24.17 19.53,24.28 L19.615,24.325 L19.68,24.355 C19.895,24.46 20.12,24.56 20.345,24.65 L20.41,24.68 L20.5,24.715 C20.69,24.79 20.885,24.86 21.08,24.92 L21.445,25.035 L21.08,25.135 Z" id="Shape"></path>
            <path d="M39.925,23.68 L39.925,23.68 C39.5764175,21.4278051 37.8585574,19.6329347 35.6238032,19.1859838 C33.389049,18.739033 31.1129972,19.7351211 29.925,21.68 C29.9012528,21.7136685 29.8795471,21.7487315 29.86,21.785 C28.6154662,23.8569191 28.8827101,26.5007656 30.5166978,28.2817196 C32.1506855,30.0626736 34.7617968,30.556071 36.9329773,29.4941443 C39.1041578,28.4322176 40.3176949,26.0681806 39.915,23.685 L39.925,23.68 Z M38.17,27 C37.0923328,28.5948575 35.0988996,29.2980276 33.2590964,28.7322881 C31.4192932,28.1665487 30.1653677,26.4648157 30.1699872,24.54 C30.1692042,23.8963996 30.3127244,23.2608101 30.59,22.68 L30.635,22.58 L30.74,22.61 C31.7172363,22.9167514 32.463872,23.7107625 32.71,24.705 C33.2816091,26.3112333 34.8426956,27.3492438 36.545,27.255 C37.0555523,27.2284391 37.5525079,27.0810661 37.995,26.825 L38.5,26.55 L38.17,27 Z M38.85,23.765 C38.505,25.265 37.67,26.125 36.5,26.19 L36.365,26.19 C35.1993432,26.1760244 34.1588219,25.4559678 33.735,24.37 C33.4184357,23.1806292 32.5719551,22.2032116 31.44,21.72 L31.27,21.65 L31.395,21.515 C32.5246408,20.3302481 34.2216918,19.8761927 35.7920261,20.3385514 C37.3623604,20.80091 38.5425985,22.1021351 38.85,23.71 L38.85,23.765 Z" id="Shape"></path>
        </g>
    </g>
</svg>