<?xml version="1.0" encoding="UTF-8"?>
<svg width="60px" height="60px" viewBox="0 0 60 60" version="1.1" xmlns="http://www.w3.org/2000/svg" xmlns:xlink="http://www.w3.org/1999/xlink">
    <title>Geschlecht</title>
    <g id="Geschlecht" stroke="none" stroke-width="1" fill="none" fill-rule="evenodd">
        <g id="Geschlechtsidentität" transform="translate(11.000000, 10.000000)" fill="#000000" fill-rule="nonzero">
            <path d="M37.135,0.5 L37.135,0.5 L28.905,2.7 C28.7714439,2.73323709 28.6574938,2.82005619 28.59,2.94 C28.5239444,3.05878032 28.5060448,3.19839778 28.54,3.33 C28.5726967,3.46213159 28.6578497,3.57522181 28.7757994,3.64316081 C28.893749,3.71109981 29.0342991,3.72801462 29.165,3.69 L35.56,2 L25.785,11.765 L25.635,11.635 C21.9094768,8.38917557 16.3605232,8.38917557 12.635,11.635 L12.48,11.765 L12.48,11.765 L10.15,9.425 L10.15,9.425 L13.5,6.06 C13.5993654,5.96560302 13.6556256,5.83455574 13.6556256,5.6975 C13.6556256,5.56044426 13.5993654,5.42939698 13.5,5.335 C13.4044185,5.24016597 13.2746286,5.18788951 13.14,5.19 L13.14,5.19 C13.0053714,5.18788951 12.8755815,5.24016597 12.78,5.335 L9.425,8.7 L9.425,8.7 L2.765,2.04 L9,3.805 C9.13133615,3.84633268 9.27390407,3.83167725 9.39408475,3.76448963 C9.51426544,3.697302 9.60142127,3.58352918 9.635,3.45 C9.67047565,3.31903252 9.65436961,3.17944687 9.59,3.06 C9.52364669,2.94113511 9.41169615,2.85446373 9.28,2.82 L1.15,0.5 C0.965397244,0.427178839 0.755200192,0.470423196 0.614336436,0.610203385 C0.473472679,0.749983574 0.428606492,0.95984043 0.5,1.145 L2.7,9.375 C2.73750838,9.50790943 2.82541293,9.62092956 2.945,9.69 C3.12361485,9.80537228 3.3556603,9.79515562 3.52344427,9.66453186 C3.69122824,9.5339081 3.7580428,9.31145522 3.69,9.11 L2,2.72 L8.7,9.425 L8.7,9.425 L5.925,12.2 C5.82563459,12.294397 5.76937443,12.4254443 5.76937443,12.5625 C5.76937443,12.6995557 5.82563459,12.830603 5.925,12.925 C6.01939698,13.0243654 6.15044426,13.0806256 6.2875,13.0806256 C6.42455574,13.0806256 6.55560302,13.0243654 6.65,12.925 L9.425,10.15 L9.425,10.15 L11.77,12.5 L11.635,12.655 C9.19722113,15.4697036 8.54101759,19.4125325 9.93574054,22.8650779 C11.3304635,26.3176234 14.5411836,28.6983332 18.25,29.03 L18.445,29.03 L18.445,34.415 L14.945,34.415 C14.6688576,34.415 14.445,34.6388576 14.445,34.915 C14.445,35.1911424 14.6688576,35.415 14.945,35.415 L18.445,35.415 L18.445,40 C18.445,40.2761424 18.6688576,40.5 18.945,40.5 C19.2211424,40.5 19.445,40.2761424 19.445,40 L19.445,35.44 L22.945,35.44 C23.2211424,35.44 23.445,35.2161424 23.445,34.94 C23.445,34.6638576 23.2211424,34.44 22.945,34.44 L19.445,34.44 L19.445,29.07 L19.65,29.07 C23.4425872,28.8768059 26.7928788,26.5375157 28.2808267,23.0436565 C29.7687747,19.5497973 29.1337838,15.5132742 26.645,12.645 L26.5,12.5 L26.5,12.5 L36.24,2.765 L34.5,9 C34.4499828,9.1786328 34.4990645,9.37038017 34.6287564,9.50301273 C34.7584484,9.63564529 34.9490473,9.689013 35.1287564,9.64301274 C35.3084656,9.59701249 35.4499828,9.45863281 35.5,9.28 L37.76,1.15 C37.8127972,0.972122612 37.7627504,0.779635015 37.63,0.65 C37.5056865,0.511912118 37.3150539,0.454144644 37.135,0.5 Z M28.0450135,19.14 C28.0519798,23.1685276 25.3549859,26.7005765 21.4668621,27.7548898 C17.5787383,28.809203 13.4668752,27.1234605 11.4377691,23.6432577 C9.40866307,20.1630549 9.96716889,15.7542889 12.8,12.89 L12.89,12.8 C16.3522091,9.37349168 21.9277909,9.37349168 25.39,12.8 L25.465,12.875 C27.1201392,14.539657 28.0479034,16.7925417 28.0450135,19.14 Z" id="Shape"></path>
        </g>
    </g>
</svg>