<?xml version="1.0" encoding="UTF-8"?>
<svg width="60px" height="60px" viewBox="0 0 60 60" version="1.1" xmlns="http://www.w3.org/2000/svg" xmlns:xlink="http://www.w3.org/1999/xlink">
    <title>Geschaefte_hover</title>
    <g id="Geschaefte_hover" stroke="none" stroke-width="1" fill="none" fill-rule="evenodd">
        <g id="Group" transform="translate(2.000000, 3.000000)" fill="#FFFFFF" fill-rule="nonzero">
            <path d="M54.9581395,18.427907 C54.6325581,18.1023256 54.1116279,17.972093 53.655814,17.972093 C53.1348837,18.0372093 52.6790698,18.2325581 52.3534884,18.6232558 L51.1162791,20.055814 C50.855814,20.3162791 50.5302326,20.4465116 50.1395349,20.4465116 C50.0093023,20.4465116 49.944186,20.4465116 49.8139535,20.4465116 C49.3581395,20.5116279 48.9023256,20.7069767 48.5767442,21.0976744 L41.544186,29.627907 C41.2837209,29.9534884 40.7627907,29.7581395 40.7627907,29.3674419 L40.7627907,1.49767442 C40.7627907,0.911627907 40.3069767,0.390697674 39.655814,0.390697674 L4.42790698,0.390697674 C3.84186047,0.390697674 3.32093023,0.846511628 3.32093023,1.49767442 L3.32093023,48.1860465 C3.32093023,48.772093 3.77674419,49.2930233 4.42790698,49.2930233 L25.4604651,49.2930233 L24.744186,50.2046512 C24.6139535,50.3348837 24.5488372,50.4651163 24.5488372,50.5953488 L23.8325581,53.3302326 C23.572093,54.1767442 24.4837209,54.9581395 25.3302326,54.6325581 L27.8697674,53.5255814 C28,53.4604651 28.1302326,53.3953488 28.2604651,53.2651163 L31.5162791,49.6837209 C31.7116279,49.4883721 32.0372093,49.3581395 32.2976744,49.3581395 L39.7860465,49.3581395 C40.372093,49.3581395 40.8930233,48.9023256 40.8930233,48.2511628 L40.8930233,39.7860465 C40.8930233,39.5255814 41.0232558,39.2651163 41.1534884,39.0697674 L51.1162791,28.0651163 L51.3116279,28.2604651 C51.6372093,28.5860465 51.6372093,29.1069767 51.3116279,29.4976744 L45.3860465,36.4 C45.1906977,36.6604651 45.1906977,36.9860465 45.4511628,37.1813953 L45.5813953,37.3116279 C45.8418605,37.5069767 46.1674419,37.5069767 46.3627907,37.2465116 L52.2883721,30.344186 C53.0697674,29.4325581 53.0046512,28.0651163 52.1581395,27.2837209 L51.9627907,27.0883721 L53.4604651,25.3953488 C53.7860465,25.0046512 53.9813953,24.5488372 53.9162791,24.0930233 C53.9162791,23.8976744 53.8511628,23.7674419 53.8511628,23.6372093 C53.7209302,23.2465116 53.7860465,22.855814 54.0465116,22.5302326 L55.2186047,21.227907 C55.7395349,20.2511628 55.6744186,19.0790698 54.9581395,18.427907 Z M4.62325581,46.8186047 L4.62325581,2.66976744 C4.62325581,2.08372093 5.07906977,1.5627907 5.73023256,1.5627907 L38.4186047,1.5627907 C39.0046512,1.5627907 39.5255814,2.01860465 39.5255814,2.66976744 L39.5255814,32.0372093 L39.5906977,32.0372093 L26.827907,47.5348837 C26.6325581,47.7953488 26.3069767,47.9255814 25.9813953,47.9255814 L5.66511628,47.9255814 C5.07906977,47.9255814 4.62325581,47.4046512 4.62325581,46.8186047 Z M25.3953488,52.027907 C25.5255814,51.6372093 25.9813953,51.5069767 26.3069767,51.7674419 C26.6325581,52.027907 26.5023256,52.5488372 26.1767442,52.6790698 C25.7209302,52.8744186 25.3302326,52.4837209 25.3953488,52.027907 Z M39.5255814,47.9255814 L34.055814,47.9255814 C33.6,47.9255814 33.4046512,47.4046512 33.6651163,47.0790698 L38.6139535,41.6093023 C38.9395349,41.2837209 39.4604651,41.4790698 39.4604651,41.9348837 L39.4604651,47.9255814 L39.5255814,47.9255814 Z M27.1534884,50.7906977 C26.6976744,50.4 26.6976744,49.7488372 27.0232558,49.2930233 L46.6232558,25.4604651 C47.0139535,25.0046512 47.7302326,24.9395349 48.1860465,25.3302326 L49.2930233,26.3069767 C49.7488372,26.6976744 49.7488372,27.4139535 49.3581395,27.8046512 L28.6511628,50.7255814 C28.2604651,51.1813953 27.544186,51.1813953 27.1534884,50.7906977 Z M52.4186047,24.4186047 L51.6372093,25.3302326 C51.2465116,25.7860465 50.5953488,25.7860465 50.1395349,25.3953488 L48.9023256,24.2883721 C48.4465116,23.8976744 48.4465116,23.2465116 48.772093,22.7906977 L49.5534884,21.8139535 C49.6186047,21.6837209 49.7488372,21.6186047 49.8790698,21.6186047 C49.944186,21.6186047 50.0744186,21.6186047 50.1395349,21.6837209 L52.3534884,23.7023256 C52.4837209,23.7674419 52.4837209,23.8976744 52.4837209,23.9627907 C52.5488372,24.1581395 52.4837209,24.3534884 52.4186047,24.4186047 Z M54.1116279,20.2511628 L52.8744186,21.6837209 C52.6790698,21.944186 52.3534884,21.944186 52.0930233,21.7488372 C51.8976744,21.5534884 51.8325581,21.227907 52.027907,20.9674419 L53.3302326,19.4697674 C53.4604651,19.3395349 53.5906977,19.2744186 53.7860465,19.2093023 C53.9162791,19.2093023 54.0465116,19.2093023 54.1767442,19.3395349 C54.3069767,19.5348837 54.3069767,19.9255814 54.1116279,20.2511628 Z" id="Shape"></path>
            <path d="M30.4093023,37.8325581 C30.2139535,37.6372093 29.9534884,37.572093 29.7581395,37.7023256 C28.5860465,38.2883721 25.655814,38.4186047 24.6790698,38.2883721 L24.5488372,37.8325581 L23.8325581,38.2232558 C23.1813953,38.6139535 22.5953488,39.2 22.0093023,39.8511628 C21.2930233,40.6325581 20.5767442,41.4139535 19.8604651,41.544186 C19.7302326,41.544186 19.6,41.544186 19.5348837,41.544186 C19.6651163,41.2186047 20.055814,40.5674419 20.2511628,40.3069767 C20.5767442,39.7860465 20.772093,39.5255814 20.772093,39.2 L20.7069767,38.2232558 L19.7953488,38.6790698 C19.4697674,38.8093023 19.144186,39.0046512 18.7534884,39.2651163 C17.5813953,39.9162791 16.0837209,40.7627907 14.7813953,41.0883721 C14.3906977,41.2186047 14,40.7627907 14.1302326,40.372093 C14.1953488,40.1116279 14.3255814,39.8511628 14.3906977,39.655814 L14.5860465,40.3069767 C16.5395349,39.7860465 20.9674419,37.8325581 21.2930233,35.4232558 C21.4232558,34.6418605 21.0325581,34.3162791 20.772093,34.1860465 C19.4046512,33.3395349 16.2139535,35.3581395 16.2139535,35.4232558 C13.8046512,37.1162791 13.0883721,39.3302326 12.5023256,41.6744186 L12.372093,42.2604651 L12.9581395,42.455814 C14.2604651,42.8465116 15.9534884,42.2604651 17.5162791,41.544186 C17.8418605,41.3488372 18.2976744,41.6093023 18.2976744,42 C18.2976744,42.1953488 18.3627907,42.3255814 18.4930233,42.5209302 C18.7534884,42.9767442 19.2744186,43.0418605 19.6651163,43.0418605 C19.8604651,43.0418605 20.055814,43.0418605 20.1860465,42.9767442 C21.2930233,42.7813953 22.2046512,41.8697674 23.0511628,40.8930233 C23.4418605,40.5023256 23.7674419,40.1116279 24.0930233,39.7860465 C24.2232558,39.7209302 24.3534884,39.655814 24.4837209,39.655814 C25.7209302,39.7860465 28.7813953,39.7209302 30.4093023,38.8744186 C30.7348837,38.6790698 30.8,38.2883721 30.5395349,38.027907 L30.4093023,37.8325581 Z M16.9953488,36.4 C17.7767442,35.8790698 19.4046512,35.227907 20.055814,35.227907 C20.1209302,35.227907 20.1209302,35.227907 20.1209302,35.227907 C20.1209302,35.227907 20.1209302,35.227907 20.1209302,35.227907 C19.9906977,36.2697674 18.2325581,37.4418605 16.4744186,38.2883721 C15.9534884,38.5488372 15.4325581,37.8325581 15.8232558,37.4418605 C16.1488372,37.0511628 16.5395349,36.7255814 16.9953488,36.4 Z" id="Shape"></path>
            <path d="M0.911627907,6.05581395 L0.71627907,6.05581395 C0.390697674,6.05581395 0.195348837,6.31627907 0.195348837,6.57674419 L0.195348837,13.7395349 C0.195348837,14.0651163 0.455813953,14.2604651 0.71627907,14.2604651 L0.911627907,14.2604651 C1.2372093,14.2604651 1.43255814,14 1.43255814,13.7395349 L1.43255814,6.57674419 C1.43255814,6.31627907 1.2372093,6.05581395 0.911627907,6.05581395 Z" id="Path"></path>
            <path d="M0.911627907,19.4046512 L0.71627907,19.4046512 C0.390697674,19.4046512 0.195348837,19.6651163 0.195348837,19.9255814 L0.195348837,51.7674419 C0.195348837,52.0930233 0.455813953,52.2883721 0.71627907,52.2883721 L14.1953488,52.2883721 C14.5209302,52.2883721 14.7162791,52.027907 14.7162791,51.7674419 L14.7162791,51.572093 C14.7162791,51.2465116 14.455814,51.0511628 14.1953488,51.0511628 L1.95348837,51.0511628 C1.62790698,51.0511628 1.43255814,50.7906977 1.43255814,50.5302326 L1.43255814,19.9255814 C1.43255814,19.6 1.2372093,19.4046512 0.911627907,19.4046512 Z" id="Path"></path>
            <path d="M32.6232558,9.24651163 L11.5255814,9.24651163 C11.2,9.24651163 11.0046512,9.50697674 11.0046512,9.76744186 L11.0046512,9.9627907 C11.0046512,10.2883721 11.2651163,10.4837209 11.5255814,10.4837209 L32.6232558,10.4837209 C32.9488372,10.4837209 33.144186,10.2232558 33.144186,9.9627907 L33.144186,9.76744186 C33.144186,9.50697674 32.8837209,9.24651163 32.6232558,9.24651163 Z" id="Path"></path>
            <path d="M32.6232558,14.9767442 L11.5255814,14.9767442 C11.2,14.9767442 11.0046512,15.2372093 11.0046512,15.4976744 L11.0046512,15.6930233 C11.0046512,16.0186047 11.2651163,16.2139535 11.5255814,16.2139535 L32.6232558,16.2139535 C32.9488372,16.2139535 33.144186,15.9534884 33.144186,15.6930233 L33.144186,15.4976744 C33.144186,15.172093 32.8837209,14.9767442 32.6232558,14.9767442 Z" id="Path"></path>
            <path d="M32.6232558,20.6418605 L11.5255814,20.6418605 C11.2,20.6418605 11.0046512,20.9023256 11.0046512,21.1627907 L11.0046512,21.3581395 C11.0046512,21.6837209 11.2651163,21.8790698 11.5255814,21.8790698 L32.6232558,21.8790698 C32.9488372,21.8790698 33.144186,21.6186047 33.144186,21.3581395 L33.144186,21.1627907 C33.144186,20.9023256 32.8837209,20.6418605 32.6232558,20.6418605 Z" id="Path"></path>
            <path d="M32.6232558,26.372093 L11.5255814,26.372093 C11.2,26.372093 11.0046512,26.6325581 11.0046512,26.8930233 L11.0046512,27.0883721 C11.0046512,27.4139535 11.2651163,27.6093023 11.5255814,27.6093023 L32.6232558,27.6093023 C32.9488372,27.6093023 33.144186,27.3488372 33.144186,27.0883721 L33.144186,26.8930233 C33.144186,26.6325581 32.8837209,26.372093 32.6232558,26.372093 Z" id="Path"></path>
        </g>
    </g>
</svg>