<?xml version="1.0" encoding="UTF-8"?>
<svg width="60px" height="60px" viewBox="0 0 60 60" version="1.1" xmlns="http://www.w3.org/2000/svg" xmlns:xlink="http://www.w3.org/1999/xlink">
    <title>Geschaefte_Vertraege</title>
    <g id="Geschaefte_Vertraege" stroke="none" stroke-width="1" fill="none" fill-rule="evenodd">
        <g id="Group" transform="translate(11.000000, 9.000000)" fill="#000000" fill-rule="nonzero">
            <path d="M42.2,14.15 C41.95,13.9 41.55,13.8 41.2,13.8 C40.8,13.85 40.45,14 40.2,14.3 L39.25,15.4 C39.05,15.6 38.8,15.7 38.5,15.7 C38.4,15.7 38.35,15.7 38.25,15.7 C37.9,15.75 37.55,15.9 37.3,16.2 L31.9,22.75 C31.7,23 31.3,22.85 31.3,22.55 L31.3,1.15 C31.3,0.7 30.95,0.3 30.45,0.3 L3.4,0.3 C2.95,0.3 2.55,0.65 2.55,1.15 L2.55,37 C2.55,37.45 2.9,37.85 3.4,37.85 L19.55,37.85 L19,38.55 C18.9,38.65 18.85,38.75 18.85,38.85 L18.3,40.95 C18.1,41.6 18.8,42.2 19.45,41.95 L21.4,41.1 C21.5,41.05 21.6,41 21.7,40.9 L24.2,38.15 C24.35,38 24.6,37.9 24.8,37.9 L30.55,37.9 C31,37.9 31.4,37.55 31.4,37.05 L31.4,30.55 C31.4,30.35 31.5,30.15 31.6,30 L39.25,21.55 L39.4,21.7 C39.65,21.95 39.65,22.35 39.4,22.65 L34.85,27.95 C34.7,28.15 34.7,28.4 34.9,28.55 L35,28.65 C35.2,28.8 35.45,28.8 35.6,28.6 L40.15,23.3 C40.75,22.6 40.7,21.55 40.05,20.95 L39.9,20.8 L41.05,19.5 L41.05,19.5 C41.3,19.2 41.45,18.85 41.4,18.5 C41.4,18.35 41.35,18.25 41.35,18.15 C41.25,17.85 41.3,17.55 41.5,17.3 L42.4,16.3 C42.8,15.55 42.75,14.65 42.2,14.15 Z M3.55,35.95 L3.55,2.05 C3.55,1.6 3.9,1.2 4.4,1.2 L29.5,1.2 C29.95,1.2 30.35,1.55 30.35,2.05 L30.35,24.6 L30.4,24.6 L20.6,36.5 C20.45,36.7 20.2,36.8 19.95,36.8 L4.35,36.8 C3.9,36.8 3.55,36.4 3.55,35.95 Z M19.5,39.95 L19.5,39.95 C19.6,39.65 19.95,39.55 20.2,39.75 L20.2,39.75 C20.45,39.95 20.35,40.35 20.1,40.45 L20.1,40.45 C19.75,40.6 19.45,40.3 19.5,39.95 Z M30.35,36.8 L30.35,36.8 L26.15,36.8 C25.8,36.8 25.65,36.4 25.85,36.15 L29.65,31.95 C29.9,31.7 30.3,31.85 30.3,32.2 L30.3,36.8 L30.35,36.8 Z M20.85,39 L20.85,39 C20.5,38.7 20.5,38.2 20.75,37.85 L35.8,19.55 C36.1,19.2 36.65,19.15 37,19.45 L37.85,20.2 C38.2,20.5 38.2,21.05 37.9,21.35 L22,38.95 C21.7,39.3 21.15,39.3 20.85,39 Z M40.25,18.75 L39.65,19.45 C39.35,19.8 38.85,19.8 38.5,19.5 L37.55,18.65 C37.2,18.35 37.2,17.85 37.45,17.5 L38.05,16.75 C38.1,16.65 38.2,16.6 38.3,16.6 C38.35,16.6 38.45,16.6 38.5,16.65 L40.2,18.2 C40.3,18.25 40.3,18.35 40.3,18.4 C40.35,18.55 40.3,18.7 40.25,18.75 Z M41.55,15.55 L40.6,16.65 C40.45,16.85 40.2,16.85 40,16.7 L40,16.7 C39.85,16.55 39.8,16.3 39.95,16.1 L40.95,14.95 C41.05,14.85 41.15,14.8 41.3,14.75 C41.4,14.75 41.5,14.75 41.6,14.85 C41.7,15 41.7,15.3 41.55,15.55 Z" id="Shape"></path>
            <path d="M23.35,29.05 C23.2,28.9 23,28.85 22.85,28.95 C21.95,29.4 19.7,29.5 18.95,29.4 L18.85,29.05 L18.3,29.35 C17.8,29.65 17.35,30.1 16.9,30.6 C16.35,31.2 15.8,31.8 15.25,31.9 C15.15,31.9 15.05,31.9 15,31.9 C15.1,31.65 15.4,31.15 15.55,30.95 C15.8,30.55 15.95,30.35 15.95,30.1 L15.9,29.35 L15.2,29.7 C14.95,29.8 14.7,29.95 14.4,30.15 C13.5,30.65 12.35,31.3 11.35,31.55 C11.05,31.65 10.75,31.3 10.85,31 C10.9,30.8 11,30.6 11.05,30.45 L11.2,30.95 C12.7,30.55 16.1,29.05 16.35,27.2 C16.45,26.6 16.15,26.35 15.95,26.25 C14.9,25.6 12.45,27.15 12.45,27.2 C10.6,28.5 10.05,30.2 9.6,32 L9.5,32.45 L9.95,32.6 C10.95,32.9 12.25,32.45 13.45,31.9 C13.7,31.75 14.05,31.95 14.05,32.25 C14.05,32.4 14.1,32.5 14.2,32.65 C14.4,33 14.8,33.05 15.1,33.05 C15.25,33.05 15.4,33.05 15.5,33 C16.35,32.85 17.05,32.15 17.7,31.4 C18,31.1 18.25,30.8 18.5,30.55 C18.6,30.5 18.7,30.45 18.8,30.45 C19.75,30.55 22.1,30.5 23.35,29.85 C23.6,29.7 23.65,29.4 23.45,29.2 L23.35,29.05 Z M13.05,27.95 C13.65,27.55 14.9,27.05 15.4,27.05 C15.45,27.05 15.45,27.05 15.45,27.05 C15.45,27.05 15.45,27.05 15.45,27.05 C15.35,27.85 14,28.75 12.65,29.4 C12.25,29.6 11.85,29.05 12.15,28.75 C12.4,28.45 12.7,28.2 13.05,27.95 Z" id="Shape"></path>
            <path d="M0.7,4.65 L0.55,4.65 C0.3,4.65 0.15,4.85 0.15,5.05 L0.15,10.55 C0.15,10.8 0.35,10.95 0.55,10.95 L0.7,10.95 C0.95,10.95 1.1,10.75 1.1,10.55 L1.1,5.05 C1.1,4.85 0.95,4.65 0.7,4.65 Z" id="Path"></path>
            <path d="M0.7,14.9 L0.55,14.9 C0.3,14.9 0.15,15.1 0.15,15.3 L0.15,39.75 C0.15,40 0.35,40.15 0.55,40.15 L10.9,40.15 C11.15,40.15 11.3,39.95 11.3,39.75 L11.3,39.6 C11.3,39.35 11.1,39.2 10.9,39.2 L1.5,39.2 C1.25,39.2 1.1,39 1.1,38.8 L1.1,15.3 C1.1,15.05 0.95,14.9 0.7,14.9 Z" id="Path"></path>
            <path d="M25.05,7.1 L8.85,7.1 C8.6,7.1 8.45,7.3 8.45,7.5 L8.45,7.65 C8.45,7.9 8.65,8.05 8.85,8.05 L25.05,8.05 C25.3,8.05 25.45,7.85 25.45,7.65 L25.45,7.5 C25.45,7.3 25.25,7.1 25.05,7.1 Z" id="Path"></path>
            <path d="M25.05,11.5 L8.85,11.5 C8.6,11.5 8.45,11.7 8.45,11.9 L8.45,12.05 C8.45,12.3 8.65,12.45 8.85,12.45 L25.05,12.45 C25.3,12.45 25.45,12.25 25.45,12.05 L25.45,11.9 C25.45,11.65 25.25,11.5 25.05,11.5 Z" id="Path"></path>
            <path d="M25.05,15.85 L8.85,15.85 C8.6,15.85 8.45,16.05 8.45,16.25 L8.45,16.4 C8.45,16.65 8.65,16.8 8.85,16.8 L25.05,16.8 C25.3,16.8 25.45,16.6 25.45,16.4 L25.45,16.25 C25.45,16.05 25.25,15.85 25.05,15.85 Z" id="Path"></path>
            <path d="M25.05,20.25 L8.85,20.25 C8.6,20.25 8.45,20.45 8.45,20.65 L8.45,20.8 C8.45,21.05 8.65,21.2 8.85,21.2 L25.05,21.2 C25.3,21.2 25.45,21 25.45,20.8 L25.45,20.65 C25.45,20.45 25.25,20.25 25.05,20.25 Z" id="Path"></path>
        </g>
    </g>
</svg>