<?xml version="1.0" encoding="UTF-8"?>
<svg width="60px" height="60px" viewBox="0 0 60 60" version="1.1" xmlns="http://www.w3.org/2000/svg" xmlns:xlink="http://www.w3.org/1999/xlink">
    <title>Geschaefte_Vertraege_hover</title>
    <g id="Geschaefte_Vertraege_hover" stroke="none" stroke-width="1" fill="none" fill-rule="evenodd">
        <path d="M53.2,23.15 C52.95,22.9 52.55,22.8 52.2,22.8 C51.8,22.85 51.45,23 51.2,23.3 L50.25,24.4 C50.05,24.6 49.8,24.7 49.5,24.7 C49.4,24.7 49.35,24.7 49.25,24.7 C48.9,24.75 48.55,24.9 48.3,25.2 L42.9,31.75 C42.7,32 42.3,31.85 42.3,31.55 L42.3,10.15 C42.3,9.7 41.95,9.3 41.45,9.3 L14.4,9.3 C13.95,9.3 13.55,9.65 13.55,10.15 L13.55,46 C13.55,46.45 13.9,46.85 14.4,46.85 L30.55,46.85 L30,47.55 C29.9,47.65 29.85,47.75 29.85,47.85 L29.3,49.95 C29.1,50.6 29.8,51.2 30.45,50.95 L32.4,50.1 C32.5,50.05 32.6,50 32.7,49.9 L35.2,47.15 C35.35,47 35.6,46.9 35.8,46.9 L41.55,46.9 C42,46.9 42.4,46.55 42.4,46.05 L42.4,39.55 C42.4,39.35 42.5,39.15 42.6,39 L50.25,30.55 L50.4,30.7 C50.65,30.95 50.65,31.35 50.4,31.65 L45.85,36.95 C45.7,37.15 45.7,37.4 45.9,37.55 L46,37.65 C46.2,37.8 46.45,37.8 46.6,37.6 L51.15,32.3 C51.75,31.6 51.7,30.55 51.05,29.95 L50.9,29.8 L52.05,28.5 L52.05,28.5 C52.3,28.2 52.45,27.85 52.4,27.5 C52.4,27.35 52.35,27.25 52.35,27.15 C52.25,26.85 52.3,26.55 52.5,26.3 L53.4,25.3 C53.8,24.55 53.75,23.65 53.2,23.15 Z M14.55,44.95 L14.55,11.05 C14.55,10.6 14.9,10.2 15.4,10.2 L40.5,10.2 C40.95,10.2 41.35,10.55 41.35,11.05 L41.35,33.6 L41.4,33.6 L31.6,45.5 C31.45,45.7 31.2,45.8 30.95,45.8 L15.35,45.8 C14.9,45.8 14.55,45.4 14.55,44.95 Z M30.5,48.95 L30.5,48.95 C30.6,48.65 30.95,48.55 31.2,48.75 L31.2,48.75 C31.45,48.95 31.35,49.35 31.1,49.45 L31.1,49.45 C30.75,49.6 30.45,49.3 30.5,48.95 Z M41.35,45.8 L41.35,45.8 L37.15,45.8 C36.8,45.8 36.65,45.4 36.85,45.15 L40.65,40.95 C40.9,40.7 41.3,40.85 41.3,41.2 L41.3,45.8 L41.35,45.8 Z M31.85,48 L31.85,48 C31.5,47.7 31.5,47.2 31.75,46.85 L46.8,28.55 C47.1,28.2 47.65,28.15 48,28.45 L48.85,29.2 C49.2,29.5 49.2,30.05 48.9,30.35 L33,47.95 C32.7,48.3 32.15,48.3 31.85,48 Z M51.25,27.75 L50.65,28.45 C50.35,28.8 49.85,28.8 49.5,28.5 L48.55,27.65 C48.2,27.35 48.2,26.85 48.45,26.5 L49.05,25.75 C49.1,25.65 49.2,25.6 49.3,25.6 C49.35,25.6 49.45,25.6 49.5,25.65 L51.2,27.2 C51.3,27.25 51.3,27.35 51.3,27.4 C51.35,27.55 51.3,27.7 51.25,27.75 Z M52.55,24.55 L51.6,25.65 C51.45,25.85 51.2,25.85 51,25.7 L51,25.7 C50.85,25.55 50.8,25.3 50.95,25.1 L51.95,23.95 C52.05,23.85 52.15,23.8 52.3,23.75 C52.4,23.75 52.5,23.75 52.6,23.85 C52.7,24 52.7,24.3 52.55,24.55 Z" id="Shape" fill="#FFFFFF" fill-rule="nonzero"></path>
        <path d="M34.35,38.05 C34.2,37.9 34,37.85 33.85,37.95 C32.95,38.4 30.7,38.5 29.95,38.4 L29.85,38.05 L29.3,38.35 C28.8,38.65 28.35,39.1 27.9,39.6 C27.35,40.2 26.8,40.8 26.25,40.9 C26.15,40.9 26.05,40.9 26,40.9 C26.1,40.65 26.4,40.15 26.55,39.95 C26.8,39.55 26.95,39.35 26.95,39.1 L26.9,38.35 L26.2,38.7 C25.95,38.8 25.7,38.95 25.4,39.15 C24.5,39.65 23.35,40.3 22.35,40.55 C22.05,40.65 21.75,40.3 21.85,40 C21.9,39.8 22,39.6 22.05,39.45 L22.2,39.95 C23.7,39.55 27.1,38.05 27.35,36.2 C27.45,35.6 27.15,35.35 26.95,35.25 C25.9,34.6 23.45,36.15 23.45,36.2 C21.6,37.5 21.05,39.2 20.6,41 L20.5,41.45 L20.95,41.6 C21.95,41.9 23.25,41.45 24.45,40.9 C24.7,40.75 25.05,40.95 25.05,41.25 C25.05,41.4 25.1,41.5 25.2,41.65 C25.4,42 25.8,42.05 26.1,42.05 C26.25,42.05 26.4,42.05 26.5,42 C27.35,41.85 28.05,41.15 28.7,40.4 C29,40.1 29.25,39.8 29.5,39.55 C29.6,39.5 29.7,39.45 29.8,39.45 C30.75,39.55 33.1,39.5 34.35,38.85 C34.6,38.7 34.65,38.4 34.45,38.2 L34.35,38.05 Z M24.05,36.95 C24.65,36.55 25.9,36.05 26.4,36.05 C26.45,36.05 26.45,36.05 26.45,36.05 C26.45,36.05 26.45,36.05 26.45,36.05 C26.35,36.85 25,37.75 23.65,38.4 C23.25,38.6 22.85,38.05 23.15,37.75 C23.4,37.45 23.7,37.2 24.05,36.95 Z" id="Shape" fill="#FFFFFF" fill-rule="nonzero"></path>
        <path d="M11.7,13.65 L11.55,13.65 C11.3,13.65 11.15,13.85 11.15,14.05 L11.15,19.55 C11.15,19.8 11.35,19.95 11.55,19.95 L11.7,19.95 C11.95,19.95 12.1,19.75 12.1,19.55 L12.1,14.05 C12.1,13.85 11.95,13.65 11.7,13.65 Z" id="Path" fill="#FFFFFF" fill-rule="nonzero"></path>
        <path d="M11.7,23.9 L11.55,23.9 C11.3,23.9 11.15,24.1 11.15,24.3 L11.15,48.75 C11.15,49 11.35,49.15 11.55,49.15 L21.9,49.15 C22.15,49.15 22.3,48.95 22.3,48.75 L22.3,48.6 C22.3,48.35 22.1,48.2 21.9,48.2 L12.5,48.2 C12.25,48.2 12.1,48 12.1,47.8 L12.1,24.3 C12.1,24.05 11.95,23.9 11.7,23.9 Z" id="Path" fill="#FFFFFF" fill-rule="nonzero"></path>
        <path d="M36.05,16.1 L19.85,16.1 C19.6,16.1 19.45,16.3 19.45,16.5 L19.45,16.65 C19.45,16.9 19.65,17.05 19.85,17.05 L36.05,17.05 C36.3,17.05 36.45,16.85 36.45,16.65 L36.45,16.5 C36.45,16.3 36.25,16.1 36.05,16.1 Z" id="Path" fill="#FFFFFF" fill-rule="nonzero"></path>
        <path d="M36.05,20.5 L19.85,20.5 C19.6,20.5 19.45,20.7 19.45,20.9 L19.45,21.05 C19.45,21.3 19.65,21.45 19.85,21.45 L36.05,21.45 C36.3,21.45 36.45,21.25 36.45,21.05 L36.45,20.9 C36.45,20.65 36.25,20.5 36.05,20.5 Z" id="Path" fill="#FFFFFF" fill-rule="nonzero"></path>
        <path d="M36.05,24.85 L19.85,24.85 C19.6,24.85 19.45,25.05 19.45,25.25 L19.45,25.4 C19.45,25.65 19.65,25.8 19.85,25.8 L36.05,25.8 C36.3,25.8 36.45,25.6 36.45,25.4 L36.45,25.25 C36.45,25.05 36.25,24.85 36.05,24.85 Z" id="Path" fill="#FFFFFF" fill-rule="nonzero"></path>
        <path d="M36.05,29.25 L19.85,29.25 C19.6,29.25 19.45,29.45 19.45,29.65 L19.45,29.8 C19.45,30.05 19.65,30.2 19.85,30.2 L36.05,30.2 C36.3,30.2 36.45,30 36.45,29.8 L36.45,29.65 C36.45,29.45 36.25,29.25 36.05,29.25 Z" id="Path" fill="#FFFFFF" fill-rule="nonzero"></path>
    </g>
</svg>