<?xml version="1.0" encoding="UTF-8"?>
<svg width="60px" height="60px" viewBox="0 0 60 60" version="1.1" xmlns="http://www.w3.org/2000/svg" xmlns:xlink="http://www.w3.org/1999/xlink">
    <title>Gesundheit_hover</title>
    <g id="Gesundheit_hover" stroke="none" stroke-width="1" fill="none" fill-rule="evenodd">
        <path d="M50.45,32.45 C50.1,31.85 49.5,31.4 48.8,31.25 C48.15,31.1 47.4,31.25 46.85,31.6 L39,36.85 L38.9,36.65 C38.05,35.05 36.45,34.05 34.65,34.05 L29.4,34.05 L29.35,34 C27.95,33.05 26.35,32.55 24.65,32.6 C21.55,32.6 18.95,34.05 18.5,36.05 L18.45,36.2 L13.75,36.2 L13.75,35.3 C13.75,35 13.5,34.8 13.25,34.8 L8.95,34.8 C8.65,34.8 8.45,35.05 8.45,35.3 L8.45,40.6 L8.45,40.8 L8.45,48.15 C8.45,48.45 8.7,48.65 8.95,48.65 L13.25,48.65 C13.55,48.65 13.75,48.4 13.75,48.15 L13.75,46.55 L23.15,46.55 L32.35,48.65 C33.3,48.85 34.3,48.6 35.05,48 L49.7,36.3 C50.9,35.4 51.25,33.75 50.45,32.45 Z M12.65,47.65 L9.4,47.65 L9.4,40.85 L9.4,40.65 L9.4,35.85 L12.65,35.85 L12.65,47.65 Z M49.05,35.4 C49.05,35.4 49.05,35.4 49.05,35.4 L34.3,47.15 C33.9,47.45 33.4,47.65 32.95,47.65 C32.8,47.65 32.65,47.65 32.5,47.6 L23.3,45.5 C23.25,45.5 23.25,45.5 23.2,45.5 L13.7,45.5 L13.7,37.25 L18.9,37.25 C19.2,37.25 19.4,37 19.4,36.75 C19.4,35.1 21.8,33.7 24.6,33.7 C26.1,33.65 27.6,34.1 28.8,35 C28.9,35.1 29,35.15 29.15,35.15 L34.6,35.15 C36.4,35.15 37.95,36.4 38.3,38.15 L38.35,38.4 L29.55,38.4 C29.25,38.4 29.05,38.65 29.05,38.9 C29.05,39.15 29.3,39.4 29.55,39.4 L38.9,39.4 C39.2,39.4 39.4,39.15 39.4,38.9 C39.4,38.6 39.35,38.3 39.3,38.05 L39.3,37.95 L47.4,32.55 C47.75,32.3 48.15,32.25 48.55,32.35 C48.95,32.45 49.35,32.7 49.55,33.1 C50.05,33.8 49.85,34.85 49.05,35.4 Z" id="Shape" fill="#FFFFFF" fill-rule="nonzero"></path>
        <path d="M26.9,29.65 C27.6,30.4 28.6,30.85 29.6,30.85 C30.65,30.85 31.6,30.4 32.3,29.65 L38.85,22.75 C40.15,21.4 40.85,19.6 40.85,17.7 C40.85,15.8 40.15,14 38.85,12.65 C37.6,11.3 35.85,10.55 34,10.55 L34,10.35 L34,10.55 C32.4,10.55 30.9,11.15 29.7,12.15 L29.55,12.25 L29.4,12.15 C28.15,11.05 26.6,10.5 25.1,10.5 C23.35,10.5 21.6,11.2 20.3,12.6 C17.7,15.45 17.7,19.9 20.3,22.7 L26.9,29.65 Z M19.55,18.9 C19.15,16.9 19.75,14.8 21.1,13.3 C22.1,12.2 23.45,11.6 24.95,11.55 C26.45,11.5 27.85,12 28.9,13 C29,13.1 29.1,13.2 29.2,13.3 C29.4,13.5 29.75,13.5 29.95,13.3 C31,12.2 32.45,11.55 34,11.5 C35.55,11.5 37,12.15 38.05,13.3 C39.15,14.5 39.75,16.05 39.75,17.65 C39.75,18.05 39.7,18.5 39.65,18.9 L39.6,19.05 L38.5,19.05 L37.25,17.15 C37.15,17.05 37.05,16.95 36.9,16.95 C36.75,16.95 36.6,16.95 36.5,17.05 C36.45,17.1 36.4,17.1 36.4,17.15 L35.15,19.05 L33.8,19.05 L33.8,18.15 C33.8,17.85 33.55,17.65 33.3,17.65 L31.7,17.65 L31.7,16 C31.7,15.7 31.45,15.5 31.2,15.5 L28.35,15.5 C28.05,15.5 27.85,15.75 27.85,16 L27.85,17.6 L26.25,17.6 C25.95,17.6 25.75,17.85 25.75,18.1 L25.75,19 L24.5,19 L23.2,15.75 C23.1,15.5 22.8,15.35 22.5,15.45 C22.35,15.5 22.25,15.6 22.2,15.75 L20.9,19 L19.8,19 L19.55,18.9 Z M28.2,20.5 L26.6,20.5 L26.6,18.7 L28.2,18.7 C28.5,18.7 28.7,18.45 28.7,18.2 L28.7,16.6 L30.5,16.6 L30.5,18.2 C30.5,18.5 30.75,18.7 31,18.7 L32.6,18.7 L32.6,20.5 L31,20.5 C30.7,20.5 30.5,20.75 30.5,21 L30.5,22.6 L28.7,22.6 L28.7,21 C28.7,20.75 28.5,20.5 28.2,20.5 Z M19.9,20.1 L21.05,20.1 C21.05,20.1 21.05,20.1 21.05,20.1 C21.25,20.1 21.45,19.95 21.55,19.75 L22.5,17.4 L23.45,19.75 C23.55,19.95 23.7,20.1 23.95,20.1 L23.95,20.1 L25.55,20.1 L25.55,21 C25.55,21.3 25.8,21.5 26.05,21.5 L27.65,21.5 L27.65,23.1 C27.65,23.4 27.9,23.6 28.15,23.6 L31,23.6 C31.3,23.6 31.5,23.35 31.5,23.1 L31.5,21.5 L33.1,21.5 C33.4,21.5 33.6,21.25 33.6,21 L33.6,20.1 L35.2,20.1 C35.4,20.1 35.55,20 35.65,19.85 L36.65,18.35 L37.65,19.85 C37.75,20 37.9,20.1 38.1,20.1 L39.25,20.1 L39.15,20.35 C38.9,20.95 38.5,21.5 38.05,21.95 L38,22 L31.5,28.85 C31,29.4 30.3,29.65 29.6,29.7 C29.6,29.7 29.55,29.7 29.55,29.7 C28.85,29.7 28.15,29.45 27.65,28.95 L27.6,28.9 L21.1,22 C20.65,21.5 20.3,21 20,20.4 L19.9,20.1 Z" id="Shape" fill="#FFFFFF" fill-rule="nonzero"></path>
    </g>
</svg>