<?xml version="1.0" encoding="UTF-8"?>
<svg width="60px" height="60px" viewBox="0 0 60 60" version="1.1" xmlns="http://www.w3.org/2000/svg" xmlns:xlink="http://www.w3.org/1999/xlink">
    <title>Gesundheit</title>
    <g id="Gesundheit" stroke="none" stroke-width="1" fill="none" fill-rule="evenodd">
        <g id="Group" transform="translate(8.000000, 10.000000)" fill="#000000" fill-rule="nonzero">
            <path d="M42.45,22.45 C42.1,21.85 41.5,21.4 40.8,21.25 C40.15,21.1 39.4,21.25 38.85,21.6 L31,26.85 L30.9,26.65 C30.05,25.05 28.45,24.05 26.65,24.05 L21.4,24.05 L21.35,24 C19.95,23.05 18.35,22.55 16.65,22.6 C13.55,22.6 10.95,24.05 10.5,26.05 L10.45,26.2 L5.75,26.2 L5.75,25.3 C5.75,25 5.5,24.8 5.25,24.8 L0.95,24.8 C0.65,24.8 0.45,25.05 0.45,25.3 L0.45,30.6 L0.45,30.8 L0.45,38.15 C0.45,38.45 0.7,38.65 0.95,38.65 L5.25,38.65 C5.55,38.65 5.75,38.4 5.75,38.15 L5.75,36.55 L15.15,36.55 L24.35,38.65 C25.3,38.85 26.3,38.6 27.05,38 L41.7,26.3 C42.9,25.4 43.25,23.75 42.45,22.45 Z M4.65,37.65 L1.4,37.65 L1.4,30.85 L1.4,30.65 L1.4,25.85 L4.65,25.85 L4.65,37.65 Z M41.05,25.4 C41.05,25.4 41.05,25.4 41.05,25.4 L26.3,37.15 C25.9,37.45 25.4,37.65 24.95,37.65 C24.8,37.65 24.65,37.65 24.5,37.6 L15.3,35.5 C15.25,35.5 15.25,35.5 15.2,35.5 L5.7,35.5 L5.7,27.25 L10.9,27.25 C11.2,27.25 11.4,27 11.4,26.75 C11.4,25.1 13.8,23.7 16.6,23.7 C18.1,23.65 19.6,24.1 20.8,25 C20.9,25.1 21,25.15 21.15,25.15 L26.6,25.15 C28.4,25.15 29.95,26.4 30.3,28.15 L30.35,28.4 L21.55,28.4 C21.25,28.4 21.05,28.65 21.05,28.9 C21.05,29.15 21.3,29.4 21.55,29.4 L30.9,29.4 C31.2,29.4 31.4,29.15 31.4,28.9 C31.4,28.6 31.35,28.3 31.3,28.05 L31.3,27.95 L39.4,22.55 C39.75,22.3 40.15,22.25 40.55,22.35 C40.95,22.45 41.35,22.7 41.55,23.1 C42.05,23.8 41.85,24.85 41.05,25.4 Z" id="Shape"></path>
            <path d="M18.9,19.65 C19.6,20.4 20.6,20.85 21.6,20.85 C22.65,20.85 23.6,20.4 24.3,19.65 L30.85,12.75 C32.15,11.4 32.85,9.6 32.85,7.7 C32.85,5.8 32.15,4 30.85,2.65 C29.6,1.3 27.85,0.55 26,0.55 L26,0.35 L26,0.55 C24.4,0.55 22.9,1.15 21.7,2.15 L21.55,2.25 L21.4,2.15 C20.15,1.05 18.6,0.5 17.1,0.5 C15.35,0.5 13.6,1.2 12.3,2.6 C9.7,5.45 9.7,9.9 12.3,12.7 L18.9,19.65 Z M11.55,8.9 C11.15,6.9 11.75,4.8 13.1,3.3 C14.1,2.2 15.45,1.6 16.95,1.55 C18.45,1.5 19.85,2 20.9,3 C21,3.1 21.1,3.2 21.2,3.3 C21.4,3.5 21.75,3.5 21.95,3.3 C23,2.2 24.45,1.55 26,1.5 C27.55,1.5 29,2.15 30.05,3.3 C31.15,4.5 31.75,6.05 31.75,7.65 C31.75,8.05 31.7,8.5 31.65,8.9 L31.6,9.05 L30.5,9.05 L29.25,7.15 C29.15,7.05 29.05,6.95 28.9,6.95 C28.75,6.95 28.6,6.95 28.5,7.05 C28.45,7.1 28.4,7.1 28.4,7.15 L27.15,9.05 L25.8,9.05 L25.8,8.15 C25.8,7.85 25.55,7.65 25.3,7.65 L23.7,7.65 L23.7,6 C23.7,5.7 23.45,5.5 23.2,5.5 L20.35,5.5 C20.05,5.5 19.85,5.75 19.85,6 L19.85,7.6 L18.25,7.6 C17.95,7.6 17.75,7.85 17.75,8.1 L17.75,9 L16.5,9 L15.2,5.75 C15.1,5.5 14.8,5.35 14.5,5.45 C14.35,5.5 14.25,5.6 14.2,5.75 L12.9,9 L11.8,9 L11.55,8.9 Z M20.2,10.5 L18.6,10.5 L18.6,8.7 L20.2,8.7 C20.5,8.7 20.7,8.45 20.7,8.2 L20.7,6.6 L22.5,6.6 L22.5,8.2 C22.5,8.5 22.75,8.7 23,8.7 L24.6,8.7 L24.6,10.5 L23,10.5 C22.7,10.5 22.5,10.75 22.5,11 L22.5,12.6 L20.7,12.6 L20.7,11 C20.7,10.75 20.5,10.5 20.2,10.5 Z M11.9,10.1 L13.05,10.1 C13.05,10.1 13.05,10.1 13.05,10.1 C13.25,10.1 13.45,9.95 13.55,9.75 L14.5,7.4 L15.45,9.75 C15.55,9.95 15.7,10.1 15.95,10.1 L15.95,10.1 L17.55,10.1 L17.55,11 C17.55,11.3 17.8,11.5 18.05,11.5 L19.65,11.5 L19.65,13.1 C19.65,13.4 19.9,13.6 20.15,13.6 L23,13.6 C23.3,13.6 23.5,13.35 23.5,13.1 L23.5,11.5 L25.1,11.5 C25.4,11.5 25.6,11.25 25.6,11 L25.6,10.1 L27.2,10.1 C27.4,10.1 27.55,10 27.65,9.85 L28.65,8.35 L29.65,9.85 C29.75,10 29.9,10.1 30.1,10.1 L31.25,10.1 L31.15,10.35 C30.9,10.95 30.5,11.5 30.05,11.95 L30,12 L23.5,18.85 C23,19.4 22.3,19.65 21.6,19.7 C21.6,19.7 21.55,19.7 21.55,19.7 C20.85,19.7 20.15,19.45 19.65,18.95 L19.6,18.9 L13.1,12 C12.65,11.5 12.3,11 12,10.4 L11.9,10.1 Z" id="Shape"></path>
        </g>
    </g>
</svg>