<?xml version="1.0" encoding="UTF-8"?>
<svg width="68px" height="30px" viewBox="0 0 68 30" version="1.1" xmlns="http://www.w3.org/2000/svg" xmlns:xlink="http://www.w3.org/1999/xlink">
    <title>info_hover</title>
    <g id="info_hover" stroke="none" stroke-width="1" fill="none" fill-rule="evenodd">
        <g id="Group-3">
            <rect id="Rectangle" fill="#F3B500" x="0" y="0" width="68" height="30" rx="15"></rect>
            <path d="M25.675,20 L25.675,18.545 L24.43,18.545 L24.43,11.105 L25.66,11.105 L25.66,9.65 L21.19,9.65 L21.19,11.105 L22.42,11.105 L22.42,18.545 L21.175,18.545 L21.175,20 L25.675,20 Z M29.11,20 L29.11,14.645 C29.25,14.515 29.43,14.3975 29.65,14.2925 C29.87,14.1875 30.135,14.135 30.445,14.135 C30.855,14.135 31.1525,14.2575 31.3375,14.5025 C31.5225,14.7475 31.615,15.14 31.615,15.68 L31.615,15.68 L31.615,20 L33.505,20 L33.505,15.365 C33.505,14.455 33.3,13.7525 32.89,13.2575 C32.48,12.7625 31.885,12.515 31.105,12.515 C30.805,12.515 30.5375,12.55 30.3025,12.62 C30.0675,12.69 29.865,12.775 29.695,12.875 C29.525,12.975 29.3825,13.0825 29.2675,13.1975 C29.1525,13.3125 29.06,13.415 28.99,13.505 L28.99,13.505 L28.96,13.505 L28.96,12.695 L27.22,12.695 L27.22,20 L29.11,20 Z M37.72,20 L37.72,14.195 L39.355,14.195 L39.535,12.695 L37.72,12.695 L37.72,12.035 C37.72,11.565 37.805,11.2375 37.975,11.0525 C38.145,10.8675 38.4,10.775 38.74,10.775 C38.91,10.775 39.06,10.8 39.19,10.85 C39.32,10.9 39.41,10.935 39.46,10.955 L39.46,10.955 L39.76,9.455 C39.69,9.415 39.555,9.36 39.355,9.29 C39.155,9.22 38.88,9.185 38.53,9.185 C37.66,9.185 36.9925,9.4275 36.5275,9.9125 C36.0625,10.3975 35.83,11.125 35.83,12.095 L35.83,12.095 L35.83,12.725 L34.84,12.905 L34.84,14.195 L35.83,14.195 L35.83,20 L37.72,20 Z M43.51,20.18 C43.95,20.18 44.375,20.1 44.785,19.94 C45.195,19.78 45.5575,19.5425 45.8725,19.2275 C46.1875,18.9125 46.44,18.515 46.63,18.035 C46.82,17.555 46.915,16.99 46.915,16.34 C46.915,15.68 46.83,15.1075 46.66,14.6225 C46.49,14.1375 46.2575,13.74 45.9625,13.43 C45.6675,13.12 45.3175,12.89 44.9125,12.74 C44.5075,12.59 44.075,12.515 43.615,12.515 C43.175,12.515 42.75,12.5925 42.34,12.7475 C41.93,12.9025 41.5675,13.14 41.2525,13.46 C40.9375,13.78 40.685,14.18 40.495,14.66 C40.305,15.14 40.21,15.7 40.21,16.34 C40.21,17 40.295,17.5725 40.465,18.0575 C40.635,18.5425 40.87,18.9425 41.17,19.2575 C41.47,19.5725 41.82,19.805 42.22,19.955 C42.62,20.105 43.05,20.18 43.51,20.18 Z M43.57,18.56 C43.18,18.56 42.845,18.3925 42.565,18.0575 C42.285,17.7225 42.145,17.15 42.145,16.34 C42.145,15.55 42.285,14.985 42.565,14.645 C42.845,14.305 43.18,14.135 43.57,14.135 C43.76,14.135 43.94,14.175 44.11,14.255 C44.28,14.335 44.43,14.46 44.56,14.63 C44.69,14.8 44.7925,15.0275 44.8675,15.3125 C44.9425,15.5975 44.98,15.94 44.98,16.34 C44.98,16.74 44.9425,17.08 44.8675,17.36 C44.7925,17.64 44.6925,17.87 44.5675,18.05 C44.4425,18.23 44.2925,18.36 44.1175,18.44 C43.9425,18.52 43.76,18.56 43.57,18.56 Z" id="Info" fill="#000000" fill-rule="nonzero"></path>
        </g>
    </g>
</svg>