<?xml version="1.0" encoding="UTF-8"?>
<svg width="61px" height="60px" viewBox="0 0 61 60" version="1.1" xmlns="http://www.w3.org/2000/svg" xmlns:xlink="http://www.w3.org/1999/xlink">
    <title>Internet_hover</title>
    <g id="Internet_hover" stroke="none" stroke-width="1" fill="none" fill-rule="evenodd" transform="translate(1.000000, 0.000000)">
        <path d="M49.8,45.55 L46.25,45.55 L46.3,45.45 C46.4,45.2 46.45,44.95 46.45,44.7 L46.45,36.2 L46.45,36.2 C49.65,33.35 51.45,29.25 51.45,25 C51.45,16.7 44.7,10 36.45,10 C28.15,10 21.45,16.75 21.45,25 C21.45,25.1 21.45,25.15 21.45,25.25 L21.45,25.45 L14.7,25.45 C13.65,25.45 12.85,26.3 12.85,27.3 L12.85,44.7 C12.85,44.95 12.9,45.2 13,45.45 L13.05,45.55 L9.5,45.55 C9.25,45.55 9,45.75 9,46.05 L9,48 C9,48.15 9.05,48.3 9.2,48.4 L9.2,48.4 L11.1,49.75 C11.2,49.8 11.3,49.85 11.4,49.85 L48.1,49.85 C48.2,49.85 48.3,49.8 48.4,49.75 L50.1,48.4 C50.15,48.35 50.15,48.35 50.2,48.3 C50.25,48.2 50.3,48.1 50.3,48.05 L50.3,46.1 C50.3,45.8 50.05,45.55 49.8,45.55 Z M48.35,32.4 C46.85,34.8 44.7,36.65 42.1,37.8 L41.7,38 L42.05,37.7 C42.75,37.1 43.35,36.35 43.95,35.55 C44.6,34.6 45.15,33.55 45.6,32.35 L45.6,32.3 L48.4,32.3 L48.35,32.4 Z M41.85,31.2 C42.15,29.45 42.35,27.5 42.35,25.55 L42.35,25.5 L45.95,25.5 L45.95,25.55 C45.9,27.55 45.55,29.45 44.95,31.25 L44.95,31.3 L41.85,31.3 L41.85,31.2 Z M41.8,18.65 L44.9,18.65 L44.9,18.7 C45.5,20.5 45.85,22.4 45.9,24.4 L45.9,24.45 L42.3,24.45 L42.3,24.4 C42.25,22.4 42.1,20.5 41.8,18.75 L41.8,18.65 Z M44.55,32.3 L44.5,32.4 C44.1,33.35 43.6,34.25 43.1,35 C42.05,36.5 40.75,37.7 39.4,38.35 L39.15,38.45 L39.3,38.2 C39.85,37.45 40.3,36.55 40.7,35.4 C41.05,34.5 41.3,33.45 41.55,32.3 L41.55,32.25 L44.55,32.25 L44.55,32.3 Z M50.5,25.55 C50.4,27.55 49.95,29.45 49.05,31.25 L49.05,31.3 L46.05,31.3 L46.1,31.2 C46.65,29.45 46.95,27.55 47,25.55 L47,25.5 L50.55,25.5 L50.5,25.55 Z M49,18.7 C49.9,20.5 50.4,22.4 50.45,24.4 L50.45,24.45 L46.9,24.45 L46.9,24.4 C46.85,22.4 46.55,20.5 46,18.75 L45.95,18.65 L49,18.7 L49,18.7 Z M42.15,12.15 C44.75,13.3 46.9,15.15 48.4,17.55 L48.45,17.65 L45.65,17.65 L45.65,17.6 C45.2,16.4 44.6,15.35 44,14.4 C43.45,13.6 42.8,12.85 42.1,12.25 L41.75,11.95 L42.15,12.15 Z M39.4,11.65 C40.8,12.3 42.05,13.5 43.1,15 C43.6,15.75 44.05,16.6 44.5,17.6 L44.55,17.7 L41.6,17.7 L41.6,17.65 C41.35,16.5 41.05,15.45 40.75,14.55 C40.35,13.45 39.85,12.5 39.35,11.75 L39.2,11.5 L39.4,11.65 Z M36.95,11.05 L37.05,11.1 C37.45,11.25 37.8,11.55 38.15,11.95 C38.75,12.65 39.3,13.65 39.75,14.9 C40.05,15.7 40.3,16.6 40.55,17.6 L40.55,17.7 L36.9,17.7 L36.9,11.05 L36.95,11.05 Z M36.95,18.65 L40.8,18.65 L40.8,18.7 C41.1,20.5 41.3,22.4 41.35,24.4 L41.35,24.45 L37,24.45 L37,18.65 L36.95,18.65 Z M36.95,25.45 L41.3,25.45 L41.3,25.5 C41.25,27.5 41.1,29.4 40.75,31.2 L40.75,31.25 L36.9,31.25 L36.9,25.45 L36.95,25.45 Z M36.95,32.3 L40.6,32.3 L40.6,32.4 C40.35,33.4 40.1,34.35 39.8,35.1 C39.35,36.35 38.8,37.4 38.2,38.05 C37.85,38.45 37.45,38.75 37.1,38.9 L37,38.95 L37,32.3 L36.95,32.3 Z M35.9,11.05 L36,11 L36,17.65 L32.35,17.65 L32.35,17.55 C32.6,16.55 32.85,15.6 33.15,14.85 C33.6,13.6 34.15,12.55 34.75,11.9 C35.1,11.5 35.5,11.2 35.9,11.05 Z M30.6,25.45 L30.6,25.5 C30.65,27.5 30.8,29.4 31.1,31.15 L31.1,31.25 L28,31.25 L28,31.2 C27.4,29.4 27.05,27.5 27,25.5 L27,25.45 L30.6,25.45 Z M27,24.5 L27,24.45 C27.05,22.45 27.4,20.55 28,18.75 L28,18.7 L31.1,18.7 L31.1,18.8 C30.8,20.6 30.6,22.5 30.6,24.45 L30.6,24.5 L27,24.5 Z M27.3,32.3 L27.3,32.3 C27.8,33.55 28.35,34.6 29,35.55 C29.55,36.35 30.2,37.1 30.9,37.7 L31.25,38 L30.85,37.8 C28.25,36.65 26.1,34.8 24.6,32.4 L24.55,32.3 L27.3,32.3 Z M29.8,34.95 C29.3,34.2 28.8,33.35 28.4,32.35 L28.35,32.25 L31.3,32.25 L31.3,32.3 C31.55,33.45 31.85,34.5 32.15,35.4 C32.55,36.5 33.05,37.45 33.55,38.2 L33.7,38.45 L33.45,38.35 C32.15,37.65 30.85,36.5 29.8,34.95 Z M33.15,35.05 C32.85,34.3 32.6,33.35 32.35,32.35 L32.35,32.25 L36,32.25 L36,38.9 L35.9,38.85 C35.5,38.7 35.15,38.4 34.8,38 C34.15,37.35 33.6,36.35 33.15,35.05 Z M32.15,31.3 L32.15,31.25 C31.85,29.45 31.65,27.55 31.6,25.55 L31.6,25.5 L35.95,25.5 L35.95,31.3 L32.15,31.3 Z M31.6,24.5 L31.6,24.45 C31.65,22.45 31.8,20.55 32.15,18.75 L32.15,18.7 L36,18.7 L36,24.5 L31.6,24.5 Z M33.8,11.5 L33.65,11.75 C33.1,12.5 32.65,13.4 32.25,14.55 C31.9,15.45 31.65,16.5 31.4,17.65 L31.4,17.7 L28.45,17.7 L28.5,17.6 C28.9,16.65 29.4,15.75 29.9,15 C30.95,13.5 32.25,12.3 33.6,11.65 L33.8,11.5 Z M24.55,17.55 C26.05,15.15 28.2,13.3 30.8,12.15 L31.2,11.95 L30.85,12.25 C30.15,12.85 29.55,13.6 28.95,14.4 C28.3,15.35 27.75,16.4 27.3,17.6 L27.3,17.65 L24.5,17.65 L24.55,17.55 Z M22.45,24.4 C22.55,22.4 23,20.5 23.9,18.7 L23.9,18.65 L26.9,18.65 L26.85,18.75 C26.3,20.5 26,22.45 25.95,24.4 L25.95,24.45 L22.4,24.45 L22.45,24.4 Z M26,25.45 L26,25.5 C26.05,27.5 26.35,29.4 26.9,31.15 L26.95,31.25 L23.95,31.25 L23.95,31.2 C23.05,29.4 22.55,27.5 22.5,25.5 L22.5,25.45 L26,25.45 Z M21.9,28.65 C23.6,35.35 29.55,40 36.45,40 L36.45,40 C38.8,40 41.05,39.45 43.15,38.4 L43.25,38.35 L43.25,43.3 L15.95,43.3 L15.95,28.6 L21.85,28.6 L21.9,28.65 Z M13.85,27.3 C13.85,26.8 14.25,26.4 14.75,26.4 L21.55,26.4 L21.55,26.45 C21.6,26.75 21.65,27.1 21.7,27.5 L21.7,27.6 L15.45,27.6 C15.2,27.65 15,27.85 15,28.1 L15,43.8 C15,44.05 15.15,44.25 15.4,44.3 C15.4,44.3 15.45,44.3 15.45,44.3 C15.45,44.3 15.5,44.3 15.5,44.3 L43.8,44.3 C44.05,44.3 44.3,44.1 44.3,43.8 L44.3,37.8 L44.35,37.8 C44.7,37.6 45.05,37.35 45.35,37.1 L45.45,37 L45.45,44.7 C45.45,45.2 45.1,45.55 44.6,45.55 L14.65,45.55 C14.15,45.55 13.8,45.15 13.8,44.7 L13.8,27.3 L13.85,27.3 Z M10,47.7 L10,46.55 L49.3,46.55 L49.3,47.75 L48.35,48.5 L47.95,48.85 L11.55,48.85 L11.1,48.55 L10,47.7 Z" id="Shape" fill="#FFFFFF" fill-rule="nonzero"></path>
    </g>
</svg>