<?xml version="1.0" encoding="UTF-8"?>
<svg width="60px" height="60px" viewBox="0 0 60 60" version="1.1" xmlns="http://www.w3.org/2000/svg" xmlns:xlink="http://www.w3.org/1999/xlink">
    <title>Justiz</title>
    <g id="Justiz" stroke="none" stroke-width="1" fill="none" fill-rule="evenodd">
        <path d="M40.4328427,52.9625 L19.9328427,52.9625 C19.6828427,52.9625 19.4828427,52.7625 19.4828427,52.5125 L19.4828427,50.7625 C19.4828427,49.6125 20.4828427,48.6125 21.6328427,48.6125 L24.6828427,48.6125 C24.8828427,46.6625 26.1828427,44.9625 28.0328427,44.1625 L28.0328427,19.6625 C27.1328427,18.9125 26.5828427,17.7625 26.6828427,16.5625 C24.8328427,14.7125 22.4328427,15.8625 20.1328427,16.9625 C19.5828427,17.2625 19.0328427,17.5125 18.4828427,17.7125 C18.2828427,18.2125 17.9328427,18.5625 17.4828427,18.8125 C17.5328427,18.8625 17.5328427,18.9125 17.5828427,19.0125 L22.1828427,29.4625 L23.5328427,29.4625 C23.6828427,29.4625 23.8328427,29.5125 23.8828427,29.6625 C23.9828427,29.7625 23.9828427,29.9125 23.9328427,30.0625 C22.7828427,33.2125 19.7828427,35.3125 16.4328427,35.3125 C13.0828427,35.3125 10.1828427,33.2625 9.03284271,30.0625 C8.98284271,29.9125 8.98284271,29.7625 9.08284271,29.6625 C9.18284271,29.5625 9.28284271,29.4625 9.43284271,29.4625 L10.7828427,29.4625 L15.3828427,18.9625 C15.3828427,18.9125 15.4328427,18.8125 15.4828427,18.7625 C14.7828427,18.4125 14.2828427,17.6625 14.2828427,16.8125 C14.2828427,15.6125 15.2828427,14.6625 16.4828427,14.6625 C16.9828427,14.6625 17.4328427,14.8125 17.7828427,15.1625 C18.1828427,14.9625 18.6328427,14.7625 19.0328427,14.5625 C21.7328427,13.2625 24.8328427,11.8125 27.8328427,14.1625 C27.9828427,14.0125 28.1828427,13.9125 28.3328427,13.8125 C27.9328427,13.3625 27.6828427,12.7625 27.6828427,12.1625 C27.6828427,10.8125 29.7828427,8.1125 29.7828427,8.1125 C29.9328427,7.9625 30.2328427,7.9625 30.3828427,8.1125 C30.3828427,8.1125 32.5828427,10.8125 32.5828427,12.1625 C32.5828427,12.8125 32.3328427,13.3625 31.9328427,13.8125 C32.1328427,13.9125 32.2828427,14.0625 32.4328427,14.1625 C35.4328427,11.8125 38.4828427,13.3125 41.2328427,14.6125 C41.6328427,14.8125 42.0328427,15.0125 42.4328427,15.1625 C42.8328427,14.8625 43.2828427,14.6625 43.7828427,14.6625 C44.9328427,14.6625 45.9328427,15.6625 45.9328427,16.8125 C45.9328427,17.6625 45.4828427,18.4125 44.7828427,18.7625 C44.8328427,18.8125 44.8828427,18.9125 44.8828427,19.0125 L49.4828427,29.4625 L50.8328427,29.4625 C50.9828427,29.4625 51.1328427,29.5125 51.1828427,29.6625 C51.2828427,29.7625 51.2828427,29.9125 51.2328427,30.0625 C50.0828427,33.2125 47.0828427,35.3125 43.7328427,35.3125 C40.3828427,35.3125 37.3828427,33.2125 36.3328427,30.0625 C36.2828427,29.9125 36.3328427,29.7625 36.3828427,29.6625 C36.4828427,29.5625 36.5828427,29.4625 36.7328427,29.4625 L38.0828427,29.4625 L42.6828427,18.9625 C42.6828427,18.9125 42.7328427,18.8625 42.7828427,18.8125 C42.3328427,18.6125 41.9828427,18.2125 41.7828427,17.7125 C41.2828427,17.5125 40.7328427,17.2125 40.1328427,16.9625 C37.8328427,15.8625 35.4328427,14.6625 33.5828427,16.5625 C33.6328427,17.8125 33.1328427,18.9625 32.1328427,19.6625 L32.1328427,44.1625 C33.9828427,44.9625 35.2828427,46.6125 35.5328427,48.6125 L38.5328427,48.6125 C39.7328427,48.6125 40.6828427,49.5625 40.6828427,50.7625 L40.6828427,52.5125 C40.8828427,52.7625 40.6828427,52.9625 40.4328427,52.9625 Z M20.3328427,52.1125 L39.9328427,52.1125 L39.9328427,50.7625 C39.9328427,50.0625 39.3828427,49.5125 38.6828427,49.5125 L35.2828427,49.5125 C35.0328427,49.5125 34.8828427,49.3125 34.8328427,49.1125 C34.6828427,47.1625 33.4828427,45.5625 31.6828427,44.9125 C31.4828427,44.8625 31.3828427,44.6625 31.3828427,44.5125 L31.3828427,19.4625 C31.3828427,19.3125 31.4828427,19.1625 31.5828427,19.1125 C32.4828427,18.5625 32.9328427,17.5625 32.7828427,16.5125 C32.7828427,16.3625 32.8328427,16.2625 32.8828427,16.1625 C35.1828427,13.6125 38.1828427,15.0625 40.5828427,16.2625 C41.1828427,16.5625 41.7828427,16.8625 42.3328427,17.0625 C42.4828427,17.1125 42.5328427,17.2125 42.5828427,17.3625 C42.7328427,17.9125 43.2328427,18.2625 43.7828427,18.2625 C44.4828427,18.2625 45.0328427,17.6625 45.0328427,16.9125 C45.0328427,16.2125 44.4328427,15.6625 43.7828427,15.6625 C43.4328427,15.6625 43.1328427,15.8125 42.8328427,16.1125 C42.6828427,16.2625 42.5328427,16.2625 42.3328427,16.2125 C41.8328427,16.0125 41.3328427,15.7625 40.8328427,15.5125 C38.0328427,14.1625 35.3328427,12.8625 32.6828427,15.2125 C32.5828427,15.3125 32.4828427,15.3125 32.3328427,15.3125 C32.2328427,15.3125 32.0828427,15.2625 32.0328427,15.1625 C31.7828427,14.8125 31.3828427,14.5625 30.8828427,14.4625 C30.7328427,14.4125 30.5828427,14.2625 30.5828427,14.1125 C30.5828427,13.9125 30.6328427,13.7625 30.7828427,13.6625 C31.3328427,13.3625 31.6328427,12.8625 31.6328427,12.2625 C31.6328427,11.6125 30.6328427,10.0625 30.0328427,9.2625 C29.4828427,10.0125 28.4828427,11.6125 28.4828427,12.2625 C28.4828427,12.8625 28.7828427,13.3625 29.3328427,13.6625 C29.4828427,13.7625 29.5828427,13.9125 29.5328427,14.1125 C29.5328427,14.3125 29.3828427,14.4125 29.2328427,14.4625 C28.7828427,14.6125 28.3828427,14.8625 28.0828427,15.1625 C27.9828427,15.2625 27.8828427,15.3125 27.7828427,15.3125 C27.6828427,15.3125 27.5328427,15.2625 27.4328427,15.2125 C24.7828427,12.9125 22.1328427,14.1625 19.2828427,15.5125 C18.7828427,15.7625 18.2328427,16.0125 17.7328427,16.2125 C17.5328427,16.3125 17.3328427,16.2125 17.2328427,16.0625 C17.0328427,15.8125 16.7328427,15.6625 16.3828427,15.6625 C15.6328427,15.6625 15.0328427,16.2125 15.0328427,16.9125 C15.0328427,17.6625 15.6328427,18.2625 16.3828427,18.2625 C16.9328427,18.2625 17.4328427,17.9125 17.5828427,17.3625 C17.6328427,17.2125 17.7328427,17.1125 17.8328427,17.0625 C18.3828427,16.8625 18.9828427,16.5625 19.5828427,16.2625 C21.9828427,15.1125 24.9828427,13.6125 27.2828427,16.1625 C27.3828427,16.2625 27.3828427,16.3625 27.3828427,16.5125 C27.2828427,17.5625 27.7328427,18.5625 28.5328427,19.1625 C28.6328427,19.2625 28.7328427,19.3625 28.7328427,19.5125 L28.7328427,44.5625 C28.7328427,44.7625 28.6328427,44.9125 28.4328427,44.9625 C26.6328427,45.6625 25.3828427,47.2625 25.3328427,49.1625 C25.3328427,49.4125 25.1328427,49.6125 24.8828427,49.6125 L21.4328427,49.6125 C20.7328427,49.6125 20.1828427,50.1625 20.1828427,50.8625 L20.1828427,52.1125 L20.3328427,52.1125 Z M37.5328427,30.3625 C38.6328427,32.8125 41.1328427,34.4125 43.8828427,34.4125 C46.6328427,34.4125 49.1328427,32.8125 50.2828427,30.3625 L49.3328427,30.3625 C49.1828427,30.3625 48.9828427,30.2625 48.9328427,30.1125 L44.1828427,19.3625 C44.1328427,19.2625 44.0328427,19.2125 43.9328427,19.2125 C43.8328427,19.2125 43.7328427,19.2625 43.6828427,19.3625 L38.9328427,30.1125 C38.8828427,30.2625 38.6828427,30.3625 38.5328427,30.3625 L37.5328427,30.3625 Z M10.1328427,30.3625 C11.2828427,32.8625 13.7328427,34.4125 16.4828427,34.4125 C19.2328427,34.4125 21.7328427,32.8125 22.8828427,30.3625 L21.9328427,30.3625 C21.7828427,30.3625 21.5828427,30.2625 21.5328427,30.1125 L16.7828427,19.3625 C16.7328427,19.2625 16.6328427,19.2125 16.5328427,19.2125 C16.5328427,19.2125 16.5328427,19.2125 16.5328427,19.2125 C16.4328427,19.2125 16.3328427,19.2625 16.2828427,19.3625 L11.5328427,30.1125 C11.4828427,30.2625 11.2828427,30.3625 11.1328427,30.3625 L10.1328427,30.3625 Z M47.7828427,30.3625 L39.9828427,30.3625 C39.8328427,30.3625 39.6828427,30.2625 39.6328427,30.1625 C39.5328427,30.0125 39.5328427,29.8625 39.5828427,29.7625 L43.4828427,21.2125 C43.5328427,21.0625 43.7328427,20.9625 43.8828427,20.9625 C44.0328427,20.9625 44.2328427,21.0625 44.2828427,21.2125 L48.1828427,29.7625 C48.2328427,29.9125 48.2328427,30.0625 48.1328427,30.1625 C48.0828427,30.2625 47.9328427,30.3625 47.7828427,30.3625 Z M40.6828427,29.4625 L47.0828427,29.4625 L43.8828427,22.4125 L40.6828427,29.4625 Z M20.4328427,30.3625 L12.5828427,30.3625 C12.4328427,30.3625 12.2828427,30.2625 12.2328427,30.1625 C12.1328427,30.0125 12.1328427,29.8625 12.1828427,29.7625 L16.0828427,21.2125 C16.1328427,21.0625 16.3328427,20.9625 16.4828427,20.9625 C16.4828427,20.9625 16.4828427,20.9625 16.4828427,20.9625 C16.6328427,20.9625 16.8328427,21.0625 16.8828427,21.2125 L20.8328427,29.7625 C20.8828427,29.9125 20.8828427,30.0625 20.7828427,30.1625 C20.6828427,30.2625 20.5828427,30.3625 20.4328427,30.3625 Z M13.2328427,29.4625 L19.6828427,29.4625 L16.4328427,22.4125 L13.2328427,29.4625 Z" id="Shape" fill="#000000" fill-rule="nonzero"></path>
    </g>
</svg>