<?xml version="1.0" encoding="UTF-8"?>
<svg width="60px" height="60px" viewBox="0 0 60 60" version="1.1" xmlns="http://www.w3.org/2000/svg" xmlns:xlink="http://www.w3.org/1999/xlink">
    <title>Religion_Weltanschauung</title>
    <g id="Religion_Weltanschauung" stroke="none" stroke-width="1" fill="none" fill-rule="evenodd">
        <g id="Group" transform="translate(7.000000, 7.000000)" fill="#000000" fill-rule="nonzero">
            <path d="M17.45,7.65 C17.2,7.65 16.95,7.85 16.9,8.1 C16.45,11.3 13.5,13.55 10.3,13.15 C7.1,12.7 4.85,9.75 5.25,6.55 C5.6,3.95 7.65,1.85 10.3,1.5 C10.65,1.5 10.9,1.25 10.9,0.95 C10.9,0.65 10.65,0.4 10.35,0.4 C10,0.35 9.7,0.35 9.4,0.35 C9.35,0.35 9.3,0.35 9.25,0.35 C4.4,0.35 0.45,4.3 0.45,9.1 C0.45,13.9 4.4,17.85 9.2,17.85 C14,17.85 17.95,13.9 17.95,9.1 C17.95,8.75 17.95,8.4 17.9,8.05 C17.95,7.85 17.75,7.65 17.45,7.65 Z M9.3,16.85 C5.05,16.95 1.45,13.4 1.6,9.15 C1.8,3.7 6.75,1.8 6.75,1.8 L5.5,3.4 C3.25,6.95 4.1,10.85 7.25,13.05 C9.6,14.7 12.3,15 15.15,13.05 L16.65,11.75 C16.6,11.7 15.5,16.65 9.3,16.85 Z" id="Shape"></path>
            <path d="M10.4,3.1 C10.3,3.1 10.2,3.15 10.1,3.2 L10.1,3.2 C9.95,3.3 9.85,3.55 9.9,3.75 L10.2,5.5 L9,6.7 C8.85,6.85 8.8,7.05 8.85,7.25 C8.9,7.45 9.1,7.55 9.25,7.6 L10.85,7.85 L11.6,9.4 C11.7,9.6 11.9,9.7 12.1,9.7 C12.3,9.7 12.5,9.6 12.6,9.4 L13.35,7.85 L14.95,7.6 C15.1,7.6 15.2,7.5 15.3,7.4 C15.4,7.3 15.4,7.15 15.4,7 C15.4,6.9 15.35,6.8 15.25,6.75 L14.05,5.55 L14.35,3.85 C14.4,3.65 14.3,3.45 14.15,3.3 C14,3.2 13.75,3.15 13.6,3.25 L12.15,4.05 L10.7,3.25 C10.6,3.1 10.5,3.1 10.4,3.1 Z M11.25,5.55 L11.15,4.7 L11.85,5.05 C12,5.15 12.2,5.15 12.4,5.05 L13.2,4.65 L13.05,5.55 C13,5.7 13.1,5.9 13.2,6 L13.85,6.65 L12.9,6.8 C12.75,6.85 12.6,6.95 12.5,7.1 L12.15,7.85 L11.8,7.1 C11.7,6.95 11.55,6.8 11.4,6.8 L10.45,6.8 L11.15,6 C11.25,5.85 11.3,5.7 11.25,5.55 Z" id="Shape"></path>
            <path d="M28.25,15.1 C28.35,15.15 28.45,15.15 28.5,15.15 L33.7,15.15 L36.3,19.45 C36.35,19.55 36.5,19.65 36.65,19.7 C36.8,19.75 36.95,19.7 37.05,19.65 C37.15,19.6 37.2,19.55 37.25,19.45 L39.85,15.15 L45.05,15.15 C45.2,15.15 45.35,15.1 45.45,15 C45.55,14.9 45.6,14.75 45.6,14.6 C45.6,14.5 45.55,14.4 45.55,14.35 L42.95,10.05 L45.55,5.75 C45.7,5.5 45.6,5.15 45.35,5 C45.25,4.95 45.15,4.95 45.1,4.95 L39.9,4.95 L37.3,0.65 C37.25,0.55 37.1,0.45 36.95,0.4 C36.8,0.35 36.65,0.4 36.55,0.45 C36.45,0.5 36.4,0.55 36.35,0.65 L33.75,4.95 L28.5,4.95 C28.2,4.95 27.95,5.2 27.95,5.5 C27.95,5.6 28,5.7 28,5.75 L30.6,10.05 L28,14.35 C27.95,14.45 27.9,14.6 27.95,14.75 C28,14.9 28.1,15 28.25,15.1 Z M36.75,18.2 L34.95,15.2 L38.55,15.2 L36.75,18.2 Z M44,14.1 L40.4,14.1 L42.2,11.1 L44,14.1 Z M44,6 L42.2,9 L40.4,6 L44,6 Z M36.75,1.95 L38.55,4.95 L34.95,4.95 L36.75,1.95 Z M34.3,6 L39.2,6 L41.6,10.05 L39.2,14.1 L34.3,14.1 L31.9,10.05 L34.3,6 Z M29.45,6 L33.05,6 L31.25,9 L29.45,6 Z M31.25,11.1 L33.05,14.1 L29.45,14.1 L31.25,11.1 Z" id="Shape"></path>
            <path d="M13.85,32.4 L9.8,32.4 L9.8,28.35 C9.8,28.05 9.55,27.8 9.25,27.8 L5.6,27.8 C5.3,27.8 5.05,28.05 5.05,28.35 L5.05,32.4 L1,32.4 C0.7,32.4 0.45,32.65 0.45,32.95 L0.45,36.6 C0.45,36.9 0.7,37.15 1,37.15 L5.05,37.15 L5.05,44.85 C5.05,45.15 5.3,45.4 5.6,45.4 L9.25,45.4 C9.55,45.4 9.8,45.15 9.8,44.85 L9.8,37.15 L13.85,37.15 C14.15,37.15 14.4,36.9 14.4,36.6 L14.4,32.95 C14.4,32.65 14.15,32.4 13.85,32.4 Z M13.35,36.05 L9.3,36.05 C9,36.05 8.75,36.3 8.75,36.6 L8.75,44.3 L6.15,44.3 L6.15,36.6 C6.15,36.3 5.9,36.05 5.6,36.05 L1.55,36.05 L1.55,33.45 L5.6,33.45 C5.9,33.45 6.15,33.2 6.15,32.9 L6.15,28.85 L8.75,28.85 L8.75,32.9 C8.75,33.2 9,33.45 9.3,33.45 L13.35,33.45 L13.35,36.05 Z" id="Shape"></path>
            <path d="M45.5,36.25 L45.5,36.2 C45.5,35.8 45.45,35.4 45.35,35 C44.55,30.8 40.85,27.85 36.75,27.85 C36.2,27.85 35.7,27.9 35.15,28 C31.6,28.65 28.8,31.5 28.15,35 C28.05,35.4 28,35.8 28,36.2 L28,36.55 C28,41.4 31.95,45.3 36.75,45.3 C41.6,45.3 45.5,41.4 45.5,36.55 C45.5,36.5 45.5,36.4 45.5,36.25 Z M32.6,37.9 C31.65,37.9 30.85,37.1 30.85,36.15 C30.85,35.2 31.65,34.4 32.6,34.4 C33.55,34.4 34.35,35.2 34.35,36.15 C34.35,37.1 33.6,37.9 32.6,37.9 Z M43.35,38.8 C42.7,39.45 41.8,39.8 40.85,39.8 C40.8,39.8 40.8,39.8 40.75,39.8 C39.8,39.8 38.9,39.4 38.25,38.7 C37.6,38 37.25,37.1 37.25,36.15 C37.25,33.6 35.15,31.5 32.6,31.5 C32.35,31.5 32.1,31.5 31.85,31.55 L30.55,31.75 L31.5,30.85 C32.9,29.55 34.75,28.85 36.65,28.85 C36.65,28.85 36.65,28.85 36.65,28.85 C40.35,28.85 43.55,31.5 44.2,35.15 C44.25,35.5 44.3,35.85 44.35,36.2 C44.4,37.25 44,38.15 43.35,38.8 Z" id="Shape"></path>
            <path d="M40.85,35.15 C40.3,35.15 39.85,35.6 39.85,36.15 C39.85,36.7 40.3,37.15 40.85,37.15 C41.4,37.15 41.85,36.7 41.85,36.15 C41.85,35.6 41.4,35.15 40.85,35.15 Z" id="Path"></path>
        </g>
    </g>
</svg>