<?xml version="1.0" encoding="UTF-8"?>
<svg width="60px" height="60px" viewBox="0 0 60 60" version="1.1" xmlns="http://www.w3.org/2000/svg" xmlns:xlink="http://www.w3.org/1999/xlink">
    <title>Sexuelle_Identitaet_hover</title>
    <g id="Sexuelle_Identitaet_hover" stroke="none" stroke-width="1" fill="none" fill-rule="evenodd">
        <path d="M23.1,34.4 C24.95,36.25 27.4,37.25 30.05,37.25 C32.8,37.25 35.1,36.3 36.95,34.45 C38.1,33.3 38.95,31.85 39.45,30.3 C39.55,30 39.35,29.65 39.05,29.55 C38.75,29.5 38.4,29.65 38.3,29.95 C37.95,31.25 37.15,32.55 36.15,33.55 C34.55,35.15 32.3,36.1 30.1,36.1 C27.75,36.1 25.6,35.2 24.05,33.55 C21.3,30.8 20.75,26.45 22.7,23.1 C22.85,22.8 22.8,22.45 22.5,22.25 C22.4,22.2 22.3,22.2 22.25,22.2 C22.05,22.2 21.8,22.3 21.7,22.5 C19.35,26.3 20,31.2 23.1,34.4 Z" id="Path" fill="#FFFFFF" fill-rule="nonzero"></path>
        <path d="M26.45,19.5 C26.6,19.55 26.75,19.55 26.85,19.5 L26.85,19.5 C27.85,19.1 28.9,18.95 29.9,18.95 C32.15,18.95 34.4,19.85 36.05,21.5 C36.9,22.35 37.5,23.3 37.95,24.35 C38.05,24.6 38.3,24.7 38.5,24.7 C38.6,24.7 38.65,24.7 38.7,24.65 C38.9,24.55 39,24.45 39.05,24.35 C39.1,24.2 39.1,24.05 39.05,23.9 C38.7,22.95 38.15,22.05 37.5,21.3 L37.3,21.05 L42.35,16 L42.35,18.85 C42.35,19.15 42.65,19.45 42.95,19.45 C43.25,19.45 43.55,19.15 43.55,18.85 L43.55,14.5 C43.55,14.45 43.55,14.4 43.55,14.4 L43.55,14.35 C43.45,14.1 43.35,14.05 43.25,14.05 L43.2,14.05 C43.15,14 43.1,14 43.05,14 L38.6,14 C38.3,14 38,14.3 38,14.6 C38,14.9 38.3,15.2 38.6,15.2 L41.55,15.2 L36.5,20.25 L36.25,20.05 C33.5,17.75 29.7,17.15 26.45,18.45 C26.3,18.5 26.15,18.65 26.1,18.8 C26.05,18.95 26.05,19.1 26.1,19.2 C26.2,19.3 26.3,19.45 26.45,19.5 Z" id="Path" fill="#FFFFFF" fill-rule="nonzero"></path>
        <path d="M52.2,23.1 C52.1,22.9 52,22.8 51.9,22.75 C51.8,22.7 51.75,22.7 51.7,22.7 L47.25,22.7 C46.95,22.7 46.65,23 46.65,23.3 C46.65,23.6 46.95,23.9 47.25,23.9 L50.2,23.9 L45.15,28.95 L44.9,28.75 C43.15,27.25 40.95,26.5 38.6,26.5 C35.95,26.5 33.5,27.5 31.65,29.35 C30.5,30.5 29.65,31.95 29.15,33.5 C29.05,33.8 29.25,34.15 29.55,34.25 C29.85,34.3 30.2,34.15 30.3,33.85 C30.65,32.55 31.45,31.25 32.45,30.25 C34.05,28.65 36.3,27.7 38.5,27.7 C40.85,27.7 43,28.6 44.55,30.25 C47.9,33.6 47.9,39.1 44.55,42.45 C42.95,44.05 40.7,45 38.5,45 C36.15,45 34,44.1 32.45,42.45 C31.65,41.65 31,40.65 30.55,39.6 C30.5,39.4 30.35,39.35 30.25,39.3 C30.2,39.25 30.1,39.25 30,39.25 C29.95,39.25 29.85,39.25 29.8,39.3 C29.6,39.35 29.5,39.5 29.5,39.6 C29.45,39.75 29.45,39.9 29.5,40.05 C29.95,41.2 30.65,42.3 31.7,43.35 C33.55,45.2 36,46.2 38.65,46.2 C41.3,46.2 43.75,45.2 45.6,43.35 C49.2,39.75 49.45,34.05 46.2,30.15 L46,29.9 L51.05,24.85 L51.05,27.7 C51.05,28 51.35,28.3 51.65,28.3 C51.95,28.3 52.25,28 52.25,27.7 L52.25,23.35 C52.25,23.3 52.2,23.25 52.2,23.25 C52.25,23.15 52.25,23.15 52.2,23.1 Z" id="Path" fill="#FFFFFF" fill-rule="nonzero"></path>
        <path d="M21.9,35.45 C21.8,35.2 21.45,35 21.1,35.15 C20.05,35.6 18.9,35.85 17.8,35.85 C13.05,35.85 9.2,32 9.2,27.25 C9.2,22.5 13.05,18.65 17.8,18.65 C22.55,18.65 26.4,22.5 26.4,27.25 C26.4,28.7 26,30.2 25.3,31.4 C25.25,31.5 25.2,31.7 25.25,31.8 C25.3,31.95 25.4,32.1 25.55,32.15 C25.8,32.3 26.15,32.2 26.35,31.9 C27.15,30.5 27.6,28.85 27.6,27.15 C27.6,21.75 23.2,17.4 17.8,17.4 C12.4,17.4 8,21.8 8,27.2 C8,32.25 11.9,36.55 16.9,36.95 L17.2,36.95 L17.2,42 L14.7,42 C14.4,42 14.1,42.3 14.1,42.6 C14.1,42.9 14.4,43.2 14.7,43.2 L17.2,43.2 L17.2,45.6 C17.2,45.9 17.5,46.2 17.8,46.2 C18.1,46.2 18.4,45.9 18.4,45.6 L18.4,43.2 L20.9,43.2 C21.2,43.2 21.5,42.9 21.5,42.6 C21.5,42.3 21.2,42 20.9,42 L18.4,42 L18.4,36.95 L18.7,36.9 C19.7,36.8 20.65,36.55 21.65,36.2 C21.95,36.15 22,35.75 21.9,35.45 Z" id="Path" fill="#FFFFFF" fill-rule="nonzero"></path>
    </g>
</svg>