<?xml version="1.0" encoding="UTF-8"?>
<svg width="60px" height="60px" viewBox="0 0 60 60" version="1.1" xmlns="http://www.w3.org/2000/svg" xmlns:xlink="http://www.w3.org/1999/xlink">
    <title>Sonstiges</title>
    <g id="Sonstiges" stroke="none" stroke-width="1" fill="none" fill-rule="evenodd">
        <g id="Group" transform="translate(7.000000, 9.000000)" fill="#000000" fill-rule="nonzero">
            <path d="M44.75,22.2 C43.75,20.6 41.7,20.1 40.1,21.05 L35.95,23.6 C35.8,23.7 35.6,23.85 35.45,23.8 C35.3,23.75 35.2,23.55 35.1,23.4 L33.4,20.45 C32.15,18.3 29.8,16.95 27.3,16.95 L26.35,16.95 C26,16.95 25.65,16.75 25.65,16.4 C25.65,16.2 25.85,15.9 26,15.8 C28,14.5 29.05,12.15 28.65,9.8 C28.3,7.2 26.3,5.2 23.75,4.75 C22.15,4.45 20.5,4.8 19.2,5.7 C17.85,6.6 16.95,8 16.65,9.6 C16.6,9.95 16.55,10.35 16.55,10.75 C16.55,12.8 17.6,14.75 19.3,15.9 C19.5,16.05 19.85,16.35 19.75,16.6 C19.65,16.85 19.25,17 18.95,17 L18,17 C15.5,17 13.15,18.35 11.9,20.5 L10.2,23.45 C10.1,23.6 10.05,23.8 9.9,23.85 C9.75,23.9 9.55,23.75 9.4,23.65 L5.25,21.1 C3.65,20.15 1.6,20.65 0.65,22.25 C-0.05,23.4 -0.05,24.85 0.8,26.1 C1.05,26.45 1.35,26.7 1.7,26.9 L1.75,26.95 L8.8,31.25 C10.55,32.3 12.75,31.85 14,30.3 L14.35,29.85 C14.45,29.7 14.95,28.85 15.25,28.95 C15.5,29 15.45,29.95 15.45,30.2 L15.45,41.9 C15.45,42.2 15.7,42.5 16,42.5 L29.4,42.5 C29.6,42.5 29.75,42.35 29.75,42.15 L29.75,30.25 C29.75,30 29.65,29.2 30,29.1 C30.25,29.05 30.65,29.7 30.85,29.9 L31.2,30.35 C32.45,31.9 34.7,32.35 36.45,31.3 L43.5,27 C45.2,25.9 45.7,23.8 44.75,22.2 Z M43.95,24.45 C43.8,25 43.45,25.5 42.95,25.8 L35.95,30.1 C34.7,30.85 33.15,30.55 32.25,29.4 L29.8,26.25 C29.6,26 29.25,25.95 28.95,26.15 C28.8,26.25 28.7,26.45 28.7,26.6 L28.7,40.7 C28.7,40.9 28.55,41.05 28.35,41.05 L17.1,41.05 C16.9,41.05 16.75,40.9 16.75,40.7 L16.75,26.6 C16.75,26.3 16.5,26 16.15,26 C16.15,26 16.15,26 16.15,26 C15.95,26 15.8,26.1 15.7,26.25 L13.25,29.4 C12.35,30.5 10.8,30.8 9.55,30.1 L2.5,25.8 C2,25.5 1.65,25 1.5,24.45 C1.35,23.9 1.45,23.3 1.75,22.8 C1.8,22.75 1.8,22.7 1.85,22.65 C2.5,21.7 3.75,21.45 4.75,22 L9.95,25.15 C10.1,25.25 10.25,25.25 10.4,25.2 C10.55,25.15 10.7,25.05 10.75,24.95 L13.05,20.95 C14.1,19.15 16.05,18 18.15,18 L19.1,18 C19.6,18 20.05,17.85 20.4,17.55 C20.75,17.25 20.95,16.8 21,16.35 C21.05,15.7 20.7,15.1 20.15,14.75 C17.85,13.25 17.25,10.2 18.7,7.95 C19.8,6.25 21.8,5.45 23.75,5.8 C25.8,6.15 27.35,7.8 27.65,9.85 C27.95,11.75 27.1,13.65 25.5,14.7 C25,15.05 24.7,15.6 24.7,16.2 C24.7,17.2 25.45,18 26.45,18 L27.4,18 C29.5,18 31.45,19.15 32.5,20.95 L34.8,24.95 C34.9,25.1 35,25.2 35.15,25.25 C35.3,25.3 35.45,25.25 35.6,25.2 L40.8,22.05 C41.85,21.45 43.15,21.75 43.8,22.8 C44,23.3 44.1,23.9 43.95,24.45 Z" id="Shape"></path>
            <path d="M34.35,3.8 C34.65,3.9 35,3.8 35.1,3.5 C35.6,2.3 36.7,1.55 37.95,1.55 C38.15,1.55 38.35,1.55 38.6,1.6 C39.8,1.85 40.75,2.8 41,4 C41.3,5.4 40.6,6.8 39.35,7.4 C38.15,7.95 37.4,9.2 37.4,10.5 L37.4,11.4 C37.4,11.7 37.65,12 38,12 C38.35,12 38.6,11.75 38.6,11.4 L38.6,10.5 C38.6,9.65 39.1,8.8 39.9,8.45 C40.9,7.95 41.7,7.05 42.05,6 C42.4,4.9 42.35,3.75 41.85,2.75 C41.25,1.55 40.15,0.7 38.85,0.45 C36.85,0.05 34.85,1.15 34.05,3.05 C34,3.2 34,3.35 34.05,3.5 C34.05,3.65 34.2,3.75 34.35,3.8 Z" id="Path"></path>
            <path d="M37.95,15.3 C37.65,15.3 37.35,15.55 37.35,15.9 C37.35,16.25 37.6,16.5 37.95,16.5 C38.3,16.5 38.55,16.25 38.55,15.9 C38.55,15.55 38.3,15.3 37.95,15.3 Z" id="Path"></path>
            <path d="M3.6,3.8 C3.9,3.9 4.25,3.8 4.35,3.5 C4.85,2.3 5.95,1.55 7.2,1.55 C7.4,1.55 7.6,1.55 7.85,1.6 C9.05,1.85 10,2.8 10.25,4 C10.55,5.4 9.85,6.8 8.6,7.4 C7.4,7.95 6.65,9.2 6.65,10.5 L6.65,11.4 C6.65,11.7 6.9,12 7.25,12 C7.6,12 7.85,11.75 7.85,11.4 L7.85,10.5 C7.85,9.65 8.35,8.8 9.15,8.45 C11.25,7.4 12.15,4.85 11.1,2.75 C10.5,1.55 9.4,0.7 8.1,0.45 C6.1,0.05 4.1,1.15 3.3,3.05 C3.15,3.35 3.3,3.7 3.6,3.8 Z" id="Path"></path>
            <path d="M7.25,15.3 C6.95,15.3 6.65,15.55 6.65,15.9 C6.65,16.25 6.9,16.5 7.25,16.5 C7.6,16.5 7.85,16.25 7.85,15.9 C7.85,15.55 7.55,15.3 7.25,15.3 Z" id="Path"></path>
        </g>
    </g>
</svg>