<?xml version="1.0" encoding="UTF-8"?>
<svg width="60px" height="60px" viewBox="0 0 60 60" version="1.1" xmlns="http://www.w3.org/2000/svg" xmlns:xlink="http://www.w3.org/1999/xlink">
    <title>Sonstiges_hover</title>
    <g id="Sonstiges_hover" stroke="none" stroke-width="1" fill="none" fill-rule="evenodd">
        <path d="M51.75,31.2 C50.75,29.6 48.7,29.1 47.1,30.05 L42.95,32.6 C42.8,32.7 42.6,32.85 42.45,32.8 C42.3,32.75 42.2,32.55 42.1,32.4 L40.4,29.45 C39.15,27.3 36.8,25.95 34.3,25.95 L33.35,25.95 C33,25.95 32.65,25.75 32.65,25.4 C32.65,25.2 32.85,24.9 33,24.8 C35,23.5 36.05,21.15 35.65,18.8 C35.3,16.2 33.3,14.2 30.75,13.75 C29.15,13.45 27.5,13.8 26.2,14.7 C24.85,15.6 23.95,17 23.65,18.6 C23.6,18.95 23.55,19.35 23.55,19.75 C23.55,21.8 24.6,23.75 26.3,24.9 C26.5,25.05 26.85,25.35 26.75,25.6 C26.65,25.85 26.25,26 25.95,26 L25,26 C22.5,26 20.15,27.35 18.9,29.5 L17.2,32.45 C17.1,32.6 17.05,32.8 16.9,32.85 C16.75,32.9 16.55,32.75 16.4,32.65 L12.25,30.1 C10.65,29.15 8.6,29.65 7.65,31.25 C6.95,32.4 6.95,33.85 7.8,35.1 C8.05,35.45 8.35,35.7 8.7,35.9 L8.75,35.95 L15.8,40.25 C17.55,41.3 19.75,40.85 21,39.3 L21.35,38.85 C21.45,38.7 21.95,37.85 22.25,37.95 C22.5,38 22.45,38.95 22.45,39.2 L22.45,50.9 C22.45,51.2 22.7,51.5 23,51.5 L36.4,51.5 C36.6,51.5 36.75,51.35 36.75,51.15 L36.75,39.25 C36.75,39 36.65,38.2 37,38.1 C37.25,38.05 37.65,38.7 37.85,38.9 L38.2,39.35 C39.45,40.9 41.7,41.35 43.45,40.3 L50.5,36 C52.2,34.9 52.7,32.8 51.75,31.2 Z M50.95,33.45 C50.8,34 50.45,34.5 49.95,34.8 L42.95,39.1 C41.7,39.85 40.15,39.55 39.25,38.4 L36.8,35.25 C36.6,35 36.25,34.95 35.95,35.15 C35.8,35.25 35.7,35.45 35.7,35.6 L35.7,49.7 C35.7,49.9 35.55,50.05 35.35,50.05 L24.1,50.05 C23.9,50.05 23.75,49.9 23.75,49.7 L23.75,35.6 C23.75,35.3 23.5,35 23.15,35 C23.15,35 23.15,35 23.15,35 C22.95,35 22.8,35.1 22.7,35.25 L20.25,38.4 C19.35,39.5 17.8,39.8 16.55,39.1 L9.5,34.8 C9,34.5 8.65,34 8.5,33.45 C8.35,32.9 8.45,32.3 8.75,31.8 C8.8,31.75 8.8,31.7 8.85,31.65 C9.5,30.7 10.75,30.45 11.75,31 L16.95,34.15 C17.1,34.25 17.25,34.25 17.4,34.2 C17.55,34.15 17.7,34.05 17.75,33.95 L20.05,29.95 C21.1,28.15 23.05,27 25.15,27 L26.1,27 C26.6,27 27.05,26.85 27.4,26.55 C27.75,26.25 27.95,25.8 28,25.35 C28.05,24.7 27.7,24.1 27.15,23.75 C24.85,22.25 24.25,19.2 25.7,16.95 C26.8,15.25 28.8,14.45 30.75,14.8 C32.8,15.15 34.35,16.8 34.65,18.85 C34.95,20.75 34.1,22.65 32.5,23.7 C32,24.05 31.7,24.6 31.7,25.2 C31.7,26.2 32.45,27 33.45,27 L34.4,27 C36.5,27 38.45,28.15 39.5,29.95 L41.8,33.95 C41.9,34.1 42,34.2 42.15,34.25 C42.3,34.3 42.45,34.25 42.6,34.2 L47.8,31.05 C48.85,30.45 50.15,30.75 50.8,31.8 C51,32.3 51.1,32.9 50.95,33.45 Z" id="Shape" fill="#FFFFFF" fill-rule="nonzero"></path>
        <path d="M41.35,12.8 C41.65,12.9 42,12.8 42.1,12.5 C42.6,11.3 43.7,10.55 44.95,10.55 C45.15,10.55 45.35,10.55 45.6,10.6 C46.8,10.85 47.75,11.8 48,13 C48.3,14.4 47.6,15.8 46.35,16.4 C45.15,16.95 44.4,18.2 44.4,19.5 L44.4,20.4 C44.4,20.7 44.65,21 45,21 C45.35,21 45.6,20.75 45.6,20.4 L45.6,19.5 C45.6,18.65 46.1,17.8 46.9,17.45 C47.9,16.95 48.7,16.05 49.05,15 C49.4,13.9 49.35,12.75 48.85,11.75 C48.25,10.55 47.15,9.7 45.85,9.45 C43.85,9.05 41.85,10.15 41.05,12.05 C41,12.2 41,12.35 41.05,12.5 C41.05,12.65 41.2,12.75 41.35,12.8 Z" id="Path" fill="#FFFFFF" fill-rule="nonzero"></path>
        <path d="M44.95,24.3 C44.65,24.3 44.35,24.55 44.35,24.9 C44.35,25.25 44.6,25.5 44.95,25.5 C45.3,25.5 45.55,25.25 45.55,24.9 C45.55,24.55 45.3,24.3 44.95,24.3 Z" id="Path" fill="#FFFFFF" fill-rule="nonzero"></path>
        <path d="M10.6,12.8 C10.9,12.9 11.25,12.8 11.35,12.5 C11.85,11.3 12.95,10.55 14.2,10.55 C14.4,10.55 14.6,10.55 14.85,10.6 C16.05,10.85 17,11.8 17.25,13 C17.55,14.4 16.85,15.8 15.6,16.4 C14.4,16.95 13.65,18.2 13.65,19.5 L13.65,20.4 C13.65,20.7 13.9,21 14.25,21 C14.6,21 14.85,20.75 14.85,20.4 L14.85,19.5 C14.85,18.65 15.35,17.8 16.15,17.45 C18.25,16.4 19.15,13.85 18.1,11.75 C17.5,10.55 16.4,9.7 15.1,9.45 C13.1,9.05 11.1,10.15 10.3,12.05 C10.15,12.35 10.3,12.7 10.6,12.8 Z" id="Path" fill="#FFFFFF" fill-rule="nonzero"></path>
        <path d="M14.25,24.3 C13.95,24.3 13.65,24.55 13.65,24.9 C13.65,25.25 13.9,25.5 14.25,25.5 C14.6,25.5 14.85,25.25 14.85,24.9 C14.85,24.55 14.55,24.3 14.25,24.3 Z" id="Path" fill="#FFFFFF" fill-rule="nonzero"></path>
    </g>
</svg>