<?xml version="1.0" encoding="UTF-8"?>
<svg width="60px" height="60px" viewBox="0 0 60 60" version="1.1" xmlns="http://www.w3.org/2000/svg" xmlns:xlink="http://www.w3.org/1999/xlink">
    <title>Sozialer_Status</title>
    <g id="Sozialer_Status" stroke="none" stroke-width="1" fill="none" fill-rule="evenodd">
        <g id="Group" transform="translate(8.000000, 13.000000)" fill="#000000" fill-rule="nonzero">
            <path d="M42.95,13.8 L28.25,13.8 C27.95,13.8 27.75,14.05 27.75,14.3 L27.75,18.75 L14.4,18.75 C14.1,18.75 13.9,19 13.9,19.25 L13.9,23.7 L0.5,23.7 C0.2,23.7 0,23.95 0,24.2 L0,33 C0,33.3 0.25,33.5 0.5,33.5 L42.95,33.5 C43.25,33.5 43.45,33.25 43.45,33 L43.45,14.35 C43.5,14.05 43.25,13.8 42.95,13.8 Z M42.45,32.45 L1.05,32.45 L1.05,24.75 L14.4,24.75 C14.7,24.75 14.9,24.5 14.9,24.25 L14.9,19.8 L28.25,19.8 C28.55,19.8 28.75,19.55 28.75,19.3 L28.75,14.85 L42.4,14.85 L42.4,32.45 L42.45,32.45 Z" id="Shape"></path>
            <path d="M2.65,22.15 C2.7,22.4 2.9,22.6 3.15,22.6 L12.3,22.6 C12.55,22.6 12.8,22.4 12.8,22.15 L12.85,21.8 C12.9,21.6 12.9,21.4 12.9,21.25 C12.9,19.95 12.2,18.8 11,18 C11.45,17.25 11.7,16.3 11.7,15.3 C11.7,12.7 10,10.55 7.85,10.55 C5.75,10.55 4,12.65 4,15.3 C4,16.25 4.25,17.15 4.65,17.9 C3.3,18.7 2.5,19.95 2.5,21.3 C2.5,21.5 2.5,21.7 2.55,21.85 L2.65,22.15 Z M7.9,11.6 C9.45,11.6 10.7,13.25 10.7,15.3 C10.7,17.35 9.45,19 7.9,19 C6.35,19 5.1,17.35 5.1,15.3 C5.1,13.25 6.35,11.6 7.9,11.6 Z M5,18.9 C5.8,19.7 6.85,20.1 7.9,20.1 C8.9,20.1 9.85,19.7 10.65,19 C11.45,19.6 11.9,20.4 11.9,21.25 C11.9,21.35 11.9,21.45 11.9,21.55 L3.65,21.55 C3.65,21.45 3.65,21.35 3.65,21.25 C3.6,20.35 4.15,19.5 5,18.9 Z" id="Shape"></path>
            <path d="M16.75,17 C16.8,17.25 17,17.45 17.25,17.45 L26.4,17.45 C26.65,17.45 26.9,17.25 26.9,17 L26.95,16.65 C27,16.45 27,16.25 27,16.1 C27,14.85 26.3,13.65 25.15,12.9 C25.55,12.15 25.8,11.2 25.8,10.25 C25.8,7.65 24.1,5.5 21.95,5.5 C19.85,5.5 18.1,7.6 18.1,10.25 C18.1,11.2 18.3,12.05 18.7,12.75 C17.4,13.55 16.6,14.75 16.6,16.1 C16.6,16.3 16.6,16.5 16.65,16.65 L16.75,17 Z M22,6.5 C23.55,6.5 24.8,8.15 24.8,10.2 C24.8,12.25 23.55,13.9 22,13.9 C20.45,13.9 19.2,12.25 19.2,10.2 C19.2,8.2 20.45,6.5 22,6.5 Z M19.1,13.75 C19.9,14.55 20.95,14.95 22,14.95 C23,14.95 23.95,14.55 24.75,13.85 C25.55,14.45 26,15.25 26,16.1 C26,16.2 26,16.3 26,16.4 L17.75,16.4 C17.75,16.3 17.75,16.2 17.75,16.1 C17.7,15.2 18.2,14.35 19.1,13.75 Z" id="Shape"></path>
            <path d="M30.65,12.05 C30.7,12.3 30.9,12.5 31.15,12.5 L40.3,12.5 C40.55,12.5 40.8,12.3 40.8,12.05 L40.85,11.7 C40.9,11.5 40.9,11.3 40.9,11.15 C40.9,9.85 40.2,8.7 39,7.9 C39.45,7.15 39.7,6.2 39.7,5.15 C39.7,2.55 38,0.4 35.85,0.4 C33.75,0.4 32,2.5 32,5.15 C32,6.1 32.25,7 32.65,7.75 C31.3,8.55 30.5,9.8 30.5,11.15 C30.5,11.35 30.5,11.55 30.55,11.7 L30.65,12.05 Z M35.85,1.45 C37.4,1.45 38.65,3.1 38.65,5.15 C38.65,7.2 37.4,8.85 35.85,8.85 C34.3,8.85 33.05,7.2 33.05,5.15 C33.05,3.1 34.35,1.45 35.85,1.45 Z M33,8.8 C33.8,9.6 34.85,10 35.9,10 C36.9,10 37.85,9.6 38.65,8.9 C39.45,9.5 39.9,10.3 39.9,11.15 C39.9,11.25 39.9,11.35 39.9,11.45 L31.65,11.45 C31.65,11.35 31.65,11.25 31.65,11.15 C31.6,10.25 32.1,9.4 33,8.8 Z" id="Shape"></path>
        </g>
    </g>
</svg>