<?xml version="1.0" encoding="UTF-8"?>
<svg width="60px" height="60px" viewBox="0 0 60 60" version="1.1" xmlns="http://www.w3.org/2000/svg" xmlns:xlink="http://www.w3.org/1999/xlink">
    <title>Sozialer_Status_hover</title>
    <g id="Sozialer_Status_hover" stroke="none" stroke-width="1" fill="none" fill-rule="evenodd">
        <path d="M50.95,26.8 L36.25,26.8 C35.95,26.8 35.75,27.05 35.75,27.3 L35.75,31.75 L22.4,31.75 C22.1,31.75 21.9,32 21.9,32.25 L21.9,36.7 L8.5,36.7 C8.2,36.7 8,36.95 8,37.2 L8,46 C8,46.3 8.25,46.5 8.5,46.5 L50.95,46.5 C51.25,46.5 51.45,46.25 51.45,46 L51.45,27.35 C51.5,27.05 51.25,26.8 50.95,26.8 Z M50.45,45.45 L9.05,45.45 L9.05,37.75 L22.4,37.75 C22.7,37.75 22.9,37.5 22.9,37.25 L22.9,32.8 L36.25,32.8 C36.55,32.8 36.75,32.55 36.75,32.3 L36.75,27.85 L50.4,27.85 L50.4,45.45 L50.45,45.45 Z" id="Shape" fill="#FFFFFF" fill-rule="nonzero"></path>
        <path d="M10.65,35.15 C10.7,35.4 10.9,35.6 11.15,35.6 L20.3,35.6 C20.55,35.6 20.8,35.4 20.8,35.15 L20.85,34.8 C20.9,34.6 20.9,34.4 20.9,34.25 C20.9,32.95 20.2,31.8 19,31 C19.45,30.25 19.7,29.3 19.7,28.3 C19.7,25.7 18,23.55 15.85,23.55 C13.75,23.55 12,25.65 12,28.3 C12,29.25 12.25,30.15 12.65,30.9 C11.3,31.7 10.5,32.95 10.5,34.3 C10.5,34.5 10.5,34.7 10.55,34.85 L10.65,35.15 Z M15.9,24.6 C17.45,24.6 18.7,26.25 18.7,28.3 C18.7,30.35 17.45,32 15.9,32 C14.35,32 13.1,30.35 13.1,28.3 C13.1,26.25 14.35,24.6 15.9,24.6 Z M13,31.9 C13.8,32.7 14.85,33.1 15.9,33.1 C16.9,33.1 17.85,32.7 18.65,32 C19.45,32.6 19.9,33.4 19.9,34.25 C19.9,34.35 19.9,34.45 19.9,34.55 L11.65,34.55 C11.65,34.45 11.65,34.35 11.65,34.25 C11.6,33.35 12.15,32.5 13,31.9 Z" id="Shape" fill="#FFFFFF" fill-rule="nonzero"></path>
        <path d="M24.75,30 C24.8,30.25 25,30.45 25.25,30.45 L34.4,30.45 C34.65,30.45 34.9,30.25 34.9,30 L34.95,29.65 C35,29.45 35,29.25 35,29.1 C35,27.85 34.3,26.65 33.15,25.9 C33.55,25.15 33.8,24.2 33.8,23.25 C33.8,20.65 32.1,18.5 29.95,18.5 C27.85,18.5 26.1,20.6 26.1,23.25 C26.1,24.2 26.3,25.05 26.7,25.75 C25.4,26.55 24.6,27.75 24.6,29.1 C24.6,29.3 24.6,29.5 24.65,29.65 L24.75,30 Z M30,19.5 C31.55,19.5 32.8,21.15 32.8,23.2 C32.8,25.25 31.55,26.9 30,26.9 C28.45,26.9 27.2,25.25 27.2,23.2 C27.2,21.2 28.45,19.5 30,19.5 Z M27.1,26.75 C27.9,27.55 28.95,27.95 30,27.95 C31,27.95 31.95,27.55 32.75,26.85 C33.55,27.45 34,28.25 34,29.1 C34,29.2 34,29.3 34,29.4 L25.75,29.4 C25.75,29.3 25.75,29.2 25.75,29.1 C25.7,28.2 26.2,27.35 27.1,26.75 Z" id="Shape" fill="#FFFFFF" fill-rule="nonzero"></path>
        <path d="M38.65,25.05 C38.7,25.3 38.9,25.5 39.15,25.5 L48.3,25.5 C48.55,25.5 48.8,25.3 48.8,25.05 L48.85,24.7 C48.9,24.5 48.9,24.3 48.9,24.15 C48.9,22.85 48.2,21.7 47,20.9 C47.45,20.15 47.7,19.2 47.7,18.15 C47.7,15.55 46,13.4 43.85,13.4 C41.75,13.4 40,15.5 40,18.15 C40,19.1 40.25,20 40.65,20.75 C39.3,21.55 38.5,22.8 38.5,24.15 C38.5,24.35 38.5,24.55 38.55,24.7 L38.65,25.05 Z M43.85,14.45 C45.4,14.45 46.65,16.1 46.65,18.15 C46.65,20.2 45.4,21.85 43.85,21.85 C42.3,21.85 41.05,20.2 41.05,18.15 C41.05,16.1 42.35,14.45 43.85,14.45 Z M41,21.8 C41.8,22.6 42.85,23 43.9,23 C44.9,23 45.85,22.6 46.65,21.9 C47.45,22.5 47.9,23.3 47.9,24.15 C47.9,24.25 47.9,24.35 47.9,24.45 L39.65,24.45 C39.65,24.35 39.65,24.25 39.65,24.15 C39.6,23.25 40.1,22.4 41,21.8 Z" id="Shape" fill="#FFFFFF" fill-rule="nonzero"></path>
    </g>
</svg>