<?xml version="1.0" encoding="UTF-8"?>
<svg width="60px" height="60px" viewBox="0 0 60 60" version="1.1" xmlns="http://www.w3.org/2000/svg" xmlns:xlink="http://www.w3.org/1999/xlink">
    <title>Wohnungsmarkt</title>
    <g id="Wohnungsmarkt" stroke="none" stroke-width="1" fill="none" fill-rule="evenodd">
        <g id="Group" transform="translate(8.000000, 8.000000)" fill="#000000" fill-rule="nonzero">
            <path d="M16.05,7.35 C13.9,7.35 12.15,9.1 12.15,11.25 C12.15,13.4 13.9,15.15 16.05,15.15 C18.2,15.15 19.95,13.4 19.95,11.25 C19.95,9.1 18.2,7.35 16.05,7.35 Z M16.05,14 C14.5,14 13.3,12.75 13.3,11.25 C13.3,9.7 14.55,8.45 16.05,8.45 C17.6,8.45 18.8,9.7 18.8,11.25 C18.8,12.75 17.55,14 16.05,14 Z" id="Shape"></path>
            <path d="M13.6,24.55 L13.8,24.55 C14.1,24.55 14.35,24.3 14.35,24 C14.35,23.7 14.1,23.45 13.8,23.45 L13.6,23.45 C13.3,23.45 13.05,23.7 13.05,24 C13.05,24.3 13.3,24.55 13.6,24.55 Z" id="Path"></path>
            <path d="M44.8,41.2 C44.75,41.1 44.7,41 44.7,41 L39.7,33.45 L39.8,33.35 C42.45,30.8 43.05,26.7 41.25,23.5 C40.2,21.55 38.45,20.15 36.35,19.55 C34.25,18.95 32,19.2 30.05,20.25 C29.75,20.45 29.4,20.65 29.05,20.9 L28.8,21.1 L28.8,14.25 L31.95,17.5 C32.05,17.6 32.2,17.65 32.35,17.65 C32.5,17.65 32.65,17.6 32.75,17.5 C32.95,17.3 32.95,16.95 32.75,16.7 L26.6,10.45 L26.6,1.6 C26.6,1.3 26.35,1.05 26.05,1.05 L22.45,1.05 C22.15,1.05 21.9,1.3 21.9,1.6 L21.9,5.65 L16.95,0.6 C16.75,0.4 16.35,0.4 16.15,0.6 L0.35,16.75 C0.15,16.95 0.15,17.3 0.35,17.55 C0.55,17.75 0.9,17.75 1.15,17.55 L4.3,14.3 L4.3,30.8 L0.9,30.8 C0.6,30.8 0.35,31.05 0.35,31.35 C0.35,31.65 0.6,31.9 0.9,31.9 L26.9,31.9 C26.95,31.9 26.95,31.9 27,31.9 L27.1,31.9 L27.15,32 C29.05,34.9 32.55,36.35 35.95,35.55 L36.05,35.5 L39.75,43.75 C40.05,44.45 40.7,45 41.45,45.25 C42.2,45.5 43.05,45.4 43.7,45.05 C44.35,44.7 44.85,44.1 45.05,43.35 C45.2,42.6 45.15,41.8 44.8,41.2 Z M23,2.1 L25.5,2.1 L25.5,9.25 L23,6.7 L23,2.1 Z M15,30.55 L8.6,30.55 L8.6,19.25 L15,19.25 L15,30.55 Z M26.35,30.5 L26.45,30.7 L26.25,30.7 C26.25,30.7 26.2,30.7 26.2,30.7 L26.1,30.7 C26.1,30.7 26.05,30.7 26.05,30.7 C25.8,30.7 25.35,30.7 24.6,30.7 L16.2,30.7 L16.2,18.7 C16.2,18.4 15.95,18.15 15.65,18.15 L8,18.15 C7.7,18.15 7.45,18.4 7.45,18.7 L7.45,30.7 L5.35,30.7 L5.35,13.1 L16.5,1.7 L27.65,13.1 L27.65,22.2 L27.6,22.25 C25.7,24.55 25.2,27.75 26.35,30.5 Z M34,34.6 C33.35,34.6 32.65,34.5 32,34.3 C30.15,33.75 28.65,32.55 27.7,30.9 C25.8,27.45 27.05,23.1 30.5,21.2 L30.5,21.2 C32.15,20.3 34.1,20.05 35.95,20.6 C37.8,21.15 39.3,22.35 40.2,24 C42.1,27.45 40.85,31.7 37.4,33.7 C36.35,34.3 35.2,34.6 34,34.6 Z M43.95,43 C43.8,43.45 43.5,43.8 43.1,44.05 C42.85,44.2 42.55,44.25 42.3,44.25 C42.1,44.25 41.95,44.2 41.75,44.15 C41.3,44 40.95,43.65 40.75,43.25 L37.1,35.1 L37.3,35 C37.55,34.9 37.8,34.75 38,34.65 C38.25,34.5 38.5,34.35 38.7,34.2 L38.85,34.1 L38.95,34.2 L43.85,41.65 C44,42.1 44.05,42.55 43.95,43 Z" id="Shape"></path>
        </g>
    </g>
</svg>