<?xml version="1.0" encoding="UTF-8"?>
<svg width="60px" height="60px" viewBox="0 0 60 60" version="1.1" xmlns="http://www.w3.org/2000/svg" xmlns:xlink="http://www.w3.org/1999/xlink">
    <title>Wohnungsmarkt_hover</title>
    <g id="Wohnungsmarkt_hover" stroke="none" stroke-width="1" fill="none" fill-rule="evenodd">
        <g id="Group" fill="#FFFFFF" fill-rule="nonzero">
            <path d="M21.1648352,9.69230769 C18.3296703,9.69230769 16.021978,12 16.021978,14.8351648 C16.021978,17.6703297 18.3296703,19.978022 21.1648352,19.978022 C24,19.978022 26.3076923,17.6703297 26.3076923,14.8351648 C26.3076923,12 24,9.69230769 21.1648352,9.69230769 Z M21.1648352,18.4615385 C19.1208791,18.4615385 17.5384615,16.8131868 17.5384615,14.8351648 C17.5384615,12.7912088 19.1868132,11.1428571 21.1648352,11.1428571 C23.2087912,11.1428571 24.7912088,12.7912088 24.7912088,14.8351648 C24.7912088,16.8131868 23.1428571,18.4615385 21.1648352,18.4615385 Z" id="Shape"></path>
            <path d="M17.9340659,32.3736264 L18.1978022,32.3736264 C18.5934066,32.3736264 18.9230769,32.043956 18.9230769,31.6483516 C18.9230769,31.2527473 18.5934066,30.9230769 18.1978022,30.9230769 L17.9340659,30.9230769 C17.5384615,30.9230769 17.2087912,31.2527473 17.2087912,31.6483516 C17.2087912,32.043956 17.5384615,32.3736264 17.9340659,32.3736264 Z" id="Path"></path>
            <path d="M59.0769231,54.3296703 C59.010989,54.1978022 58.9450549,54.0659341 58.9450549,54.0659341 L52.3516484,44.1098901 L52.4835165,43.978022 C55.978022,40.6153846 56.7692308,35.2087912 54.3956044,30.989011 C53.010989,28.4175824 50.7032967,26.5714286 47.9340659,25.7802198 C45.1648352,24.989011 42.1978022,25.3186813 39.6263736,26.7032967 C39.2307692,26.967033 38.7692308,27.2307692 38.3076923,27.5604396 L37.978022,27.8241758 L37.978022,18.7912088 L42.1318681,23.0769231 C42.2637363,23.2087912 42.4615385,23.2747253 42.6593407,23.2747253 C42.8571429,23.2747253 43.0549451,23.2087912 43.1868132,23.0769231 C43.4505495,22.8131868 43.4505495,22.3516484 43.1868132,22.021978 L35.0769231,13.7802198 L35.0769231,2.10989011 C35.0769231,1.71428571 34.7472527,1.38461538 34.3516484,1.38461538 L29.6043956,1.38461538 C29.2087912,1.38461538 28.8791209,1.71428571 28.8791209,2.10989011 L28.8791209,7.45054945 L22.3516484,0.791208791 C22.0879121,0.527472527 21.5604396,0.527472527 21.2967033,0.791208791 L0.461538462,22.0879121 C0.197802198,22.3516484 0.197802198,22.8131868 0.461538462,23.1428571 C0.725274725,23.4065934 1.18681319,23.4065934 1.51648352,23.1428571 L5.67032967,18.8571429 L5.67032967,40.6153846 L1.18681319,40.6153846 C0.791208791,40.6153846 0.461538462,40.9450549 0.461538462,41.3406593 C0.461538462,41.7362637 0.791208791,42.0659341 1.18681319,42.0659341 L35.4725275,42.0659341 C35.5384615,42.0659341 35.5384615,42.0659341 35.6043956,42.0659341 L35.7362637,42.0659341 L35.8021978,42.1978022 C38.3076923,46.021978 42.9230769,47.9340659 47.4065934,46.8791209 L47.5384615,46.8131868 L52.4175824,57.6923077 C52.8131868,58.6153846 53.6703297,59.3406593 54.6593407,59.6703297 C55.6483516,60 56.7692308,59.8681319 57.6263736,59.4065934 C58.4835165,58.9450549 59.1428571,58.1538462 59.4065934,57.1648352 C59.6043956,56.1758242 59.5384615,55.1208791 59.0769231,54.3296703 Z M30.3296703,2.76923077 L33.6263736,2.76923077 L33.6263736,12.1978022 L30.3296703,8.83516484 L30.3296703,2.76923077 Z M19.7802198,40.2857143 L11.3406593,40.2857143 L11.3406593,25.3846154 L19.7802198,25.3846154 L19.7802198,40.2857143 Z M34.7472527,40.2197802 L34.8791209,40.4835165 L34.6153846,40.4835165 C34.6153846,40.4835165 34.5494505,40.4835165 34.5494505,40.4835165 L34.4175824,40.4835165 C34.4175824,40.4835165 34.3516484,40.4835165 34.3516484,40.4835165 C34.021978,40.4835165 33.4285714,40.4835165 32.4395604,40.4835165 L21.3626374,40.4835165 L21.3626374,24.6593407 C21.3626374,24.2637363 21.032967,23.9340659 20.6373626,23.9340659 L10.5494505,23.9340659 C10.1538462,23.9340659 9.82417582,24.2637363 9.82417582,24.6593407 L9.82417582,40.4835165 L7.05494505,40.4835165 L7.05494505,17.2747253 L21.7582418,2.24175824 L36.4615385,17.2747253 L36.4615385,29.2747253 L36.3956044,29.3406593 C33.8901099,32.3736264 33.2307692,36.5934066 34.7472527,40.2197802 Z M44.8351648,45.6263736 C43.978022,45.6263736 43.0549451,45.4945055 42.1978022,45.2307692 C39.7582418,44.5054945 37.7802198,42.9230769 36.5274725,40.7472527 C34.021978,36.1978022 35.6703297,30.4615385 40.2197802,27.956044 L40.2197802,27.956044 C42.3956044,26.7692308 44.967033,26.4395604 47.4065934,27.1648352 C49.8461538,27.8901099 51.8241758,29.4725275 53.010989,31.6483516 C55.5164835,36.1978022 53.8681319,41.8021978 49.3186813,44.4395604 C47.9340659,45.2307692 46.4175824,45.6263736 44.8351648,45.6263736 Z M57.956044,56.7032967 C57.7582418,57.2967033 57.3626374,57.7582418 56.8351648,58.0879121 C56.5054945,58.2857143 56.1098901,58.3516484 55.7802198,58.3516484 C55.5164835,58.3516484 55.3186813,58.2857143 55.0549451,58.2197802 C54.4615385,58.021978 54,57.5604396 53.7362637,57.032967 L48.9230769,46.2857143 L49.1868132,46.1538462 C49.5164835,46.021978 49.8461538,45.8241758 50.1098901,45.6923077 C50.4395604,45.4945055 50.7692308,45.2967033 51.032967,45.0989011 L51.2307692,44.967033 L51.3626374,45.0989011 L57.8241758,54.9230769 C58.021978,55.5164835 58.0879121,56.1098901 57.956044,56.7032967 Z" id="Shape"></path>
        </g>
    </g>
</svg>