<?xml version="1.0" encoding="UTF-8"?>
<svg width="60px" height="60px" viewBox="0 0 60 60" version="1.1" xmlns="http://www.w3.org/2000/svg" xmlns:xlink="http://www.w3.org/1999/xlink">
    <title>Wohnungsmarkt_hover</title>
    <g id="Wohnungsmarkt_hover" stroke="none" stroke-width="1" fill="none" fill-rule="evenodd">
        <path d="M24.05,15.35 C21.9,15.35 20.15,17.1 20.15,19.25 C20.15,21.4 21.9,23.15 24.05,23.15 C26.2,23.15 27.95,21.4 27.95,19.25 C27.95,17.1 26.2,15.35 24.05,15.35 Z M24.05,22 C22.5,22 21.3,20.75 21.3,19.25 C21.3,17.7 22.55,16.45 24.05,16.45 C25.6,16.45 26.8,17.7 26.8,19.25 C26.8,20.75 25.55,22 24.05,22 Z" id="Shape" fill="#FFFFFF" fill-rule="nonzero"></path>
        <path d="M21.6,32.55 L21.8,32.55 C22.1,32.55 22.35,32.3 22.35,32 C22.35,31.7 22.1,31.45 21.8,31.45 L21.6,31.45 C21.3,31.45 21.05,31.7 21.05,32 C21.05,32.3 21.3,32.55 21.6,32.55 Z" id="Path" fill="#FFFFFF" fill-rule="nonzero"></path>
        <path d="M52.8,49.2 C52.75,49.1 52.7,49 52.7,49 L47.7,41.45 L47.8,41.35 C50.45,38.8 51.05,34.7 49.25,31.5 C48.2,29.55 46.45,28.15 44.35,27.55 C42.25,26.95 40,27.2 38.05,28.25 C37.75,28.45 37.4,28.65 37.05,28.9 L36.8,29.1 L36.8,22.25 L39.95,25.5 C40.05,25.6 40.2,25.65 40.35,25.65 C40.5,25.65 40.65,25.6 40.75,25.5 C40.95,25.3 40.95,24.95 40.75,24.7 L34.6,18.45 L34.6,9.6 C34.6,9.3 34.35,9.05 34.05,9.05 L30.45,9.05 C30.15,9.05 29.9,9.3 29.9,9.6 L29.9,13.65 L24.95,8.6 C24.75,8.4 24.35,8.4 24.15,8.6 L8.35,24.75 C8.15,24.95 8.15,25.3 8.35,25.55 C8.55,25.75 8.9,25.75 9.15,25.55 L12.3,22.3 L12.3,38.8 L8.9,38.8 C8.6,38.8 8.35,39.05 8.35,39.35 C8.35,39.65 8.6,39.9 8.9,39.9 L34.9,39.9 C34.95,39.9 34.95,39.9 35,39.9 L35.1,39.9 L35.15,40 C37.05,42.9 40.55,44.35 43.95,43.55 L44.05,43.5 L47.75,51.75 C48.05,52.45 48.7,53 49.45,53.25 C50.2,53.5 51.05,53.4 51.7,53.05 C52.35,52.7 52.85,52.1 53.05,51.35 C53.2,50.6 53.15,49.8 52.8,49.2 Z M31,10.1 L33.5,10.1 L33.5,17.25 L31,14.7 L31,10.1 Z M23,38.55 L16.6,38.55 L16.6,27.25 L23,27.25 L23,38.55 Z M34.35,38.5 L34.45,38.7 L34.25,38.7 C34.25,38.7 34.2,38.7 34.2,38.7 L34.1,38.7 C34.1,38.7 34.05,38.7 34.05,38.7 C33.8,38.7 33.35,38.7 32.6,38.7 L24.2,38.7 L24.2,26.7 C24.2,26.4 23.95,26.15 23.65,26.15 L16,26.15 C15.7,26.15 15.45,26.4 15.45,26.7 L15.45,38.7 L13.35,38.7 L13.35,21.1 L24.5,9.7 L35.65,21.1 L35.65,30.2 L35.6,30.25 C33.7,32.55 33.2,35.75 34.35,38.5 Z M42,42.6 C41.35,42.6 40.65,42.5 40,42.3 C38.15,41.75 36.65,40.55 35.7,38.9 C33.8,35.45 35.05,31.1 38.5,29.2 L38.5,29.2 C40.15,28.3 42.1,28.05 43.95,28.6 C45.8,29.15 47.3,30.35 48.2,32 C50.1,35.45 48.85,39.7 45.4,41.7 C44.35,42.3 43.2,42.6 42,42.6 Z M51.95,51 C51.8,51.45 51.5,51.8 51.1,52.05 C50.85,52.2 50.55,52.25 50.3,52.25 C50.1,52.25 49.95,52.2 49.75,52.15 C49.3,52 48.95,51.65 48.75,51.25 L45.1,43.1 L45.3,43 C45.55,42.9 45.8,42.75 46,42.65 C46.25,42.5 46.5,42.35 46.7,42.2 L46.85,42.1 L46.95,42.2 L51.85,49.65 C52,50.1 52.05,50.55 51.95,51 Z" id="Shape" fill="#FFFFFF" fill-rule="nonzero"></path>
    </g>
</svg>